ChamferedBeveledAngled-Thin.ufo
<glyph name="exclamation" format="2">
  <advance width="171.25"/>
  <unicode hex="0021"/>
  <outline>
    <contour>
      <point x="35.625" y="206.25" type="line"/>
      <point x="135.625" y="206.25" type="line"/>
      <point x="135.625" y="800" type="line"/>
      <point x="35.625" y="800" type="line"/>
    </contour>
    <contour>
      <point x="35.625" y="0" type="line"/>
      <point x="135.625" y="0" type="line"/>
      <point x="135.625" y="100.0" type="line"/>
      <point x="35.625" y="100.0" type="line"/>
    </contour>
  </outline>
</glyph>
<glyph name="quotedouble" format="2">
  <advance width="308.75"/>
  <unicode hex="0022"/>
  <outline>
    <contour>
      <point x="73.82160186767578" y="700" type="line"/>
      <point x="135.625" y="761.8033981323242" type="line"/>
      <point x="135.625" y="900" type="line"/>
      <point x="35.625" y="900" type="line"/>
      <point x="35.625" y="700" type="line"/>
    </contour>
    <contour>
      <point x="211.32160186767578" y="700" type="line"/>
      <point x="273.125" y="761.8033981323242" type="line"/>
      <point x="273.125" y="900" type="line"/>
      <point x="173.125" y="900" type="line"/>
      <point x="173.125" y="700" type="line"/>
    </contour>
  </outline>
</glyph>
<glyph name="numbersign" format="2">
  <advance width="500.41666000000004"/>
  <unicode hex="0023"/>
  <outline>
    <contour>
      <point x="131.4583282470703" y="200" type="line"/>
      <point x="131.4583282470703" y="-5" type="line"/>
      <point x="169.6549301147461" y="-5" type="line"/>
      <point x="231.4583282470703" y="56.80339813232422" type="line"/>
      <point x="231.4583282470703" y="200" type="line"/>
      <point x="268.9583282470703" y="200" type="line"/>
      <point x="268.9583282470703" y="-5" type="line"/>
      <point x="307.1549301147461" y="-5" type="line"/>
      <point x="368.9583282470703" y="56.80339813232422" type="line"/>
      <point x="368.9583282470703" y="200" type="line"/>
      <point x="402.9882583618164" y="200" type="line"/>
      <point x="464.7916564941406" y="261.8033981323242" type="line"/>
      <point x="464.7916564941406" y="300" type="line"/>
      <point x="368.9583282470703" y="300" type="line"/>
      <point x="368.9583282470703" y="500" type="line"/>
      <point x="402.9882583618164" y="500" type="line"/>
      <point x="464.7916564941406" y="561.8033981323242" type="line"/>
      <point x="464.7916564941406" y="600" type="line"/>
      <point x="368.9583282470703" y="600" type="line"/>
      <point x="368.9583282470703" y="805" type="line"/>
      <point x="330.76172637939453" y="805" type="line"/>
      <point x="268.9583282470703" y="743.1966018676758" type="line"/>
      <point x="268.9583282470703" y="600" type="line"/>
      <point x="231.4583282470703" y="600" type="line"/>
      <point x="231.4583282470703" y="805" type="line"/>
      <point x="193.26172637939453" y="805" type="line"/>
      <point x="131.4583282470703" y="743.1966018676758" type="line"/>
      <point x="131.4583282470703" y="600" type="line"/>
      <point x="97.42839813232422" y="600" type="line"/>
      <point x="35.625" y="538.1966018676758" type="line"/>
      <point x="35.625" y="500" type="line"/>
      <point x="131.4583282470703" y="500" type="line"/>
      <point x="131.4583282470703" y="300" type="line"/>
      <point x="97.42839813232422" y="300" type="line"/>
      <point x="35.625" y="238.19660186767578" type="line"/>
      <point x="35.625" y="200" type="line"/>
    </contour>
    <contour>
      <point x="268.9583282470703" y="500" type="line"/>
      <point x="268.9583282470703" y="300" type="line"/>
      <point x="231.4583282470703" y="300" type="line"/>
      <point x="231.4583282470703" y="500" type="line"/>
    </contour>
  </outline>
</glyph>
<glyph name="dollar" format="2">
  <advance width="308.75"/>
  <unicode hex="0024"/>
  <outline>
    <contour>
      <point x="35.625" y="638.1966018676758" type="line"/>
      <point x="35.625" y="411.8033981323242" type="line"/>
      <point x="97.42839813232422" y="350" type="line"/>
      <point x="135.625" y="350" type="line"/>
      <point x="135.625" y="800" type="line"/>
      <point x="85.625" y="800" type="line"/>
      <point x="85.625" y="688.1966018676758" type="line"/>
    </contour>
    <contour>
      <point x="270" y="700" type="line"/>
      <point x="220" y="700" type="line"/>
      <point x="220" y="800" type="line"/>
      <point x="170" y="800" type="line"/>
      <point x="170" y="661.8033981323242" type="line"/>
      <point x="231.80339813232422" y="600" type="line"/>
      <point x="270" y="600" type="line"/>
    </contour>
    <contour>
      <point x="173.125" y="0" type="line"/>
      <point x="223.125" y="0" type="line"/>
      <point x="223.125" y="111.80339813232422" type="line"/>
      <point x="273.125" y="161.80339813232422" type="line"/>
      <point x="273.125" y="388.1966018676758" type="line"/>
      <point x="211.32160186767578" y="450" type="line"/>
      <point x="173.125" y="450" type="line"/>
    </contour>
    <contour>
      <point x="85.625" y="0" type="line"/>
      <point x="135.625" y="0" type="line"/>
      <point x="135.625" y="138.19660186767578" type="line"/>
      <point x="73.82160186767578" y="200" type="line"/>
      <point x="35.625" y="200" type="line"/>
      <point x="35.625" y="100" type="line"/>
      <point x="85.625" y="100" type="line"/>
    </contour>
  </outline>
</glyph>
<glyph name="ampersand" format="2">
  <advance width="408.75"/>
  <unicode hex="0026"/>
  <outline>
    <contour>
      <point x="97.42839813232422" y="400" type="line"/>
      <point x="35.625" y="338.1966018676758" type="line"/>
      <point x="35.625" y="56.80339813232422" type="line"/>
      <point x="97.42839813232422" y="-5" type="line"/>
      <point x="135.625" y="-5" type="line"/>
      <point x="135.625" y="800" type="line"/>
      <point x="97.42839813232422" y="800" type="line"/>
      <point x="35.625" y="738.1966018676758" type="line"/>
      <point x="35.625" y="461.8033981323242" type="line"/>
    </contour>
    <contour>
      <point x="266.875" y="800.0" type="line"/>
      <point x="166.875" y="800.0" type="line"/>
      <point x="166.875" y="761.8034" type="line"/>
      <point x="228.6784" y="700.0" type="line"/>
      <point x="266.875" y="700.0" type="line"/>
    </contour>
    <contour>
      <point x="173.125" y="438.1966018676758" type="line"/>
      <point x="173.125" y="-5" type="line"/>
      <point x="211.32160186767578" y="-5" type="line"/>
      <point x="273.125" y="56.80339813232422" type="line"/>
      <point x="273.125" y="400" type="line"/>
      <point x="311.3216018676758" y="400" type="line"/>
      <point x="373.125" y="461.8033981323242" type="line"/>
      <point x="373.125" y="500" type="line"/>
      <point x="234.92839813232422" y="500" type="line"/>
    </contour>
  </outline>
</glyph>
<glyph name="parenleft" format="2">
  <advance width="171.25"/>
  <unicode hex="0028"/>
  <outline>
    <contour>
      <point x="97.42839813232422" y="-100" type="line"/>
      <point x="135.625" y="-100" type="line"/>
      <point x="135.625" y="900" type="line"/>
      <point x="97.42839813232422" y="900" type="line"/>
      <point x="35.625" y="838.1966018676758" type="line"/>
      <point x="35.625" y="-38.19660186767578" type="line"/>
    </contour>
  </outline>
</glyph>
<glyph name="parenright" format="2">
  <advance width="171.25"/>
  <unicode hex="0029"/>
  <outline>
    <contour>
      <point x="73.82160186767578" y="-100" type="line"/>
      <point x="135.625" y="-38.19660186767578" type="line"/>
      <point x="135.625" y="838.1966018676758" type="line"/>
      <point x="73.82160186767578" y="900" type="line"/>
      <point x="35.625" y="900" type="line"/>
      <point x="35.625" y="-100" type="line"/>
    </contour>
  </outline>
</glyph>
<glyph name="asterisk" format="2">
  <advance width="335.52344100918367"/>
  <unicode hex="002A"/>
  <outline>
    <contour>
      <point x="134.4283905029297" y="533.3333358764648" type="line"/>
      <point x="201.09505462646484" y="533.3333358764648" type="line"/>
      <point x="201.09505462646484" y="608.931640625" type="line"/>
      <point x="266.5651092529297" y="571.1324844360352" type="line"/>
      <point x="299.8984375" y="628.8675155639648" type="line"/>
      <point x="234.42838287353516" y="666.6666641235352" type="line"/>
      <point x="299.8984375" y="704.4658203125" type="line"/>
      <point x="266.5651092529297" y="762.2008438110352" type="line"/>
      <point x="201.09505462646484" y="724.4016952514648" type="line"/>
      <point x="201.09505462646484" y="800" type="line"/>
      <point x="134.4283905029297" y="800" type="line"/>
      <point x="134.4283905029297" y="724.4016876220703" type="line"/>
      <point x="68.95833587646484" y="762.2008438110352" type="line"/>
      <point x="35.625" y="704.4658203125" type="line"/>
      <point x="101.09505462646484" y="666.6666641235352" type="line"/>
      <point x="35.625" y="628.8675155639648" type="line"/>
      <point x="68.95833587646484" y="571.1324844360352" type="line"/>
      <point x="134.4283905029297" y="608.931640625" type="line"/>
    </contour>
  </outline>
</glyph>
<glyph name="plus" format="2">
  <advance width="446.25"/>
  <unicode hex="002B"/>
  <outline>
    <contour>
      <point x="173.125" y="200" type="line"/>
      <point x="273.125" y="200" type="line"/>
      <point x="273.125" y="350" type="line"/>
      <point x="373.125" y="350" type="line"/>
      <point x="373.125" y="450" type="line"/>
      <point x="273.125" y="450" type="line"/>
      <point x="273.125" y="600" type="line"/>
      <point x="173.125" y="600" type="line"/>
      <point x="173.125" y="450" type="line"/>
      <point x="73.125" y="450" type="line"/>
      <point x="73.125" y="350" type="line"/>
      <point x="173.125" y="350" type="line"/>
    </contour>
  </outline>
</glyph>
<glyph name="comma" format="2">
  <advance width="171.25"/>
  <unicode hex="002C"/>
  <outline>
    <contour>
      <point x="73.82160186767578" y="-100" type="line"/>
      <point x="135.625" y="-38.19660186767578" type="line"/>
      <point x="135.625" y="100" type="line"/>
      <point x="35.625" y="100" type="line"/>
      <point x="35.625" y="-100" type="line"/>
    </contour>
  </outline>
</glyph>
<glyph name="hyphen" format="2">
  <advance width="308.75"/>
  <unicode hex="002D"/>
  <outline>
    <contour>
      <point x="35.625" y="350" type="line"/>
      <point x="273.125" y="350" type="line"/>
      <point x="273.125" y="450" type="line"/>
      <point x="35.625" y="450" type="line"/>
    </contour>
  </outline>
</glyph>
<glyph name="period" format="2">
  <advance width="171.25"/>
  <unicode hex="002E"/>
  <outline>
    <contour>
      <point x="35.625" y="0" type="line"/>
      <point x="135.625" y="0" type="line"/>
      <point x="135.625" y="100.0" type="line"/>
      <point x="35.625" y="100.0" type="line"/>
    </contour>
  </outline>
</glyph>
<glyph name="one" format="2">
  <advance width="171.25"/>
  <unicode hex="0031"/>
  <outline>
    <contour>
      <point x="35.625" y="0" type="line"/>
      <point x="135.625" y="0" type="line"/>
      <point x="135.625" y="800" type="line"/>
      <point x="97.42839813232422" y="800" type="line"/>
      <point x="35.625" y="738.1966018676758" type="line"/>
    </contour>
  </outline>
</glyph>
<glyph name="two" format="2">
  <advance width="308.75"/>
  <unicode hex="0032"/>
  <outline>
    <contour>
      <point x="135.625" y="705.0" type="line"/>
      <point x="135.625" y="805.0" type="line"/>
      <point x="97.42840000000001" y="805.0" type="line"/>
      <point x="35.625" y="743.1966" type="line"/>
      <point x="35.625" y="705.0" type="line"/>
    </contour>
    <contour>
      <point x="211.32160186767578" y="161.6666717529297" type="line"/>
      <point x="273.125" y="223.4700698852539" type="line"/>
      <point x="273.125" y="743.1966018676758" type="line"/>
      <point x="211.32160186767578" y="805" type="line"/>
      <point x="173.125" y="805" type="line"/>
      <point x="173.125" y="161.6666717529297" type="line"/>
    </contour>
    <contour>
      <point x="35.625" y="38.19660186767578" type="line"/>
      <point x="35.625" y="0" type="line"/>
      <point x="273.125" y="0" type="line"/>
      <point x="273.125" y="100" type="line"/>
      <point x="97.42839813232422" y="100" type="line"/>
    </contour>
  </outline>
</glyph>
<glyph name="three" format="2">
  <advance width="308.75"/>
  <unicode hex="0033"/>
  <outline>
    <contour>
      <point x="135.625" y="705.0" type="line"/>
      <point x="135.625" y="805.0" type="line"/>
      <point x="97.42840000000001" y="805.0" type="line"/>
      <point x="35.625" y="743.1966" type="line"/>
      <point x="35.625" y="705.0" type="line"/>
    </contour>
    <contour>
      <point x="211.32160186767578" y="-5" type="line"/>
      <point x="273.125" y="56.80339813232422" type="line"/>
      <point x="273.125" y="338.1966018676758" type="line"/>
      <point x="211.32160186767578" y="400" type="line"/>
      <point x="273.125" y="461.8033981323242" type="line"/>
      <point x="273.125" y="743.1966018676758" type="line"/>
      <point x="211.32160186767578" y="805" type="line"/>
      <point x="173.125" y="805" type="line"/>
      <point x="173.125" y="-5" type="line"/>
    </contour>
    <contour>
      <point x="135.625" y="95.0" type="line"/>
      <point x="35.625" y="95.0" type="line"/>
      <point x="35.625" y="56.8034" type="line"/>
      <point x="97.42840000000001" y="-5.0" type="line"/>
      <point x="135.625" y="-5.0" type="line"/>
    </contour>
  </outline>
</glyph>
<glyph name="four" format="2">
  <advance width="308.75"/>
  <unicode hex="0034"/>
  <outline>
    <contour>
      <point x="73.82160186767578" y="300" type="line"/>
      <point x="135.625" y="361.8033981323242" type="line"/>
      <point x="135.625" y="800" type="line"/>
      <point x="35.625" y="800" type="line"/>
      <point x="35.625" y="300" type="line"/>
    </contour>
    <contour>
      <point x="173.125" y="0" type="line"/>
      <point x="273.125" y="0" type="line"/>
      <point x="273.125" y="500" type="line"/>
      <point x="173.125" y="500" type="line"/>
    </contour>
  </outline>
</glyph>
<glyph name="five" format="2">
  <advance width="308.75"/>
  <unicode hex="0035"/>
  <outline>
    <contour>
      <point x="100.55339813232422" y="350" type="line"/>
      <point x="138.75" y="350" type="line"/>
      <point x="138.75" y="800" type="line"/>
      <point x="38.75" y="800" type="line"/>
      <point x="38.75" y="411.8033981323242" type="line"/>
    </contour>
    <contour>
      <point x="270.0" y="800.0" type="line"/>
      <point x="170.0" y="800.0" type="line"/>
      <point x="170.0" y="761.8034" type="line"/>
      <point x="231.8034" y="700.0" type="line"/>
      <point x="270.0" y="700.0" type="line"/>
    </contour>
    <contour>
      <point x="211.32160186767578" y="-5" type="line"/>
      <point x="273.125" y="56.80339813232422" type="line"/>
      <point x="273.125" y="388.1966018676758" type="line"/>
      <point x="211.32160186767578" y="450" type="line"/>
      <point x="173.125" y="450" type="line"/>
      <point x="173.125" y="-5" type="line"/>
    </contour>
    <contour>
      <point x="135.625" y="95.0" type="line"/>
      <point x="35.625" y="95.0" type="line"/>
      <point x="35.625" y="56.8034" type="line"/>
      <point x="97.42840000000001" y="-5.0" type="line"/>
      <point x="135.625" y="-5.0" type="line"/>
    </contour>
  </outline>
</glyph>
<glyph name="six" format="2">
  <advance width="308.75"/>
  <unicode hex="0036"/>
  <outline>
    <contour>
      <point x="97.42839813232422" y="-5" type="line"/>
      <point x="135.625" y="-5" type="line"/>
      <point x="135.625" y="805" type="line"/>
      <point x="97.42839813232422" y="805" type="line"/>
      <point x="35.625" y="743.1966018676758" type="line"/>
      <point x="35.625" y="56.80339813232422" type="line"/>
    </contour>
    <contour>
      <point x="173.125" y="705.0" type="line"/>
      <point x="273.125" y="705.0" type="line"/>
      <point x="273.125" y="743.1966" type="line"/>
      <point x="211.3216" y="805.0" type="line"/>
      <point x="173.125" y="805.0" type="line"/>
    </contour>
    <contour>
      <point x="211.32160186767578" y="-5" type="line"/>
      <point x="273.125" y="56.80339813232422" type="line"/>
      <point x="273.125" y="438.1966018676758" type="line"/>
      <point x="211.32160186767578" y="500" type="line"/>
      <point x="173.125" y="500" type="line"/>
      <point x="173.125" y="-5" type="line"/>
    </contour>
  </outline>
</glyph>
<glyph name="colon" format="2">
  <advance width="171.25"/>
  <unicode hex="003A"/>
  <outline>
    <contour>
      <point x="35.625" y="500.0" type="line"/>
      <point x="135.625" y="500.0" type="line"/>
      <point x="135.625" y="600.0" type="line"/>
      <point x="35.625" y="600.0" type="line"/>
    </contour>
    <contour>
      <point x="35.625" y="0" type="line"/>
      <point x="135.625" y="0" type="line"/>
      <point x="135.625" y="100.0" type="line"/>
      <point x="35.625" y="100.0" type="line"/>
    </contour>
  </outline>
</glyph>
<glyph name="semicolon" format="2">
  <advance width="171.25"/>
  <unicode hex="003B"/>
  <outline>
    <contour>
      <point x="35.625" y="500.0" type="line"/>
      <point x="135.625" y="500.0" type="line"/>
      <point x="135.625" y="600.0" type="line"/>
      <point x="35.625" y="600.0" type="line"/>
    </contour>
    <contour>
      <point x="73.82160186767578" y="-100" type="line"/>
      <point x="135.625" y="-38.19660186767578" type="line"/>
      <point x="135.625" y="100" type="line"/>
      <point x="35.625" y="100" type="line"/>
      <point x="35.625" y="-100" type="line"/>
    </contour>
  </outline>
</glyph>
<glyph name="less" format="2">
  <advance width="271.25"/>
  <unicode hex="003C"/>
  <outline>
    <contour>
      <point x="35.625" y="638.1966018676758" type="line"/>
      <point x="35.625" y="161.80339813232422" type="line"/>
      <point x="97.42839813232422" y="100" type="line"/>
      <point x="235.625" y="100" type="line"/>
      <point x="235.625" y="138.19660186767578" type="line"/>
      <point x="173.82160186767578" y="200" type="line"/>
      <point x="135.625" y="200" type="line"/>
      <point x="135.625" y="600" type="line"/>
      <point x="173.82160186767578" y="600" type="line"/>
      <point x="235.625" y="661.8033981323242" type="line"/>
      <point x="235.625" y="700" type="line"/>
      <point x="97.42839813232422" y="700" type="line"/>
    </contour>
  </outline>
</glyph>
<glyph name="equal" format="2">
  <advance width="446.25"/>
  <unicode hex="003D"/>
  <outline>
    <contour>
      <point x="73.125" y="450" type="line"/>
      <point x="373.125" y="450" type="line"/>
      <point x="373.125" y="550" type="line"/>
      <point x="73.125" y="550" type="line"/>
    </contour>
    <contour>
      <point x="73.125" y="250" type="line"/>
      <point x="373.125" y="250" type="line"/>
      <point x="373.125" y="350" type="line"/>
      <point x="73.125" y="350" type="line"/>
    </contour>
  </outline>
</glyph>
<glyph name="question" format="2">
  <advance width="308.75"/>
  <unicode hex="003F"/>
  <outline>
    <contour>
      <point x="35.625" y="805.0" type="line"/>
      <point x="35.625" y="705.0" type="line"/>
      <point x="73.82159999999999" y="705.0" type="line"/>
      <point x="135.625" y="766.8034" type="line"/>
      <point x="135.625" y="805.0" type="line"/>
    </contour>
    <contour>
      <point x="211.32160186767578" y="405" type="line"/>
      <point x="273.125" y="466.8033981323242" type="line"/>
      <point x="273.125" y="743.1966018676758" type="line"/>
      <point x="211.32160186767578" y="805" type="line"/>
      <point x="173.125" y="805" type="line"/>
      <point x="173.125" y="405" type="line"/>
    </contour>
    <contour>
      <point x="35.625" y="206.25" type="line"/>
      <point x="135.625" y="206.25" type="line"/>
      <point x="135.625" y="495" type="line"/>
      <point x="97.42839813232422" y="495" type="line"/>
      <point x="35.625" y="433.1966018676758" type="line"/>
    </contour>
    <contour>
      <point x="35.625" y="0" type="line"/>
      <point x="135.625" y="0" type="line"/>
      <point x="135.625" y="100.0" type="line"/>
      <point x="35.625" y="100.0" type="line"/>
    </contour>
  </outline>
</glyph>
<glyph name="at" format="2">
  <advance width="842.0704"/>
  <unicode hex="0040"/>
  <outline>
    <contour>
      <point x="756.4454" y="538.93145" type="line"/>
      <point x="559.96665" y="735.4102" type="line"/>
      <point x="282.10375" y="735.4102" type="line"/>
      <point x="85.625" y="538.93145" type="line"/>
      <point x="85.625" y="261.06855" type="line"/>
      <point x="282.10375" y="64.5898" type="line"/>
      <point x="559.96665" y="64.5898" type="line"/>
      <point x="756.4454" y="261.06855" type="line"/>
    </contour>
    <contour>
      <point x="357.8386001586914" y="200" type="line"/>
      <point x="296.0352020263672" y="261.8033981323242" type="line"/>
      <point x="296.0352020263672" y="538.1966018676758" type="line"/>
      <point x="357.8386001586914" y="600" type="line"/>
      <point x="396.0352020263672" y="600" type="line"/>
      <point x="396.0352020263672" y="200" type="line"/>
    </contour>
    <contour>
      <point x="495.3386001586914" y="200" type="line"/>
      <point x="433.5352020263672" y="261.8033981323242" type="line"/>
      <point x="433.5352020263672" y="600" type="line"/>
      <point x="533.5352020263672" y="600" type="line"/>
      <point x="533.5352020263672" y="200" type="line"/>
    </contour>
  </outline>
</glyph>
<glyph name="C" format="2">
  <advance width="308.75"/>
  <unicode hex="0043"/>
  <outline>
    <contour>
      <point x="97.42839813232422" y="0" type="line"/>
      <point x="135.625" y="0" type="line"/>
      <point x="135.625" y="800" type="line"/>
      <point x="97.42839813232422" y="800" type="line"/>
      <point x="35.625" y="738.1966018676758" type="line"/>
      <point x="35.625" y="61.80339813232422" type="line"/>
    </contour>
    <contour>
      <point x="234.92839813232422" y="500" type="line"/>
      <point x="273.125" y="500" type="line"/>
      <point x="273.125" y="800" type="line"/>
      <point x="173.125" y="800" type="line"/>
      <point x="173.125" y="561.8033981323242" type="line"/>
    </contour>
    <contour>
      <point x="273.125" y="0.0" type="line"/>
      <point x="273.125" y="100.0" type="line"/>
      <point x="234.9284" y="100.0" type="line"/>
      <point x="173.125" y="38.1966" type="line"/>
      <point x="173.125" y="0.0" type="line"/>
    </contour>
  </outline>
</glyph>
<glyph name="F" format="2">
  <advance width="308.75"/>
  <unicode hex="0046"/>
  <outline>
    <contour>
      <point x="35.625" y="0" type="line"/>
      <point x="135.625" y="0" type="line"/>
      <point x="135.625" y="800" type="line"/>
      <point x="35.625" y="800" type="line"/>
    </contour>
    <contour>
      <point x="273.125" y="800.0" type="line"/>
      <point x="173.125" y="800.0" type="line"/>
      <point x="173.125" y="761.8034" type="line"/>
      <point x="234.9284" y="700.0" type="line"/>
      <point x="273.125" y="700.0" type="line"/>
    </contour>
    <contour>
      <point x="273.125" y="450.0" type="line"/>
      <point x="173.125" y="450.0" type="line"/>
      <point x="173.125" y="411.8034" type="line"/>
      <point x="234.9284" y="350.0" type="line"/>
      <point x="273.125" y="350.0" type="line"/>
    </contour>
  </outline>
</glyph>
<glyph name="H" format="2">
  <advance width="446.25"/>
  <unicode hex="0048"/>
  <outline>
    <contour>
      <point x="35.625" y="0" type="line"/>
      <point x="135.625" y="0" type="line"/>
      <point x="135.625" y="800" type="line"/>
      <point x="35.625" y="800" type="line"/>
    </contour>
    <contour>
      <point x="310.625" y="0" type="line"/>
      <point x="410.625" y="0" type="line"/>
      <point x="410.625" y="800" type="line"/>
      <point x="310.625" y="800" type="line"/>
    </contour>
    <contour>
      <point x="273.125" y="450.0" type="line"/>
      <point x="173.125" y="450.0" type="line"/>
      <point x="173.125" y="411.8034" type="line"/>
      <point x="234.9284" y="350.0" type="line"/>
      <point x="273.125" y="350.0" type="line"/>
    </contour>
  </outline>
</glyph>
<glyph name="J" format="2">
  <advance width="308.75"/>
  <unicode hex="004A"/>
  <outline>
    <contour>
      <point x="211.32160186767578" y="-5" type="line"/>
      <point x="273.125" y="56.80339813232422" type="line"/>
      <point x="273.125" y="800" type="line"/>
      <point x="173.125" y="800" type="line"/>
      <point x="173.125" y="-5" type="line"/>
    </contour>
    <contour>
      <point x="135.625" y="95.0" type="line"/>
      <point x="35.625" y="95.0" type="line"/>
      <point x="35.625" y="56.8034" type="line"/>
      <point x="97.42840000000001" y="-5.0" type="line"/>
      <point x="135.625" y="-5.0" type="line"/>
    </contour>
  </outline>
</glyph>
<glyph name="L" format="2">
  <advance width="308.75"/>
  <unicode hex="004C"/>
  <outline>
    <contour>
      <point x="35.625" y="0" type="line"/>
      <point x="135.625" y="0" type="line"/>
      <point x="135.625" y="800" type="line"/>
      <point x="35.625" y="800" type="line"/>
    </contour>
    <contour>
      <point x="273.125" y="0.0" type="line"/>
      <point x="273.125" y="100.0" type="line"/>
      <point x="234.9284" y="100.0" type="line"/>
      <point x="173.125" y="38.1966" type="line"/>
      <point x="173.125" y="0.0" type="line"/>
    </contour>
  </outline>
</glyph>
<glyph name="N" format="2">
  <advance width="308.75"/>
  <unicode hex="004E"/>
  <outline>
    <contour>
      <point x="35.625" y="0" type="line"/>
      <point x="135.625" y="0" type="line"/>
      <point x="135.625" y="800" type="line"/>
      <point x="35.625" y="800" type="line"/>
    </contour>
    <contour>
      <point x="173.125" y="0" type="line"/>
      <point x="273.125" y="0" type="line"/>
      <point x="273.125" y="738.1966018676758" type="line"/>
      <point x="211.32160186767578" y="800" type="line"/>
      <point x="173.125" y="800" type="line"/>
    </contour>
  </outline>
</glyph>
<glyph name="P" format="2">
  <advance width="308.75"/>
  <unicode hex="0050"/>
  <outline>
    <contour>
      <point x="35.625" y="0" type="line"/>
      <point x="135.625" y="0" type="line"/>
      <point x="135.625" y="800" type="line"/>
      <point x="35.625" y="800" type="line"/>
    </contour>
    <contour>
      <point x="211.32160186767578" y="200" type="line"/>
      <point x="273.125" y="261.8033981323242" type="line"/>
      <point x="273.125" y="738.1966018676758" type="line"/>
      <point x="211.32160186767578" y="800" type="line"/>
      <point x="173.125" y="800" type="line"/>
      <point x="173.125" y="200" type="line"/>
    </contour>
  </outline>
</glyph>
<glyph name="Q" format="2">
  <advance width="308.75"/>
  <unicode hex="0051"/>
  <outline>
    <contour>
      <point x="97.42839813232422" y="-5" type="line"/>
      <point x="135.625" y="-5" type="line"/>
      <point x="135.625" y="805" type="line"/>
      <point x="97.42839813232422" y="805" type="line"/>
      <point x="35.625" y="743.1966018676758" type="line"/>
      <point x="35.625" y="56.80339813232422" type="line"/>
    </contour>
    <contour>
      <point x="273.125" y="0" type="line"/>
      <point x="216.32160186767578" y="0" type="line"/>
      <point x="273.125" y="56.80339813232422" type="line"/>
      <point x="273.125" y="743.1966018676758" type="line"/>
      <point x="211.32160186767578" y="805" type="line"/>
      <point x="173.125" y="805" type="line"/>
      <point x="173.125" y="-38.19660186767578" type="line"/>
      <point x="234.92839813232422" y="-100" type="line"/>
      <point x="273.125" y="-100" type="line"/>
    </contour>
  </outline>
</glyph>
<glyph name="T" format="2">
  <advance width="446.25"/>
  <unicode hex="0054"/>
  <outline>
    <contour>
      <point x="35.625" y="800.0" type="line"/>
      <point x="35.625" y="700.0" type="line"/>
      <point x="73.82159999999999" y="700.0" type="line"/>
      <point x="135.625" y="761.8034" type="line"/>
      <point x="135.625" y="800.0" type="line"/>
    </contour>
    <contour>
      <point x="173.125" y="0" type="line"/>
      <point x="273.125" y="0" type="line"/>
      <point x="273.125" y="800" type="line"/>
      <point x="173.125" y="800" type="line"/>
    </contour>
    <contour>
      <point x="410.625" y="800.0" type="line"/>
      <point x="310.625" y="800.0" type="line"/>
      <point x="310.625" y="761.8034" type="line"/>
      <point x="372.4284" y="700.0" type="line"/>
      <point x="410.625" y="700.0" type="line"/>
    </contour>
  </outline>
</glyph>
<glyph name="W" format="2">
  <advance width="446.25"/>
  <unicode hex="0057"/>
  <outline>
    <contour>
      <point x="97.42839813232422" y="0" type="line"/>
      <point x="135.625" y="0" type="line"/>
      <point x="135.625" y="738.1966018676758" type="line"/>
      <point x="73.82160186767578" y="800" type="line"/>
      <point x="35.625" y="800" type="line"/>
      <point x="35.625" y="61.80339813232422" type="line"/>
    </contour>
    <contour>
      <point x="173.125" y="0" type="line"/>
      <point x="273.125" y="0" type="line"/>
      <point x="273.125" y="738.1966018676758" type="line"/>
      <point x="211.32160186767578" y="800" type="line"/>
      <point x="173.125" y="800" type="line"/>
    </contour>
    <contour>
      <point x="348.8216018676758" y="0" type="line"/>
      <point x="410.625" y="61.80339813232422" type="line"/>
      <point x="410.625" y="800" type="line"/>
      <point x="310.625" y="800" type="line"/>
      <point x="310.625" y="0" type="line"/>
    </contour>
  </outline>
</glyph>
<glyph name="X" format="2">
  <advance width="308.75"/>
  <unicode hex="0058"/>
  <outline>
    <contour>
      <point x="35.625" y="0" type="line"/>
      <point x="135.625" y="0" type="line"/>
      <point x="135.625" y="800" type="line"/>
      <point x="35.625" y="800" type="line"/>
      <point x="35.625" y="461.8033981323242" type="line"/>
      <point x="97.42839813232422" y="400" type="line"/>
      <point x="35.625" y="338.1966018676758" type="line"/>
    </contour>
    <contour>
      <point x="173.125" y="0" type="line"/>
      <point x="273.125" y="0" type="line"/>
      <point x="273.125" y="338.1966018676758" type="line"/>
      <point x="211.32160186767578" y="400" type="line"/>
      <point x="273.125" y="461.8033981323242" type="line"/>
      <point x="273.125" y="800" type="line"/>
      <point x="173.125" y="800" type="line"/>
    </contour>
  </outline>
</glyph>
<glyph name="Z" format="2">
  <advance width="308.75"/>
  <unicode hex="005A"/>
  <outline>
    <contour>
      <point x="35.625" y="800.0" type="line"/>
      <point x="35.625" y="700.0" type="line"/>
      <point x="73.82159999999999" y="700.0" type="line"/>
      <point x="135.625" y="761.8034" type="line"/>
      <point x="135.625" y="800.0" type="line"/>
    </contour>
    <contour>
      <point x="211.32160186767578" y="350" type="line"/>
      <point x="273.125" y="411.8033981323242" type="line"/>
      <point x="273.125" y="800" type="line"/>
      <point x="173.125" y="800" type="line"/>
      <point x="173.125" y="350" type="line"/>
    </contour>
    <contour>
      <point x="35.625" y="0" type="line"/>
      <point x="135.625" y="0" type="line"/>
      <point x="135.625" y="450" type="line"/>
      <point x="97.42839813232422" y="450" type="line"/>
      <point x="35.625" y="388.1966018676758" type="line"/>
    </contour>
    <contour>
      <point x="273.125" y="0.0" type="line"/>
      <point x="273.125" y="100.0" type="line"/>
      <point x="234.9284" y="100.0" type="line"/>
      <point x="173.125" y="38.1966" type="line"/>
      <point x="173.125" y="0.0" type="line"/>
    </contour>
  </outline>
</glyph>
<glyph name="bracketleft" format="2">
  <advance width="271.25"/>
  <unicode hex="005B"/>
  <outline>
    <contour>
      <point x="35.625" y="-100" type="line"/>
      <point x="235.625" y="-100" type="line"/>
      <point x="235.625" y="-61.80339813232422" type="line"/>
      <point x="173.82160186767578" y="0" type="line"/>
      <point x="135.625" y="0" type="line"/>
      <point x="135.625" y="800" type="line"/>
      <point x="173.82160186767578" y="800" type="line"/>
      <point x="235.625" y="861.8033981323242" type="line"/>
      <point x="235.625" y="900" type="line"/>
      <point x="35.625" y="900" type="line"/>
    </contour>
  </outline>
</glyph>
<glyph name="bracketright" format="2">
  <advance width="271.25"/>
  <unicode hex="005D"/>
  <outline>
    <contour>
      <point x="35.625" y="861.8033981323242" type="line"/>
      <point x="97.42839813232422" y="800" type="line"/>
      <point x="135.625" y="800" type="line"/>
      <point x="135.625" y="0" type="line"/>
      <point x="97.42839813232422" y="0" type="line"/>
      <point x="35.625" y="-61.80339813232422" type="line"/>
      <point x="35.625" y="-100" type="line"/>
      <point x="235.625" y="-100" type="line"/>
      <point x="235.625" y="900" type="line"/>
      <point x="35.625" y="900" type="line"/>
    </contour>
  </outline>
</glyph>
<glyph name="asciicircum" format="2">
  <advance width="271.25"/>
  <unicode hex="005E"/>
  <outline>
    <contour>
      <point x="35.625" y="800" type="line"/>
      <point x="35.625" y="700" type="line"/>
      <point x="73.82160186767578" y="700" type="line"/>
      <point x="135.625" y="761.8033981323242" type="line"/>
      <point x="197.42839813232422" y="700" type="line"/>
      <point x="235.625" y="700" type="line"/>
      <point x="235.625" y="800" type="line"/>
    </contour>
  </outline>
</glyph>
<glyph name="underscore" format="2">
  <advance width="308.75"/>
  <unicode hex="005F"/>
  <outline>
    <contour>
      <point x="35.625" y="-150" type="line"/>
      <point x="273.125" y="-150" type="line"/>
      <point x="273.125" y="-50" type="line"/>
      <point x="35.625" y="-50" type="line"/>
    </contour>
  </outline>
</glyph>
<glyph name="grave" format="2">
  <advance width="171.25"/>
  <unicode hex="0060"/>
  <outline>
    <contour>
      <point x="91.875" y="900.0" type="line"/>
      <point x="-8.125" y="900.0" type="line"/>
      <point x="-8.125" y="861.8034" type="line"/>
      <point x="53.678399999999996" y="800.0" type="line"/>
      <point x="91.875" y="800.0" type="line"/>
    </contour>
  </outline>
</glyph>
<glyph name="b" format="2">
  <advance width="308.75"/>
  <unicode hex="0062"/>
  <outline>
    <contour>
      <point x="35.625" y="0" type="line"/>
      <point x="135.625" y="0" type="line"/>
      <point x="135.625" y="800" type="line"/>
      <point x="35.625" y="800" type="line"/>
    </contour>
    <contour>
      <point x="211.32160186767578" y="0" type="line"/>
      <point x="273.125" y="61.80339813232422" type="line"/>
      <point x="273.125" y="543.1966018676758" type="line"/>
      <point x="211.32160186767578" y="605" type="line"/>
      <point x="173.125" y="605" type="line"/>
      <point x="173.125" y="0" type="line"/>
    </contour>
  </outline>
</glyph>
<glyph name="d" format="2">
  <advance width="308.75"/>
  <unicode hex="0064"/>
  <outline>
    <contour>
      <point x="173.125" y="0" type="line"/>
      <point x="273.125" y="0" type="line"/>
      <point x="273.125" y="800" type="line"/>
      <point x="173.125" y="800" type="line"/>
    </contour>
    <contour>
      <point x="97.42839813232422" y="0" type="line"/>
      <point x="135.625" y="0" type="line"/>
      <point x="135.625" y="605" type="line"/>
      <point x="97.42839813232422" y="605" type="line"/>
      <point x="35.625" y="543.1966018676758" type="line"/>
      <point x="35.625" y="61.80339813232422" type="line"/>
    </contour>
  </outline>
</glyph>
<glyph name="f" format="2">
  <advance width="308.75"/>
  <unicode hex="0066"/>
  <outline>
    <contour>
      <point x="35.625" y="0" type="line"/>
      <point x="135.625" y="0" type="line"/>
      <point x="135.625" y="800" type="line"/>
      <point x="97.42839813232422" y="800" type="line"/>
      <point x="35.625" y="738.1966018676758" type="line"/>
    </contour>
    <contour>
      <point x="273.125" y="800.0" type="line"/>
      <point x="173.125" y="800.0" type="line"/>
      <point x="173.125" y="761.8034" type="line"/>
      <point x="234.9284" y="700.0" type="line"/>
      <point x="273.125" y="700.0" type="line"/>
    </contour>
    <contour>
      <point x="273.125" y="587.5" type="line"/>
      <point x="173.125" y="587.5" type="line"/>
      <point x="173.125" y="549.3034" type="line"/>
      <point x="234.9284" y="487.5" type="line"/>
      <point x="273.125" y="487.5" type="line"/>
    </contour>
  </outline>
</glyph>
<glyph name="i" format="2">
  <advance width="171.25"/>
  <unicode hex="0069"/>
  <outline>
    <contour>
      <point x="35.625" y="647.22222" type="line"/>
      <point x="135.625" y="647.22222" type="line"/>
      <point x="135.625" y="747.22222" type="line"/>
      <point x="35.625" y="747.22222" type="line"/>
    </contour>
    <contour>
      <point x="35.625" y="0" type="line"/>
      <point x="135.625" y="0" type="line"/>
      <point x="135.625" y="600" type="line"/>
      <point x="35.625" y="600" type="line"/>
    </contour>
  </outline>
</glyph>
<glyph name="j" format="2">
  <advance width="308.75"/>
  <unicode hex="006A"/>
  <outline>
    <contour>
      <point x="173.125" y="647.22222" type="line"/>
      <point x="273.125" y="647.22222" type="line"/>
      <point x="273.125" y="747.22222" type="line"/>
      <point x="173.125" y="747.22222" type="line"/>
    </contour>
    <contour>
      <point x="211.32160186767578" y="-210" type="line"/>
      <point x="273.125" y="-148.19660186767578" type="line"/>
      <point x="273.125" y="600" type="line"/>
      <point x="173.125" y="600" type="line"/>
      <point x="173.125" y="-210" type="line"/>
    </contour>
    <contour>
      <point x="135.625" y="-110.0" type="line"/>
      <point x="35.625" y="-110.0" type="line"/>
      <point x="35.625" y="-148.1966" type="line"/>
      <point x="97.42840000000001" y="-210.0" type="line"/>
      <point x="135.625" y="-210.0" type="line"/>
    </contour>
  </outline>
</glyph>
<glyph name="l" format="2">
  <advance width="171.25"/>
  <unicode hex="006C"/>
  <outline>
    <contour>
      <point x="97.42839813232422" y="-5" type="line"/>
      <point x="135.625" y="-5" type="line"/>
      <point x="135.625" y="800" type="line"/>
      <point x="35.625" y="800" type="line"/>
      <point x="35.625" y="56.80339813232422" type="line"/>
    </contour>
  </outline>
</glyph>
<glyph name="m" format="2">
  <advance width="446.25"/>
  <unicode hex="006D"/>
  <outline>
    <contour>
      <point x="35.625" y="0" type="line"/>
      <point x="135.625" y="0" type="line"/>
      <point x="135.625" y="600" type="line"/>
      <point x="35.625" y="600" type="line"/>
    </contour>
    <contour>
      <point x="173.125" y="0" type="line"/>
      <point x="273.125" y="0" type="line"/>
      <point x="273.125" y="600" type="line"/>
      <point x="173.125" y="600" type="line"/>
    </contour>
    <contour>
      <point x="310.625" y="0" type="line"/>
      <point x="410.625" y="0" type="line"/>
      <point x="410.625" y="538.1966018676758" type="line"/>
      <point x="348.8216018676758" y="600" type="line"/>
      <point x="310.625" y="600" type="line"/>
    </contour>
  </outline>
</glyph>
<glyph name="n" format="2">
  <advance width="308.75"/>
  <unicode hex="006E"/>
  <outline>
    <contour>
      <point x="35.625" y="0" type="line"/>
      <point x="135.625" y="0" type="line"/>
      <point x="135.625" y="600" type="line"/>
      <point x="35.625" y="600" type="line"/>
    </contour>
    <contour>
      <point x="173.125" y="0" type="line"/>
      <point x="273.125" y="0" type="line"/>
      <point x="273.125" y="538.1966018676758" type="line"/>
      <point x="211.32160186767578" y="600" type="line"/>
      <point x="173.125" y="600" type="line"/>
    </contour>
  </outline>
</glyph>
<glyph name="p" format="2">
  <advance width="308.75"/>
  <unicode hex="0070"/>
  <outline>
    <contour>
      <point x="35.625" y="-200" type="line"/>
      <point x="135.625" y="-200" type="line"/>
      <point x="135.625" y="600" type="line"/>
      <point x="35.625" y="600" type="line"/>
    </contour>
    <contour>
      <point x="211.32160186767578" y="0" type="line"/>
      <point x="273.125" y="61.80339813232422" type="line"/>
      <point x="273.125" y="538.1966018676758" type="line"/>
      <point x="211.32160186767578" y="600" type="line"/>
      <point x="173.125" y="600" type="line"/>
      <point x="173.125" y="0" type="line"/>
    </contour>
  </outline>
</glyph>
<glyph name="q" format="2">
  <advance width="308.75"/>
  <unicode hex="0071"/>
  <outline>
    <contour>
      <point x="97.42839813232422" y="0" type="line"/>
      <point x="135.625" y="0" type="line"/>
      <point x="135.625" y="600" type="line"/>
      <point x="97.42839813232422" y="600" type="line"/>
      <point x="35.625" y="538.1966018676758" type="line"/>
      <point x="35.625" y="61.80339813232422" type="line"/>
    </contour>
    <contour>
      <point x="173.125" y="-200" type="line"/>
      <point x="273.125" y="-200" type="line"/>
      <point x="273.125" y="600" type="line"/>
      <point x="173.125" y="600" type="line"/>
    </contour>
  </outline>
</glyph>
<glyph name="r" format="2">
  <advance width="308.75"/>
  <unicode hex="0072"/>
  <outline>
    <contour>
      <point x="35.625" y="0" type="line"/>
      <point x="135.625" y="0" type="line"/>
      <point x="135.625" y="600" type="line"/>
      <point x="35.625" y="600" type="line"/>
    </contour>
    <contour>
      <point x="273.125" y="600.0" type="line"/>
      <point x="173.125" y="600.0" type="line"/>
      <point x="173.125" y="561.8034" type="line"/>
      <point x="234.9284" y="500.0" type="line"/>
      <point x="273.125" y="500.0" type="line"/>
    </contour>
  </outline>
</glyph>
<glyph name="t" format="2">
  <advance width="308.75"/>
  <unicode hex="0074"/>
  <outline>
    <contour>
      <point x="35.625" y="0" type="line"/>
      <point x="135.625" y="0" type="line"/>
      <point x="135.625" y="800" type="line"/>
      <point x="97.42839813232422" y="800" type="line"/>
      <point x="35.625" y="738.1966018676758" type="line"/>
    </contour>
    <contour>
      <point x="173.125" y="600.0" type="line"/>
      <point x="173.125" y="500.0" type="line"/>
      <point x="211.3216" y="500.0" type="line"/>
      <point x="273.125" y="561.8034" type="line"/>
      <point x="273.125" y="600.0" type="line"/>
    </contour>
  </outline>
</glyph>
<glyph name="w" format="2">
  <advance width="446.25"/>
  <unicode hex="0077"/>
  <outline>
    <contour>
      <point x="97.42839813232422" y="0" type="line"/>
      <point x="135.625" y="0" type="line"/>
      <point x="135.625" y="538.1966018676758" type="line"/>
      <point x="73.82160186767578" y="600" type="line"/>
      <point x="35.625" y="600" type="line"/>
      <point x="35.625" y="61.80339813232422" type="line"/>
    </contour>
    <contour>
      <point x="173.125" y="0" type="line"/>
      <point x="273.125" y="0" type="line"/>
      <point x="273.125" y="538.1966018676758" type="line"/>
      <point x="211.32160186767578" y="600" type="line"/>
      <point x="173.125" y="600" type="line"/>
    </contour>
    <contour>
      <point x="348.8216018676758" y="0" type="line"/>
      <point x="410.625" y="61.80339813232422" type="line"/>
      <point x="410.625" y="600" type="line"/>
      <point x="310.625" y="600" type="line"/>
      <point x="310.625" y="0" type="line"/>
    </contour>
  </outline>
</glyph>
<glyph name="bar" format="2">
  <advance width="171.25"/>
  <unicode hex="007C"/>
  <outline>
    <contour>
      <point x="35.625" y="-100" type="line"/>
      <point x="135.625" y="-100" type="line"/>
      <point x="135.625" y="900" type="line"/>
      <point x="35.625" y="900" type="line"/>
    </contour>
  </outline>
</glyph>
<glyph name="braceright" format="2">
  <advance width="171.25"/>
  <unicode hex="007D"/>
  <outline>
    <contour>
      <point x="97.42839813232422" y="400" type="line"/>
      <point x="35.625" y="338.1966018676758" type="line"/>
      <point x="35.625" y="-100" type="line"/>
      <point x="73.82160186767578" y="-100" type="line"/>
      <point x="135.625" y="-38.19660186767578" type="line"/>
      <point x="135.625" y="838.1966018676758" type="line"/>
      <point x="73.82160186767578" y="900" type="line"/>
      <point x="35.625" y="900" type="line"/>
      <point x="35.625" y="461.8033981323242" type="line"/>
    </contour>
  </outline>
</glyph>
<glyph name="tilde" format="2">
  <advance width="308.75"/>
  <unicode hex="007E"/>
  <outline>
    <contour>
      <point x="35.625" y="388.1966018676758" type="line"/>
      <point x="35.625" y="350" type="line"/>
      <point x="211.32160186767578" y="350" type="line"/>
      <point x="273.125" y="411.8033981323242" type="line"/>
      <point x="273.125" y="450" type="line"/>
      <point x="97.42839813232422" y="450" type="line"/>
    </contour>
  </outline>
</glyph>
<glyph name="invexclamation" format="2">
  <advance width="171.25"/>
  <unicode hex="00A1"/>
  <outline>
    <contour>
      <point x="35.625" y="500.0" type="line"/>
      <point x="135.625" y="500.0" type="line"/>
      <point x="135.625" y="600.0" type="line"/>
      <point x="35.625" y="600.0" type="line"/>
    </contour>
    <contour>
      <point x="35.625" y="-200" type="line"/>
      <point x="135.625" y="-200" type="line"/>
      <point x="135.625" y="393.75" type="line"/>
      <point x="35.625" y="393.75" type="line"/>
    </contour>
  </outline>
</glyph>
<glyph name="cent" format="2">
  <advance width="308.75"/>
  <unicode hex="00A2"/>
  <outline>
    <contour>
      <point x="85.625" y="0" type="line"/>
      <point x="135.625" y="0" type="line"/>
      <point x="135.625" y="600" type="line"/>
      <point x="85.625" y="600" type="line"/>
      <point x="85.625" y="493.1966018676758" type="line"/>
      <point x="35.625" y="443.1966018676758" type="line"/>
      <point x="35.625" y="156.80339813232422" type="line"/>
      <point x="85.625" y="106.80339813232422" type="line"/>
    </contour>
    <contour>
      <point x="273.125" y="510" type="line"/>
      <point x="223.125" y="510" type="line"/>
      <point x="223.125" y="600" type="line"/>
      <point x="173.125" y="600" type="line"/>
      <point x="173.125" y="471.8033981323242" type="line"/>
      <point x="234.92839813232422" y="410" type="line"/>
      <point x="273.125" y="410" type="line"/>
    </contour>
    <contour>
      <point x="173.125" y="0" type="line"/>
      <point x="223.125" y="0" type="line"/>
      <point x="223.125" y="90" type="line"/>
      <point x="273.125" y="90" type="line"/>
      <point x="273.125" y="190" type="line"/>
      <point x="234.92839813232422" y="190" type="line"/>
      <point x="173.125" y="128.19660186767578" type="line"/>
    </contour>
  </outline>
</glyph>
<glyph name="pound" format="2">
  <advance width="401.25"/>
  <unicode hex="00A3"/>
  <outline>
    <contour>
      <point x="123.125" y="0" type="line"/>
      <point x="223.125" y="0" type="line"/>
      <point x="223.125" y="805" type="line"/>
      <point x="184.92839813232422" y="805" type="line"/>
      <point x="123.125" y="743.1966018676758" type="line"/>
    </contour>
    <contour>
      <point x="365.625" y="771.00813" type="line"/>
      <point x="331.63313" y="805.0" type="line"/>
      <point x="289.61687" y="805.0" type="line"/>
      <point x="255.625" y="771.00813" type="line"/>
      <point x="255.625" y="728.99187" type="line"/>
      <point x="289.61687" y="695.0" type="line"/>
      <point x="331.63313" y="695.0" type="line"/>
      <point x="365.625" y="728.99187" type="line"/>
    </contour>
    <contour>
      <point x="35.625" y="375.0" type="line"/>
      <point x="85.625" y="375.0" type="line"/>
      <point x="85.625" y="425.0" type="line"/>
      <point x="35.625" y="425.0" type="line"/>
    </contour>
    <contour>
      <point x="260.625" y="375" type="line"/>
      <point x="335.625" y="375" type="line"/>
      <point x="335.625" y="425" type="line"/>
      <point x="260.625" y="425" type="line"/>
    </contour>
    <contour>
      <point x="360.625" y="0.0" type="line"/>
      <point x="360.625" y="100.0" type="line"/>
      <point x="322.4284" y="100.0" type="line"/>
      <point x="260.625" y="38.1966" type="line"/>
      <point x="260.625" y="0.0" type="line"/>
    </contour>
    <contour>
      <point x="35.625" y="0" type="line"/>
      <point x="85.625" y="0" type="line"/>
      <point x="85.625" y="50.0" type="line"/>
      <point x="35.625" y="50.0" type="line"/>
    </contour>
  </outline>
</glyph>
<glyph name="currency" format="2">
  <advance width="308.75"/>
  <unicode hex="00A4"/>
  <outline>
    <contour>
      <point x="35.625" y="225" type="line"/>
      <point x="85.625" y="225" type="line"/>
      <point x="85.625" y="261.8033981323242" type="line"/>
      <point x="97.42839813232422" y="250" type="line"/>
      <point x="135.625" y="250" type="line"/>
      <point x="135.625" y="550" type="line"/>
      <point x="97.42839813232422" y="550" type="line"/>
      <point x="85.625" y="538.1966018676758" type="line"/>
      <point x="85.625" y="575" type="line"/>
      <point x="35.625" y="575" type="line"/>
      <point x="35.625" y="525" type="line"/>
      <point x="72.42839813232422" y="525" type="line"/>
      <point x="35.625" y="488.1966018676758" type="line"/>
      <point x="35.625" y="311.8033981323242" type="line"/>
      <point x="72.42839813232422" y="275" type="line"/>
      <point x="35.625" y="275" type="line"/>
    </contour>
    <contour>
      <point x="223.125" y="225" type="line"/>
      <point x="273.125" y="225" type="line"/>
      <point x="273.125" y="275" type="line"/>
      <point x="236.32160186767578" y="275" type="line"/>
      <point x="273.125" y="311.8033981323242" type="line"/>
      <point x="273.125" y="488.1966018676758" type="line"/>
      <point x="236.32160186767578" y="525" type="line"/>
      <point x="273.125" y="525" type="line"/>
      <point x="273.125" y="575" type="line"/>
      <point x="223.125" y="575" type="line"/>
      <point x="223.125" y="538.1966018676758" type="line"/>
      <point x="211.32160186767578" y="550" type="line"/>
      <point x="173.125" y="550" type="line"/>
      <point x="173.125" y="250" type="line"/>
      <point x="211.32160186767578" y="250" type="line"/>
      <point x="223.125" y="261.8033981323242" type="line"/>
    </contour>
  </outline>
</glyph>
<glyph name="yen" format="2">
  <advance width="483.75"/>
  <unicode hex="00A5"/>
  <outline>
    <contour>
      <point x="184.92839813232422" y="200" type="line"/>
      <point x="223.125" y="200" type="line"/>
      <point x="223.125" y="743.1966018676758" type="line"/>
      <point x="161.32160186767578" y="805" type="line"/>
      <point x="123.125" y="805" type="line"/>
      <point x="123.125" y="261.8033981323242" type="line"/>
    </contour>
    <contour>
      <point x="298.8216018676758" y="-5" type="line"/>
      <point x="360.625" y="56.80339813232422" type="line"/>
      <point x="360.625" y="800" type="line"/>
      <point x="260.625" y="800" type="line"/>
      <point x="260.625" y="-5" type="line"/>
    </contour>
    <contour>
      <point x="35.625" y="550.0" type="line"/>
      <point x="85.625" y="550.0" type="line"/>
      <point x="85.625" y="600.0" type="line"/>
      <point x="35.625" y="600.0" type="line"/>
    </contour>
    <contour>
      <point x="398.125" y="550.0" type="line"/>
      <point x="448.125" y="550.0" type="line"/>
      <point x="448.125" y="600.0" type="line"/>
      <point x="398.125" y="600.0" type="line"/>
    </contour>
    <contour>
      <point x="35.625" y="400.0" type="line"/>
      <point x="85.625" y="400.0" type="line"/>
      <point x="85.625" y="450.0" type="line"/>
      <point x="35.625" y="450.0" type="line"/>
    </contour>
    <contour>
      <point x="398.125" y="400.0" type="line"/>
      <point x="448.125" y="400.0" type="line"/>
      <point x="448.125" y="450.0" type="line"/>
      <point x="398.125" y="450.0" type="line"/>
    </contour>
  </outline>
</glyph>
<glyph name="section" format="2">
  <advance width="308.75"/>
  <unicode hex="00A7"/>
  <outline>
    <contour>
      <point x="35.625" y="438.1966018676758" type="line"/>
      <point x="35.625" y="161.80339813232422" type="line"/>
      <point x="97.42839813232422" y="100" type="line"/>
      <point x="135.625" y="100" type="line"/>
      <point x="135.625" y="800" type="line"/>
      <point x="97.42839813232422" y="800" type="line"/>
      <point x="35.625" y="738.1966018676758" type="line"/>
      <point x="35.625" y="511.8033981323242" type="line"/>
      <point x="72.42839813232422" y="475" type="line"/>
    </contour>
    <contour>
      <point x="273.125" y="800.0" type="line"/>
      <point x="173.125" y="800.0" type="line"/>
      <point x="173.125" y="761.8034" type="line"/>
      <point x="234.9284" y="700.0" type="line"/>
      <point x="273.125" y="700.0" type="line"/>
    </contour>
    <contour>
      <point x="211.32160186767578" y="-200" type="line"/>
      <point x="273.125" y="-138.19660186767578" type="line"/>
      <point x="273.125" y="88.19660186767578" type="line"/>
      <point x="236.32160186767578" y="125" type="line"/>
      <point x="273.125" y="161.80339813232422" type="line"/>
      <point x="273.125" y="438.1966018676758" type="line"/>
      <point x="211.32160186767578" y="500" type="line"/>
      <point x="173.125" y="500" type="line"/>
      <point x="173.125" y="-200" type="line"/>
    </contour>
    <contour>
      <point x="35.625" y="-200" type="line"/>
      <point x="135.625" y="-200" type="line"/>
      <point x="135.625" y="-161.8034" type="line"/>
      <point x="73.82159999999999" y="-100.0" type="line"/>
      <point x="35.625" y="-100.0" type="line"/>
    </contour>
  </outline>
</glyph>
<glyph name="diaeresis" format="2">
  <advance width="308.75"/>
  <unicode hex="00A8"/>
  <outline>
    <contour>
      <point x="35.625" y="900.0" type="line"/>
      <point x="135.625" y="900.0" type="line"/>
      <point x="135.625" y="1000.0" type="line"/>
      <point x="35.625" y="1000.0" type="line"/>
    </contour>
    <contour>
      <point x="173.125" y="900.0" type="line"/>
      <point x="273.125" y="900.0" type="line"/>
      <point x="273.125" y="1000.0" type="line"/>
      <point x="173.125" y="1000.0" type="line"/>
    </contour>
  </outline>
</glyph>
<glyph name="copyright" format="2">
  <advance width="842.0704"/>
  <unicode hex="00A9"/>
  <outline>
    <contour>
      <point x="756.4454" y="538.93145" type="line"/>
      <point x="559.96665" y="735.4102" type="line"/>
      <point x="282.10375" y="735.4102" type="line"/>
      <point x="85.625" y="538.93145" type="line"/>
      <point x="85.625" y="261.06855" type="line"/>
      <point x="282.10375" y="64.5898" type="line"/>
      <point x="559.96665" y="64.5898" type="line"/>
      <point x="756.4454" y="261.06855" type="line"/>
    </contour>
    <contour>
      <point x="357.8386001586914" y="190" type="line"/>
      <point x="296.0352020263672" y="251.80339813232422" type="line"/>
      <point x="296.0352020263672" y="548.1966018676758" type="line"/>
      <point x="357.8386001586914" y="610" type="line"/>
      <point x="396.0352020263672" y="610" type="line"/>
      <point x="396.0352020263672" y="190" type="line"/>
    </contour>
    <contour>
      <point x="533.5352" y="610.0" type="line"/>
      <point x="533.5352" y="510.0" type="line"/>
      <point x="495.33860000000004" y="510.0" type="line"/>
      <point x="433.53520000000003" y="571.8034" type="line"/>
      <point x="433.53520000000003" y="610.0" type="line"/>
    </contour>
    <contour>
      <point x="533.5352" y="190.0" type="line"/>
      <point x="433.53520000000003" y="190.0" type="line"/>
      <point x="433.53520000000003" y="228.1966" type="line"/>
      <point x="495.33860000000004" y="290.0" type="line"/>
      <point x="533.5352" y="290.0" type="line"/>
    </contour>
  </outline>
</glyph>
<glyph name="angledblleft" format="2">
  <advance width="308.75"/>
  <unicode hex="00AB"/>
  <outline>
    <contour>
      <point x="97.42839813232422" y="300" type="line"/>
      <point x="135.625" y="300" type="line"/>
      <point x="135.625" y="500" type="line"/>
      <point x="97.42839813232422" y="500" type="line"/>
      <point x="35.625" y="438.1966018676758" type="line"/>
      <point x="35.625" y="361.8033981323242" type="line"/>
    </contour>
    <contour>
      <point x="234.92839813232422" y="300" type="line"/>
      <point x="273.125" y="300" type="line"/>
      <point x="273.125" y="500" type="line"/>
      <point x="234.92839813232422" y="500" type="line"/>
      <point x="173.125" y="438.1966018676758" type="line"/>
      <point x="173.125" y="361.8033981323242" type="line"/>
    </contour>
  </outline>
</glyph>
<glyph name="registered" format="2">
  <advance width="842.0704"/>
  <unicode hex="00AE"/>
  <outline>
    <contour>
      <point x="756.4454" y="538.93145" type="line"/>
      <point x="559.9666500000001" y="735.4102" type="line"/>
      <point x="282.10375" y="735.4102" type="line"/>
      <point x="85.625" y="538.93145" type="line"/>
      <point x="85.625" y="261.06855" type="line"/>
      <point x="282.10375" y="64.5898" type="line"/>
      <point x="559.9666500000001" y="64.5898" type="line"/>
      <point x="756.4454" y="261.06855" type="line"/>
    </contour>
    <contour>
      <point x="314.7852020263672" y="200" type="line"/>
      <point x="314.7852020263672" y="600" type="line"/>
      <point x="414.7852020263672" y="600" type="line"/>
      <point x="414.7852020263672" y="200" type="line"/>
    </contour>
    <contour>
      <point x="552.2852" y="600.0" type="line"/>
      <point x="552.2852" y="500.0" type="line"/>
      <point x="514.0886" y="500.0" type="line"/>
      <point x="452.28520000000003" y="561.8034" type="line"/>
      <point x="452.28520000000003" y="600.0" type="line"/>
    </contour>
  </outline>
</glyph>
<glyph name="macron" format="2">
  <advance width="308.75"/>
  <unicode hex="00AF"/>
  <outline>
    <contour>
      <point x="54.375" y="800" type="line"/>
      <point x="254.375" y="800" type="line"/>
      <point x="254.375" y="900" type="line"/>
      <point x="54.375" y="900" type="line"/>
    </contour>
  </outline>
</glyph>
<glyph name="degree" format="2">
  <advance width="218.75"/>
  <unicode hex="00B0"/>
  <outline>
    <contour>
      <point x="90.625" y="805.0" type="line"/>
      <point x="69.61687" y="805.0" type="line"/>
      <point x="35.625" y="771.00813" type="line"/>
      <point x="35.625" y="728.99187" type="line"/>
      <point x="69.61687" y="695.0" type="line"/>
      <point x="90.625" y="695.0" type="line"/>
    </contour>
    <contour>
      <point x="128.125" y="695.0" type="line"/>
      <point x="149.13313" y="695.0" type="line"/>
      <point x="183.125" y="728.99187" type="line"/>
      <point x="183.125" y="771.00813" type="line"/>
      <point x="149.13313" y="805.0" type="line"/>
      <point x="128.125" y="805.0" type="line"/>
    </contour>
  </outline>
</glyph>
<glyph name="plus_minus" format="2">
  <advance width="446.25"/>
  <unicode hex="00B1"/>
  <outline>
    <contour>
      <point x="173.125" y="300" type="line"/>
      <point x="273.125" y="300" type="line"/>
      <point x="273.125" y="450" type="line"/>
      <point x="373.125" y="450" type="line"/>
      <point x="373.125" y="550" type="line"/>
      <point x="273.125" y="550" type="line"/>
      <point x="273.125" y="700" type="line"/>
      <point x="173.125" y="700" type="line"/>
      <point x="173.125" y="550" type="line"/>
      <point x="73.125" y="550" type="line"/>
      <point x="73.125" y="450" type="line"/>
      <point x="173.125" y="450" type="line"/>
    </contour>
    <contour>
      <point x="73.125" y="150" type="line"/>
      <point x="373.125" y="150" type="line"/>
      <point x="373.125" y="250" type="line"/>
      <point x="73.125" y="250" type="line"/>
    </contour>
  </outline>
</glyph>
<glyph name="sup_two" format="2">
  <advance width="308.75"/>
  <unicode hex="00B2"/>
  <outline>
    <contour>
      <point x="135.625" y="705.0" type="line"/>
      <point x="135.625" y="805.0" type="line"/>
      <point x="97.42840000000001" y="805.0" type="line"/>
      <point x="35.625" y="743.1966" type="line"/>
      <point x="35.625" y="705.0" type="line"/>
    </contour>
    <contour>
      <point x="211.32160186767578" y="345" type="line"/>
      <point x="273.125" y="406.8033981323242" type="line"/>
      <point x="273.125" y="743.1966018676758" type="line"/>
      <point x="211.32160186767578" y="805" type="line"/>
      <point x="173.125" y="805" type="line"/>
      <point x="173.125" y="345" type="line"/>
    </contour>
    <contour>
      <point x="35.625" y="238.19660186767578" type="line"/>
      <point x="35.625" y="200" type="line"/>
      <point x="273.125" y="200" type="line"/>
      <point x="273.125" y="300" type="line"/>
      <point x="97.42839813232422" y="300" type="line"/>
    </contour>
  </outline>
</glyph>
<glyph name="sup_three" format="2">
  <advance width="308.75"/>
  <unicode hex="00B3"/>
  <outline>
    <contour>
      <point x="35.625" y="800.0" type="line"/>
      <point x="35.625" y="700.0" type="line"/>
      <point x="73.82159999999999" y="700.0" type="line"/>
      <point x="135.625" y="761.8034" type="line"/>
      <point x="135.625" y="800.0" type="line"/>
    </contour>
    <contour>
      <point x="211.32160186767578" y="195" type="line"/>
      <point x="273.125" y="256.8033981323242" type="line"/>
      <point x="273.125" y="538.1966018676758" type="line"/>
      <point x="211.32160186767578" y="600" type="line"/>
      <point x="273.125" y="661.8033981323242" type="line"/>
      <point x="273.125" y="800" type="line"/>
      <point x="173.125" y="800" type="line"/>
      <point x="173.125" y="195" type="line"/>
    </contour>
    <contour>
      <point x="135.625" y="295.0" type="line"/>
      <point x="35.625" y="295.0" type="line"/>
      <point x="35.625" y="256.8034" type="line"/>
      <point x="97.42840000000001" y="195.0" type="line"/>
      <point x="135.625" y="195.0" type="line"/>
    </contour>
  </outline>
</glyph>
<glyph name="acute" format="2">
  <advance width="171.25"/>
  <unicode hex="00B4"/>
  <outline>
    <contour>
      <point x="79.375" y="900.0" type="line"/>
      <point x="79.375" y="800.0" type="line"/>
      <point x="117.5716" y="800.0" type="line"/>
      <point x="179.375" y="861.8034" type="line"/>
      <point x="179.375" y="900.0" type="line"/>
    </contour>
  </outline>
</glyph>
<glyph name="mu" format="2">
  <advance width="346.25"/>
  <unicode hex="00B5"/>
  <outline>
    <contour>
      <point x="35.625" y="-200" type="line"/>
      <point x="135.625" y="-200" type="line"/>
      <point x="135.625" y="600" type="line"/>
      <point x="35.625" y="600" type="line"/>
    </contour>
    <contour>
      <point x="234.92839813232422" y="0" type="line"/>
      <point x="310.625" y="0" type="line"/>
      <point x="310.625" y="100" type="line"/>
      <point x="273.125" y="100" type="line"/>
      <point x="273.125" y="600" type="line"/>
      <point x="173.125" y="600" type="line"/>
      <point x="173.125" y="61.80339813232422" type="line"/>
    </contour>
  </outline>
</glyph>
<glyph name="periodcentered" format="2">
  <advance width="171.25"/>
  <unicode hex="00B7"/>
  <outline>
    <contour>
      <point x="35.625" y="350.0" type="line"/>
      <point x="135.625" y="350.0" type="line"/>
      <point x="135.625" y="450.0" type="line"/>
      <point x="35.625" y="450.0" type="line"/>
    </contour>
  </outline>
</glyph>
<glyph name="cedilla" format="2">
  <advance width="171.25"/>
  <unicode hex="00B8"/>
  <outline>
    <contour>
      <point x="79.375" y="-100.0" type="line"/>
      <point x="179.375" y="-100.0" type="line"/>
      <point x="179.375" y="-61.80340000000001" type="line"/>
      <point x="117.5716" y="0.0" type="line"/>
      <point x="79.375" y="0.0" type="line"/>
    </contour>
  </outline>
</glyph>
<glyph name="sup_one" format="2">
  <advance width="171.25"/>
  <unicode hex="00B9"/>
  <outline>
    <contour>
      <point x="35.625" y="200" type="line"/>
      <point x="135.625" y="200" type="line"/>
      <point x="135.625" y="800" type="line"/>
      <point x="35.625" y="800" type="line"/>
    </contour>
  </outline>
</glyph>
<glyph name="ordinalmasculine" format="2">
  <advance width="308.75"/>
  <unicode hex="00BA"/>
  <outline>
    <contour>
      <point x="97.42839813232422" y="400" type="line"/>
      <point x="135.625" y="400" type="line"/>
      <point x="135.625" y="800" type="line"/>
      <point x="97.42839813232422" y="800" type="line"/>
      <point x="35.625" y="738.1966018676758" type="line"/>
      <point x="35.625" y="461.8033981323242" type="line"/>
    </contour>
    <contour>
      <point x="211.32160186767578" y="400" type="line"/>
      <point x="273.125" y="461.8033981323242" type="line"/>
      <point x="273.125" y="738.1966018676758" type="line"/>
      <point x="211.32160186767578" y="800" type="line"/>
      <point x="173.125" y="800" type="line"/>
      <point x="173.125" y="400" type="line"/>
    </contour>
  </outline>
</glyph>
<glyph name="angledblright" format="2">
  <advance width="308.75"/>
  <unicode hex="00BB"/>
  <outline>
    <contour>
      <point x="73.82160186767578" y="300" type="line"/>
      <point x="135.625" y="361.8033981323242" type="line"/>
      <point x="135.625" y="438.1966018676758" type="line"/>
      <point x="73.82160186767578" y="500" type="line"/>
      <point x="35.625" y="500" type="line"/>
      <point x="35.625" y="300" type="line"/>
    </contour>
    <contour>
      <point x="211.32160186767578" y="300" type="line"/>
      <point x="273.125" y="361.8033981323242" type="line"/>
      <point x="273.125" y="438.1966018676758" type="line"/>
      <point x="211.32160186767578" y="500" type="line"/>
      <point x="173.125" y="500" type="line"/>
      <point x="173.125" y="300" type="line"/>
    </contour>
  </outline>
</glyph>
<glyph name="one_over_four" format="2">
  <advance width="583.75"/>
  <unicode hex="00BC"/>
  <outline>
    <contour>
      <point x="16.875" y="200" type="line"/>
      <point x="116.875" y="200" type="line"/>
      <point x="116.875" y="800" type="line"/>
      <point x="16.875" y="800" type="line"/>
    </contour>
    <contour>
      <point x="211.32160186767578" y="-200" type="line"/>
      <point x="273.125" y="-138.19660186767578" type="line"/>
      <point x="273.125" y="800" type="line"/>
      <point x="234.92839813232422" y="800" type="line"/>
      <point x="173.125" y="738.1966018676758" type="line"/>
      <point x="173.125" y="-200" type="line"/>
    </contour>
    <contour>
      <point x="367.5716018676758" y="0" type="line"/>
      <point x="429.375" y="61.80339813232422" type="line"/>
      <point x="429.375" y="400" type="line"/>
      <point x="329.375" y="400" type="line"/>
      <point x="329.375" y="0" type="line"/>
    </contour>
    <contour>
      <point x="466.875" y="-200" type="line"/>
      <point x="566.875" y="-200" type="line"/>
      <point x="566.875" y="200" type="line"/>
      <point x="466.875" y="200" type="line"/>
    </contour>
  </outline>
</glyph>
<glyph name="one_over_two" format="2">
  <advance width="583.75"/>
  <unicode hex="00BD"/>
  <outline>
    <contour>
      <point x="16.875" y="200" type="line"/>
      <point x="116.875" y="200" type="line"/>
      <point x="116.875" y="800" type="line"/>
      <point x="16.875" y="800" type="line"/>
    </contour>
    <contour>
      <point x="211.32160186767578" y="-200" type="line"/>
      <point x="273.125" y="-138.19660186767578" type="line"/>
      <point x="273.125" y="800" type="line"/>
      <point x="234.92839813232422" y="800" type="line"/>
      <point x="173.125" y="738.1966018676758" type="line"/>
      <point x="173.125" y="-200" type="line"/>
    </contour>
    <contour>
      <point x="429.375" y="305.0" type="line"/>
      <point x="429.375" y="405.0" type="line"/>
      <point x="391.1784" y="405.0" type="line"/>
      <point x="329.375" y="343.1966" type="line"/>
      <point x="329.375" y="305.0" type="line"/>
    </contour>
    <contour>
      <point x="505.0716018676758" y="-55" type="line"/>
      <point x="566.875" y="6.803398132324219" type="line"/>
      <point x="566.875" y="343.1966018676758" type="line"/>
      <point x="505.0716018676758" y="405" type="line"/>
      <point x="466.875" y="405" type="line"/>
      <point x="466.875" y="-55" type="line"/>
    </contour>
    <contour>
      <point x="329.375" y="-161.80339813232422" type="line"/>
      <point x="329.375" y="-200" type="line"/>
      <point x="566.875" y="-200" type="line"/>
      <point x="566.875" y="-100" type="line"/>
      <point x="391.1783981323242" y="-100" type="line"/>
    </contour>
  </outline>
</glyph>
<glyph name="three_over_four" format="2">
  <advance width="721.25"/>
  <unicode hex="00BE"/>
  <outline>
    <contour>
      <point x="16.875" y="800.0" type="line"/>
      <point x="16.875" y="700.0" type="line"/>
      <point x="55.071600000000004" y="700.0" type="line"/>
      <point x="116.875" y="761.8034" type="line"/>
      <point x="116.875" y="800.0" type="line"/>
    </contour>
    <contour>
      <point x="192.57160186767578" y="195" type="line"/>
      <point x="254.375" y="256.8033981323242" type="line"/>
      <point x="254.375" y="538.1966018676758" type="line"/>
      <point x="192.57160186767578" y="600" type="line"/>
      <point x="254.375" y="661.8033981323242" type="line"/>
      <point x="254.375" y="800" type="line"/>
      <point x="154.375" y="800" type="line"/>
      <point x="154.375" y="195" type="line"/>
    </contour>
    <contour>
      <point x="348.8216018676758" y="-200" type="line"/>
      <point x="410.625" y="-138.19660186767578" type="line"/>
      <point x="410.625" y="800" type="line"/>
      <point x="372.4283981323242" y="800" type="line"/>
      <point x="310.625" y="738.1966018676758" type="line"/>
      <point x="310.625" y="-200" type="line"/>
    </contour>
    <contour>
      <point x="505.0716018676758" y="0" type="line"/>
      <point x="566.875" y="61.80339813232422" type="line"/>
      <point x="566.875" y="400" type="line"/>
      <point x="466.875" y="400" type="line"/>
      <point x="466.875" y="0" type="line"/>
    </contour>
    <contour>
      <point x="116.875" y="295.0" type="line"/>
      <point x="16.875" y="295.0" type="line"/>
      <point x="16.875" y="256.8034" type="line"/>
      <point x="78.67840000000001" y="195.0" type="line"/>
      <point x="116.875" y="195.0" type="line"/>
    </contour>
    <contour>
      <point x="604.375" y="-200" type="line"/>
      <point x="704.375" y="-200" type="line"/>
      <point x="704.375" y="200" type="line"/>
      <point x="604.375" y="200" type="line"/>
    </contour>
  </outline>
</glyph>
<glyph name="invquestion" format="2">
  <advance width="308.75"/>
  <unicode hex="00BF"/>
  <outline>
    <contour>
      <point x="173.125" y="500.0" type="line"/>
      <point x="273.125" y="500.0" type="line"/>
      <point x="273.125" y="600.0" type="line"/>
      <point x="173.125" y="600.0" type="line"/>
    </contour>
    <contour>
      <point x="173.125" y="393.75" type="line"/>
      <point x="173.125" y="105" type="line"/>
      <point x="211.32160186767578" y="105" type="line"/>
      <point x="273.125" y="166.80339813232422" type="line"/>
      <point x="273.125" y="393.75" type="line"/>
    </contour>
    <contour>
      <point x="97.42839813232422" y="-205" type="line"/>
      <point x="135.625" y="-205" type="line"/>
      <point x="135.625" y="195" type="line"/>
      <point x="97.42839813232422" y="195" type="line"/>
      <point x="35.625" y="133.19660186767578" type="line"/>
      <point x="35.625" y="-143.19660186767578" type="line"/>
    </contour>
    <contour>
      <point x="273.125" y="-205.0" type="line"/>
      <point x="273.125" y="-105.0" type="line"/>
      <point x="234.9284" y="-105.0" type="line"/>
      <point x="173.125" y="-166.8034" type="line"/>
      <point x="173.125" y="-205.0" type="line"/>
    </contour>
  </outline>
</glyph>
<glyph name="A_with_grave" format="2">
  <advance width="308.75"/>
  <unicode hex="00C0"/>
  <outline>
    <contour>
      <point x="160.625" y="947.2222222222222" type="line"/>
      <point x="60.625" y="947.2222222222222" type="line"/>
      <point x="60.625" y="909.0256222222222" type="line"/>
      <point x="122.4284" y="847.2222222222222" type="line"/>
      <point x="160.625" y="847.2222222222222" type="line"/>
    </contour>
    <contour>
      <point x="35.625" y="0" type="line"/>
      <point x="135.625" y="0" type="line"/>
      <point x="135.625" y="805" type="line"/>
      <point x="97.42839813232422" y="805" type="line"/>
      <point x="35.625" y="743.1966018676758" type="line"/>
    </contour>
    <contour>
      <point x="173.125" y="0" type="line"/>
      <point x="273.125" y="0" type="line"/>
      <point x="273.125" y="743.1966018676758" type="line"/>
      <point x="211.32160186767578" y="805" type="line"/>
      <point x="173.125" y="805" type="line"/>
    </contour>
  </outline>
</glyph>
<glyph name="A_with_circumflex" format="2">
  <advance width="308.75"/>
  <unicode hex="00C2"/>
  <outline>
    <contour>
      <point x="51.25" y="947.2222222222222" type="line"/>
      <point x="51.25" y="847.2222222222222" type="line"/>
      <point x="89.44659999999999" y="847.2222222222222" type="line"/>
      <point x="151.25" y="909.0256222222222" type="line"/>
      <point x="151.25" y="947.2222222222222" type="line"/>
    </contour>
    <contour>
      <point x="257.5" y="947.2222222222222" type="line"/>
      <point x="157.5" y="947.2222222222222" type="line"/>
      <point x="157.5" y="909.0256222222222" type="line"/>
      <point x="219.3034" y="847.2222222222222" type="line"/>
      <point x="257.5" y="847.2222222222222" type="line"/>
    </contour>
    <contour>
      <point x="35.625" y="0" type="line"/>
      <point x="135.625" y="0" type="line"/>
      <point x="135.625" y="805" type="line"/>
      <point x="97.42839813232422" y="805" type="line"/>
      <point x="35.625" y="743.1966018676758" type="line"/>
    </contour>
    <contour>
      <point x="173.125" y="0" type="line"/>
      <point x="273.125" y="0" type="line"/>
      <point x="273.125" y="743.1966018676758" type="line"/>
      <point x="211.32160186767578" y="805" type="line"/>
      <point x="173.125" y="805" type="line"/>
    </contour>
  </outline>
</glyph>
<glyph name="A_with_ring" format="2">
  <advance width="308.75"/>
  <unicode hex="00C5"/>
  <outline>
    <contour>
      <point x="135.625" y="952.2222222222222" type="line"/>
      <point x="114.61687" y="952.2222222222222" type="line"/>
      <point x="80.625" y="918.2303522222221" type="line"/>
      <point x="80.625" y="876.2140922222221" type="line"/>
      <point x="114.61687" y="842.2222222222222" type="line"/>
      <point x="135.625" y="842.2222222222222" type="line"/>
    </contour>
    <contour>
      <point x="173.125" y="842.2222222222222" type="line"/>
      <point x="194.13313" y="842.2222222222222" type="line"/>
      <point x="228.125" y="876.2140922222221" type="line"/>
      <point x="228.125" y="918.2303522222221" type="line"/>
      <point x="194.13313" y="952.2222222222222" type="line"/>
      <point x="173.125" y="952.2222222222222" type="line"/>
    </contour>
    <contour>
      <point x="35.625" y="0" type="line"/>
      <point x="135.625" y="0" type="line"/>
      <point x="135.625" y="805" type="line"/>
      <point x="97.42839813232422" y="805" type="line"/>
      <point x="35.625" y="743.1966018676758" type="line"/>
    </contour>
    <contour>
      <point x="173.125" y="0" type="line"/>
      <point x="273.125" y="0" type="line"/>
      <point x="273.125" y="743.1966018676758" type="line"/>
      <point x="211.32160186767578" y="805" type="line"/>
      <point x="173.125" y="805" type="line"/>
    </contour>
  </outline>
</glyph>
<glyph name="AE" format="2">
  <advance width="583.75"/>
  <unicode hex="00C6"/>
  <outline>
    <contour>
      <point x="35.625" y="0" type="line"/>
      <point x="135.625" y="0" type="line"/>
      <point x="135.625" y="805" type="line"/>
      <point x="97.42839813232422" y="805" type="line"/>
      <point x="35.625" y="743.1966018676758" type="line"/>
    </contour>
    <contour>
      <point x="173.125" y="0" type="line"/>
      <point x="273.125" y="0" type="line"/>
      <point x="273.125" y="743.1966018676758" type="line"/>
      <point x="211.32160186767578" y="805" type="line"/>
      <point x="173.125" y="805" type="line"/>
    </contour>
    <contour>
      <point x="310.625" y="0" type="line"/>
      <point x="410.625" y="0" type="line"/>
      <point x="410.625" y="800" type="line"/>
      <point x="310.625" y="800" type="line"/>
    </contour>
    <contour>
      <point x="548.125" y="800.0" type="line"/>
      <point x="448.125" y="800.0" type="line"/>
      <point x="448.125" y="761.8034" type="line"/>
      <point x="509.9284" y="700.0" type="line"/>
      <point x="548.125" y="700.0" type="line"/>
    </contour>
    <contour>
      <point x="548.125" y="500.0" type="line"/>
      <point x="448.125" y="500.0" type="line"/>
      <point x="448.125" y="461.8034" type="line"/>
      <point x="509.9284" y="400.0" type="line"/>
      <point x="548.125" y="400.0" type="line"/>
    </contour>
    <contour>
      <point x="548.125" y="0.0" type="line"/>
      <point x="548.125" y="100.0" type="line"/>
      <point x="509.9284" y="100.0" type="line"/>
      <point x="448.125" y="38.1966" type="line"/>
      <point x="448.125" y="0.0" type="line"/>
    </contour>
  </outline>
</glyph>
<glyph name="E_with_circumflex" format="2">
  <advance width="308.75"/>
  <unicode hex="00CA"/>
  <outline>
    <contour>
      <point x="51.25" y="947.2222222222222" type="line"/>
      <point x="51.25" y="847.2222222222222" type="line"/>
      <point x="89.44659999999999" y="847.2222222222222" type="line"/>
      <point x="151.25" y="909.0256222222222" type="line"/>
      <point x="151.25" y="947.2222222222222" type="line"/>
    </contour>
    <contour>
      <point x="257.5" y="947.2222222222222" type="line"/>
      <point x="157.5" y="947.2222222222222" type="line"/>
      <point x="157.5" y="909.0256222222222" type="line"/>
      <point x="219.3034" y="847.2222222222222" type="line"/>
      <point x="257.5" y="847.2222222222222" type="line"/>
    </contour>
    <contour>
      <point x="35.625" y="0" type="line"/>
      <point x="135.625" y="0" type="line"/>
      <point x="135.625" y="800" type="line"/>
      <point x="35.625" y="800" type="line"/>
    </contour>
    <contour>
      <point x="273.125" y="800.0" type="line"/>
      <point x="173.125" y="800.0" type="line"/>
      <point x="173.125" y="761.8034" type="line"/>
      <point x="234.9284" y="700.0" type="line"/>
      <point x="273.125" y="700.0" type="line"/>
    </contour>
    <contour>
      <point x="273.125" y="450.0" type="line"/>
      <point x="173.125" y="450.0" type="line"/>
      <point x="173.125" y="411.8034" type="line"/>
      <point x="234.9284" y="350.0" type="line"/>
      <point x="273.125" y="350.0" type="line"/>
    </contour>
    <contour>
      <point x="273.125" y="0.0" type="line"/>
      <point x="273.125" y="100.0" type="line"/>
      <point x="234.9284" y="100.0" type="line"/>
      <point x="173.125" y="38.1966" type="line"/>
      <point x="173.125" y="0.0" type="line"/>
    </contour>
  </outline>
</glyph>
<glyph name="E_with_diaeresis" format="2">
  <advance width="308.75"/>
  <unicode hex="00CB"/>
  <outline>
    <contour>
      <point x="35.625" y="947.2222222222222" type="line"/>
      <point x="135.625" y="947.2222222222222" type="line"/>
      <point x="135.625" y="1047.2222222222222" type="line"/>
      <point x="35.625" y="1047.2222222222222" type="line"/>
    </contour>
    <contour>
      <point x="173.125" y="947.2222222222222" type="line"/>
      <point x="273.125" y="947.2222222222222" type="line"/>
      <point x="273.125" y="1047.2222222222222" type="line"/>
      <point x="173.125" y="1047.2222222222222" type="line"/>
    </contour>
    <contour>
      <point x="35.625" y="0" type="line"/>
      <point x="135.625" y="0" type="line"/>
      <point x="135.625" y="800" type="line"/>
      <point x="35.625" y="800" type="line"/>
    </contour>
    <contour>
      <point x="273.125" y="800.0" type="line"/>
      <point x="173.125" y="800.0" type="line"/>
      <point x="173.125" y="761.8034" type="line"/>
      <point x="234.9284" y="700.0" type="line"/>
      <point x="273.125" y="700.0" type="line"/>
    </contour>
    <contour>
      <point x="273.125" y="450.0" type="line"/>
      <point x="173.125" y="450.0" type="line"/>
      <point x="173.125" y="411.8034" type="line"/>
      <point x="234.9284" y="350.0" type="line"/>
      <point x="273.125" y="350.0" type="line"/>
    </contour>
    <contour>
      <point x="273.125" y="0.0" type="line"/>
      <point x="273.125" y="100.0" type="line"/>
      <point x="234.9284" y="100.0" type="line"/>
      <point x="173.125" y="38.1966" type="line"/>
      <point x="173.125" y="0.0" type="line"/>
    </contour>
  </outline>
</glyph>
<glyph name="I_with_grave" format="2">
  <advance width="171.25"/>
  <unicode hex="00CC"/>
  <outline>
    <contour>
      <point x="91.875" y="947.2222222222222" type="line"/>
      <point x="-8.125" y="947.2222222222222" type="line"/>
      <point x="-8.125" y="909.0256222222222" type="line"/>
      <point x="53.678399999999996" y="847.2222222222222" type="line"/>
      <point x="91.875" y="847.2222222222222" type="line"/>
    </contour>
    <contour>
      <point x="35.625" y="0" type="line"/>
      <point x="135.625" y="0" type="line"/>
      <point x="135.625" y="800" type="line"/>
      <point x="35.625" y="800" type="line"/>
    </contour>
  </outline>
</glyph>
<glyph name="I_with_acute" format="2">
  <advance width="171.25"/>
  <unicode hex="00CD"/>
  <outline>
    <contour>
      <point x="79.375" y="947.2222222222222" type="line"/>
      <point x="79.375" y="847.2222222222222" type="line"/>
      <point x="117.5716" y="847.2222222222222" type="line"/>
      <point x="179.375" y="909.0256222222222" type="line"/>
      <point x="179.375" y="947.2222222222222" type="line"/>
    </contour>
    <contour>
      <point x="35.625" y="0" type="line"/>
      <point x="135.625" y="0" type="line"/>
      <point x="135.625" y="800" type="line"/>
      <point x="35.625" y="800" type="line"/>
    </contour>
  </outline>
</glyph>
<glyph name="I_with_circumflex" format="2">
  <advance width="171.25"/>
  <unicode hex="00CE"/>
  <outline>
    <contour>
      <point x="-17.5" y="947.2222222222222" type="line"/>
      <point x="-17.5" y="847.2222222222222" type="line"/>
      <point x="20.696599999999997" y="847.2222222222222" type="line"/>
      <point x="82.5" y="909.0256222222222" type="line"/>
      <point x="82.5" y="947.2222222222222" type="line"/>
    </contour>
    <contour>
      <point x="188.75" y="947.2222222222222" type="line"/>
      <point x="88.75" y="947.2222222222222" type="line"/>
      <point x="88.75" y="909.0256222222222" type="line"/>
      <point x="150.5534" y="847.2222222222222" type="line"/>
      <point x="188.75" y="847.2222222222222" type="line"/>
    </contour>
    <contour>
      <point x="35.625" y="0" type="line"/>
      <point x="135.625" y="0" type="line"/>
      <point x="135.625" y="800" type="line"/>
      <point x="35.625" y="800" type="line"/>
    </contour>
  </outline>
</glyph>
<glyph name="I_with_diaeresis" format="2">
  <advance width="171.25"/>
  <unicode hex="00CF"/>
  <outline>
    <contour>
      <point x="-33.125" y="947.2222222222222" type="line"/>
      <point x="66.875" y="947.2222222222222" type="line"/>
      <point x="66.875" y="1047.2222222222222" type="line"/>
      <point x="-33.125" y="1047.2222222222222" type="line"/>
    </contour>
    <contour>
      <point x="104.375" y="947.2222222222222" type="line"/>
      <point x="204.375" y="947.2222222222222" type="line"/>
      <point x="204.375" y="1047.2222222222222" type="line"/>
      <point x="104.375" y="1047.2222222222222" type="line"/>
    </contour>
    <contour>
      <point x="35.625" y="0" type="line"/>
      <point x="135.625" y="0" type="line"/>
      <point x="135.625" y="800" type="line"/>
      <point x="35.625" y="800" type="line"/>
    </contour>
  </outline>
</glyph>
<glyph name="ETH" format="2">
  <advance width="446.25"/>
  <unicode hex="00D0"/>
  <outline>
    <contour>
      <point x="173.125" y="0" type="line"/>
      <point x="273.125" y="0" type="line"/>
      <point x="273.125" y="800" type="line"/>
      <point x="173.125" y="800" type="line"/>
      <point x="173.125" y="450" type="line"/>
      <point x="159.92839813232422" y="450" type="line"/>
      <point x="98.125" y="388.1966018676758" type="line"/>
      <point x="98.125" y="350" type="line"/>
      <point x="173.125" y="350" type="line"/>
    </contour>
    <contour>
      <point x="348.8216018676758" y="0" type="line"/>
      <point x="410.625" y="61.80339813232422" type="line"/>
      <point x="410.625" y="738.1966018676758" type="line"/>
      <point x="348.8216018676758" y="800" type="line"/>
      <point x="310.625" y="800" type="line"/>
      <point x="310.625" y="0" type="line"/>
    </contour>
  </outline>
</glyph>
<glyph name="N_with_smalltilde" format="2">
  <advance width="308.75"/>
  <unicode hex="00D1"/>
  <outline>
    <contour>
      <point x="54.375" y="885.4188232421875" type="line"/>
      <point x="54.375" y="847.2222213745117" type="line"/>
      <point x="192.57160186767578" y="847.2222213745117" type="line"/>
      <point x="254.375" y="909.0256195068359" type="line"/>
      <point x="254.375" y="947.2222213745117" type="line"/>
      <point x="116.17839813232422" y="947.2222213745117" type="line"/>
    </contour>
    <contour>
      <point x="35.625" y="0" type="line"/>
      <point x="135.625" y="0" type="line"/>
      <point x="135.625" y="800" type="line"/>
      <point x="35.625" y="800" type="line"/>
    </contour>
    <contour>
      <point x="173.125" y="0" type="line"/>
      <point x="273.125" y="0" type="line"/>
      <point x="273.125" y="738.1966018676758" type="line"/>
      <point x="211.32160186767578" y="800" type="line"/>
      <point x="173.125" y="800" type="line"/>
    </contour>
  </outline>
</glyph>
<glyph name="O_with_grave" format="2">
  <advance width="308.75"/>
  <unicode hex="00D2"/>
  <outline>
    <contour>
      <point x="160.625" y="947.2222222222222" type="line"/>
      <point x="60.625" y="947.2222222222222" type="line"/>
      <point x="60.625" y="909.0256222222222" type="line"/>
      <point x="122.4284" y="847.2222222222222" type="line"/>
      <point x="160.625" y="847.2222222222222" type="line"/>
    </contour>
    <contour>
      <point x="97.42839813232422" y="-5" type="line"/>
      <point x="135.625" y="-5" type="line"/>
      <point x="135.625" y="805" type="line"/>
      <point x="97.42839813232422" y="805" type="line"/>
      <point x="35.625" y="743.1966018676758" type="line"/>
      <point x="35.625" y="56.80339813232422" type="line"/>
    </contour>
    <contour>
      <point x="211.32160186767578" y="-5" type="line"/>
      <point x="273.125" y="56.80339813232422" type="line"/>
      <point x="273.125" y="743.1966018676758" type="line"/>
      <point x="211.32160186767578" y="805" type="line"/>
      <point x="173.125" y="805" type="line"/>
      <point x="173.125" y="-5" type="line"/>
    </contour>
  </outline>
</glyph>
<glyph name="multiply" format="2">
  <advance width="308.75"/>
  <unicode hex="00D7"/>
  <outline>
    <contour>
      <point x="35.625" y="200" type="line"/>
      <point x="135.625" y="200" type="line"/>
      <point x="135.625" y="600" type="line"/>
      <point x="35.625" y="600" type="line"/>
      <point x="35.625" y="461.8033981323242" type="line"/>
      <point x="97.42839813232422" y="400" type="line"/>
      <point x="35.625" y="338.1966018676758" type="line"/>
    </contour>
    <contour>
      <point x="173.125" y="200" type="line"/>
      <point x="273.125" y="200" type="line"/>
      <point x="273.125" y="338.1966018676758" type="line"/>
      <point x="211.32160186767578" y="400" type="line"/>
      <point x="273.125" y="461.8033981323242" type="line"/>
      <point x="273.125" y="600" type="line"/>
      <point x="173.125" y="600" type="line"/>
    </contour>
  </outline>
</glyph>
<glyph name="O_with_stroke" format="2">
  <advance width="308.75"/>
  <unicode hex="00D8"/>
  <outline>
    <contour>
      <point x="198.125" y="850" type="line"/>
      <point x="198.125" y="805" type="line"/>
      <point x="173.125" y="805" type="line"/>
      <point x="173.125" y="-5" type="line"/>
      <point x="211.32160186767578" y="-5" type="line"/>
      <point x="273.125" y="56.80339813232422" type="line"/>
      <point x="273.125" y="743.1966018676758" type="line"/>
      <point x="251.32160186767578" y="765" type="line"/>
      <point x="298.125" y="811.8033981323242" type="line"/>
      <point x="298.125" y="850" type="line"/>
    </contour>
    <contour>
      <point x="110.625" y="-50" type="line"/>
      <point x="110.625" y="-5" type="line"/>
      <point x="135.625" y="-5" type="line"/>
      <point x="135.625" y="805" type="line"/>
      <point x="97.42839813232422" y="805" type="line"/>
      <point x="35.625" y="743.1966018676758" type="line"/>
      <point x="35.625" y="56.80339813232422" type="line"/>
      <point x="57.42839813232422" y="35" type="line"/>
      <point x="10.625" y="-11.803398132324219" type="line"/>
      <point x="10.625" y="-50" type="line"/>
    </contour>
  </outline>
</glyph>
<glyph name="Y_with_acute" format="2">
  <advance width="308.75"/>
  <unicode hex="00DD"/>
  <outline>
    <contour>
      <point x="148.125" y="947.2222222222222" type="line"/>
      <point x="148.125" y="847.2222222222222" type="line"/>
      <point x="186.3216" y="847.2222222222222" type="line"/>
      <point x="248.125" y="909.0256222222222" type="line"/>
      <point x="248.125" y="947.2222222222222" type="line"/>
    </contour>
    <contour>
      <point x="97.42839813232422" y="200.8333282470703" type="line"/>
      <point x="135.625" y="200.8333282470703" type="line"/>
      <point x="135.625" y="743.1966018676758" type="line"/>
      <point x="73.82160186767578" y="805" type="line"/>
      <point x="35.625" y="805" type="line"/>
      <point x="35.625" y="262.63672637939453" type="line"/>
    </contour>
    <contour>
      <point x="211.32160186767578" y="-5" type="line"/>
      <point x="273.125" y="56.80339813232422" type="line"/>
      <point x="273.125" y="800" type="line"/>
      <point x="173.125" y="800" type="line"/>
      <point x="173.125" y="-5" type="line"/>
    </contour>
    <contour>
      <point x="135.625" y="95.0" type="line"/>
      <point x="35.625" y="95.0" type="line"/>
      <point x="35.625" y="56.8034" type="line"/>
      <point x="97.42840000000001" y="-5.0" type="line"/>
      <point x="135.625" y="-5.0" type="line"/>
    </contour>
  </outline>
</glyph>
<glyph name="THORN" format="2">
  <advance width="308.75"/>
  <unicode hex="00DE"/>
  <outline>
    <contour>
      <point x="35.625" y="0" type="line"/>
      <point x="135.625" y="0" type="line"/>
      <point x="135.625" y="800" type="line"/>
      <point x="35.625" y="800" type="line"/>
    </contour>
    <contour>
      <point x="211.32160186767578" y="100" type="line"/>
      <point x="273.125" y="161.80339813232422" type="line"/>
      <point x="273.125" y="638.1966018676758" type="line"/>
      <point x="211.32160186767578" y="700" type="line"/>
      <point x="173.125" y="700" type="line"/>
      <point x="173.125" y="100" type="line"/>
    </contour>
  </outline>
</glyph>
<glyph name="a_with_circumflex" format="2">
  <advance width="308.75"/>
  <unicode hex="00E2"/>
  <outline>
    <contour>
      <point x="51.25" y="747.2222222222222" type="line"/>
      <point x="51.25" y="647.2222222222222" type="line"/>
      <point x="89.44659999999999" y="647.2222222222222" type="line"/>
      <point x="151.25" y="709.0256222222222" type="line"/>
      <point x="151.25" y="747.2222222222222" type="line"/>
    </contour>
    <contour>
      <point x="257.5" y="747.2222222222222" type="line"/>
      <point x="157.5" y="747.2222222222222" type="line"/>
      <point x="157.5" y="709.0256222222222" type="line"/>
      <point x="219.3034" y="647.2222222222222" type="line"/>
      <point x="257.5" y="647.2222222222222" type="line"/>
    </contour>
    <contour>
      <point x="35.625" y="600.0" type="line"/>
      <point x="35.625" y="500.0" type="line"/>
      <point x="73.82159999999999" y="500.0" type="line"/>
      <point x="135.625" y="561.8034" type="line"/>
      <point x="135.625" y="600.0" type="line"/>
    </contour>
    <contour>
      <point x="234.92839813232422" y="-5" type="line"/>
      <point x="273.125" y="-5" type="line"/>
      <point x="273.125" y="538.1966018676758" type="line"/>
      <point x="211.32160186767578" y="600" type="line"/>
      <point x="173.125" y="600" type="line"/>
      <point x="173.125" y="56.80339813232422" type="line"/>
    </contour>
    <contour>
      <point x="97.42839813232422" y="0" type="line"/>
      <point x="135.625" y="0" type="line"/>
      <point x="135.625" y="400" type="line"/>
      <point x="97.42839813232422" y="400" type="line"/>
      <point x="35.625" y="338.1966018676758" type="line"/>
      <point x="35.625" y="61.80339813232422" type="line"/>
    </contour>
  </outline>
</glyph>
<glyph name="a_with_ring" format="2">
  <advance width="308.75"/>
  <unicode hex="00E5"/>
  <outline>
    <contour>
      <point x="135.625" y="752.2222222222222" type="line"/>
      <point x="114.61687" y="752.2222222222222" type="line"/>
      <point x="80.625" y="718.2303522222221" type="line"/>
      <point x="80.625" y="676.2140922222221" type="line"/>
      <point x="114.61687" y="642.2222222222222" type="line"/>
      <point x="135.625" y="642.2222222222222" type="line"/>
    </contour>
    <contour>
      <point x="173.125" y="642.2222222222222" type="line"/>
      <point x="194.13313" y="642.2222222222222" type="line"/>
      <point x="228.125" y="676.2140922222221" type="line"/>
      <point x="228.125" y="718.2303522222221" type="line"/>
      <point x="194.13313" y="752.2222222222222" type="line"/>
      <point x="173.125" y="752.2222222222222" type="line"/>
    </contour>
    <contour>
      <point x="35.625" y="600.0" type="line"/>
      <point x="35.625" y="500.0" type="line"/>
      <point x="73.82159999999999" y="500.0" type="line"/>
      <point x="135.625" y="561.8034" type="line"/>
      <point x="135.625" y="600.0" type="line"/>
    </contour>
    <contour>
      <point x="234.92839813232422" y="-5" type="line"/>
      <point x="273.125" y="-5" type="line"/>
      <point x="273.125" y="538.1966018676758" type="line"/>
      <point x="211.32160186767578" y="600" type="line"/>
      <point x="173.125" y="600" type="line"/>
      <point x="173.125" y="56.80339813232422" type="line"/>
    </contour>
    <contour>
      <point x="97.42839813232422" y="-5" type="line"/>
      <point x="135.625" y="-5" type="line"/>
      <point x="135.625" y="400" type="line"/>
      <point x="97.42839813232422" y="400" type="line"/>
      <point x="35.625" y="338.1966018676758" type="line"/>
      <point x="35.625" y="56.80339813232422" type="line"/>
    </contour>
  </outline>
</glyph>
<glyph name="ae" format="2">
  <advance width="583.75"/>
  <unicode hex="00E6"/>
  <outline>
    <contour>
      <point x="211.32160186767578" y="-5" type="line"/>
      <point x="273.125" y="56.80339813232422" type="line"/>
      <point x="273.125" y="543.1966018676758" type="line"/>
      <point x="211.32160186767578" y="605" type="line"/>
      <point x="173.125" y="605" type="line"/>
      <point x="173.125" y="-5" type="line"/>
    </contour>
    <contour>
      <point x="372.4283981323242" y="-5" type="line"/>
      <point x="410.625" y="-5" type="line"/>
      <point x="410.625" y="605" type="line"/>
      <point x="372.4283981323242" y="605" type="line"/>
      <point x="310.625" y="543.1966018676758" type="line"/>
      <point x="310.625" y="56.80339813232422" type="line"/>
    </contour>
    <contour>
      <point x="448.125" y="195" type="line"/>
      <point x="548.125" y="195" type="line"/>
      <point x="548.125" y="543.1966018676758" type="line"/>
      <point x="486.3216018676758" y="605" type="line"/>
      <point x="448.125" y="605" type="line"/>
    </contour>
    <contour>
      <point x="37.1875" y="600.0" type="line"/>
      <point x="37.1875" y="500.0" type="line"/>
      <point x="75.38409999999999" y="500.0" type="line"/>
      <point x="137.1875" y="561.8034" type="line"/>
      <point x="137.1875" y="600.0" type="line"/>
    </contour>
    <contour>
      <point x="97.42839813232422" y="-5" type="line"/>
      <point x="135.625" y="-5" type="line"/>
      <point x="135.625" y="395" type="line"/>
      <point x="97.42839813232422" y="395" type="line"/>
      <point x="35.625" y="333.1966018676758" type="line"/>
      <point x="35.625" y="56.80339813232422" type="line"/>
    </contour>
  </outline>
</glyph>
<glyph name="e_with_grave" format="2">
  <advance width="308.75"/>
  <unicode hex="00E8"/>
  <outline>
    <contour>
      <point x="160.625" y="747.2222222222222" type="line"/>
      <point x="60.625" y="747.2222222222222" type="line"/>
      <point x="60.625" y="709.0256222222222" type="line"/>
      <point x="122.4284" y="647.2222222222222" type="line"/>
      <point x="160.625" y="647.2222222222222" type="line"/>
    </contour>
    <contour>
      <point x="97.42839813232422" y="-5" type="line"/>
      <point x="135.625" y="-5" type="line"/>
      <point x="135.625" y="605" type="line"/>
      <point x="97.42839813232422" y="605" type="line"/>
      <point x="35.625" y="543.1966018676758" type="line"/>
      <point x="35.625" y="56.80339813232422" type="line"/>
    </contour>
    <contour>
      <point x="173.125" y="195" type="line"/>
      <point x="273.125" y="195" type="line"/>
      <point x="273.125" y="543.1966018676758" type="line"/>
      <point x="211.32160186767578" y="605" type="line"/>
      <point x="173.125" y="605" type="line"/>
    </contour>
  </outline>
</glyph>
<glyph name="i_with_grave" format="2">
  <advance width="171.25"/>
  <unicode hex="00EC"/>
  <outline>
    <contour>
      <point x="91.875" y="747.2222222222222" type="line"/>
      <point x="-8.125" y="747.2222222222222" type="line"/>
      <point x="-8.125" y="709.0256222222222" type="line"/>
      <point x="53.678399999999996" y="647.2222222222222" type="line"/>
      <point x="91.875" y="647.2222222222222" type="line"/>
    </contour>
    <contour>
      <point x="35.625" y="0" type="line"/>
      <point x="135.625" y="0" type="line"/>
      <point x="135.625" y="600" type="line"/>
      <point x="35.625" y="600" type="line"/>
    </contour>
  </outline>
</glyph>
<glyph name="i_with_acute" format="2">
  <advance width="171.25"/>
  <unicode hex="00ED"/>
  <outline>
    <contour>
      <point x="79.375" y="747.2222222222222" type="line"/>
      <point x="79.375" y="647.2222222222222" type="line"/>
      <point x="117.5716" y="647.2222222222222" type="line"/>
      <point x="179.375" y="709.0256222222222" type="line"/>
      <point x="179.375" y="747.2222222222222" type="line"/>
    </contour>
    <contour>
      <point x="35.625" y="0" type="line"/>
      <point x="135.625" y="0" type="line"/>
      <point x="135.625" y="600" type="line"/>
      <point x="35.625" y="600" type="line"/>
    </contour>
  </outline>
</glyph>
<glyph name="n_with_smalltilde" format="2">
  <advance width="308.75"/>
  <unicode hex="00F1"/>
  <outline>
    <contour>
      <point x="54.375" y="685.4188232421875" type="line"/>
      <point x="54.375" y="647.2222213745117" type="line"/>
      <point x="192.57160186767578" y="647.2222213745117" type="line"/>
      <point x="254.375" y="709.0256195068359" type="line"/>
      <point x="254.375" y="747.2222213745117" type="line"/>
      <point x="116.17839813232422" y="747.2222213745117" type="line"/>
    </contour>
    <contour>
      <point x="35.625" y="0" type="line"/>
      <point x="135.625" y="0" type="line"/>
      <point x="135.625" y="600" type="line"/>
      <point x="35.625" y="600" type="line"/>
    </contour>
    <contour>
      <point x="173.125" y="0" type="line"/>
      <point x="273.125" y="0" type="line"/>
      <point x="273.125" y="538.1966018676758" type="line"/>
      <point x="211.32160186767578" y="600" type="line"/>
      <point x="173.125" y="600" type="line"/>
    </contour>
  </outline>
</glyph>
<glyph name="divide" format="2">
  <advance width="446.25"/>
  <unicode hex="00F7"/>
  <outline>
    <contour>
      <point x="173.125" y="550.0" type="line"/>
      <point x="273.125" y="550.0" type="line"/>
      <point x="273.125" y="650.0" type="line"/>
      <point x="173.125" y="650.0" type="line"/>
    </contour>
    <contour>
      <point x="73.125" y="350" type="line"/>
      <point x="373.125" y="350" type="line"/>
      <point x="373.125" y="450" type="line"/>
      <point x="73.125" y="450" type="line"/>
    </contour>
    <contour>
      <point x="173.125" y="150.0" type="line"/>
      <point x="273.125" y="150.0" type="line"/>
      <point x="273.125" y="250.0" type="line"/>
      <point x="173.125" y="250.0" type="line"/>
    </contour>
  </outline>
</glyph>
<glyph name="o_with_stroke" format="2">
  <advance width="308.75"/>
  <unicode hex="00F8"/>
  <outline>
    <contour>
      <point x="198.125" y="650" type="line"/>
      <point x="198.125" y="605" type="line"/>
      <point x="173.125" y="605" type="line"/>
      <point x="173.125" y="-5" type="line"/>
      <point x="211.32160186767578" y="-5" type="line"/>
      <point x="273.125" y="56.80339813232422" type="line"/>
      <point x="273.125" y="543.1966018676758" type="line"/>
      <point x="251.32160186767578" y="565" type="line"/>
      <point x="298.125" y="611.8033981323242" type="line"/>
      <point x="298.125" y="650" type="line"/>
    </contour>
    <contour>
      <point x="110.625" y="-50" type="line"/>
      <point x="110.625" y="-5" type="line"/>
      <point x="135.625" y="-5" type="line"/>
      <point x="135.625" y="605" type="line"/>
      <point x="97.42839813232422" y="605" type="line"/>
      <point x="35.625" y="543.1966018676758" type="line"/>
      <point x="35.625" y="56.80339813232422" type="line"/>
      <point x="57.42839813232422" y="35" type="line"/>
      <point x="10.625" y="-11.803398132324219" type="line"/>
      <point x="10.625" y="-50" type="line"/>
    </contour>
  </outline>
</glyph>
<glyph name="u_with_circumflex" format="2">
  <advance width="308.75"/>
  <unicode hex="00FB"/>
  <outline>
    <contour>
      <point x="51.25" y="747.2222222222222" type="line"/>
      <point x="51.25" y="647.2222222222222" type="line"/>
      <point x="89.44659999999999" y="647.2222222222222" type="line"/>
      <point x="151.25" y="709.0256222222222" type="line"/>
      <point x="151.25" y="747.2222222222222" type="line"/>
    </contour>
    <contour>
      <point x="257.5" y="747.2222222222222" type="line"/>
      <point x="157.5" y="747.2222222222222" type="line"/>
      <point x="157.5" y="709.0256222222222" type="line"/>
      <point x="219.3034" y="647.2222222222222" type="line"/>
      <point x="257.5" y="647.2222222222222" type="line"/>
    </contour>
    <contour>
      <point x="97.42839813232422" y="-5" type="line"/>
      <point x="135.625" y="-5" type="line"/>
      <point x="135.625" y="600" type="line"/>
      <point x="35.625" y="600" type="line"/>
      <point x="35.625" y="56.80339813232422" type="line"/>
    </contour>
    <contour>
      <point x="211.32160186767578" y="-5" type="line"/>
      <point x="273.125" y="56.80339813232422" type="line"/>
      <point x="273.125" y="600" type="line"/>
      <point x="173.125" y="600" type="line"/>
      <point x="173.125" y="-5" type="line"/>
    </contour>
  </outline>
</glyph>
<glyph name="y_with_diaeresis" format="2">
  <advance width="308.75"/>
  <unicode hex="00FF"/>
  <outline>
    <contour>
      <point x="35.625" y="747.2222222222222" type="line"/>
      <point x="135.625" y="747.2222222222222" type="line"/>
      <point x="135.625" y="847.2222222222222" type="line"/>
      <point x="35.625" y="847.2222222222222" type="line"/>
    </contour>
    <contour>
      <point x="173.125" y="747.2222222222222" type="line"/>
      <point x="273.125" y="747.2222222222222" type="line"/>
      <point x="273.125" y="847.2222222222222" type="line"/>
      <point x="173.125" y="847.2222222222222" type="line"/>
    </contour>
    <contour>
      <point x="97.42839813232422" y="5" type="line"/>
      <point x="135.625" y="5" type="line"/>
      <point x="135.625" y="538.1966018676758" type="line"/>
      <point x="73.82160186767578" y="600" type="line"/>
      <point x="35.625" y="600" type="line"/>
      <point x="35.625" y="66.80339813232422" type="line"/>
    </contour>
    <contour>
      <point x="211.32160186767578" y="-210" type="line"/>
      <point x="273.125" y="-148.19660186767578" type="line"/>
      <point x="273.125" y="600" type="line"/>
      <point x="173.125" y="600" type="line"/>
      <point x="173.125" y="-210" type="line"/>
    </contour>
    <contour>
      <point x="135.625" y="-110.0" type="line"/>
      <point x="35.625" y="-110.0" type="line"/>
      <point x="35.625" y="-148.1966" type="line"/>
      <point x="97.42840000000001" y="-210.0" type="line"/>
      <point x="135.625" y="-210.0" type="line"/>
    </contour>
  </outline>
</glyph>
<glyph name="a_with_ogonek" format="2">
  <advance width="308.75"/>
  <unicode hex="0105"/>
  <outline>
    <contour>
      <point x="35.625" y="600.0" type="line"/>
      <point x="35.625" y="500.0" type="line"/>
      <point x="73.82159999999999" y="500.0" type="line"/>
      <point x="135.625" y="561.8034" type="line"/>
      <point x="135.625" y="600.0" type="line"/>
    </contour>
    <contour>
      <point x="234.92839813232422" y="-5" type="line"/>
      <point x="273.125" y="-5" type="line"/>
      <point x="273.125" y="538.1966018676758" type="line"/>
      <point x="211.32160186767578" y="600" type="line"/>
      <point x="173.125" y="600" type="line"/>
      <point x="173.125" y="56.80339813232422" type="line"/>
    </contour>
    <contour>
      <point x="97.42839813232422" y="0" type="line"/>
      <point x="135.625" y="0" type="line"/>
      <point x="135.625" y="400" type="line"/>
      <point x="97.42839813232422" y="400" type="line"/>
      <point x="35.625" y="338.1966018676758" type="line"/>
      <point x="35.625" y="61.80339813232422" type="line"/>
    </contour>
    <contour>
      <point x="273.125" y="-130.0" type="line"/>
      <point x="273.125" y="-30.0" type="line"/>
      <point x="234.9284" y="-30.0" type="line"/>
      <point x="173.125" y="-91.80340000000001" type="line"/>
      <point x="173.125" y="-130.0" type="line"/>
    </contour>
  </outline>
</glyph>
<glyph name="c_with_acute" format="2">
  <advance width="308.75"/>
  <unicode hex="0107"/>
  <outline>
    <contour>
      <point x="148.125" y="747.2222222222222" type="line"/>
      <point x="148.125" y="647.2222222222222" type="line"/>
      <point x="186.3216" y="647.2222222222222" type="line"/>
      <point x="248.125" y="709.0256222222222" type="line"/>
      <point x="248.125" y="747.2222222222222" type="line"/>
    </contour>
    <contour>
      <point x="97.42839813232422" y="0" type="line"/>
      <point x="135.625" y="0" type="line"/>
      <point x="135.625" y="600" type="line"/>
      <point x="97.42839813232422" y="600" type="line"/>
      <point x="35.625" y="538.1966018676758" type="line"/>
      <point x="35.625" y="61.80339813232422" type="line"/>
    </contour>
    <contour>
      <point x="273.125" y="600.0" type="line"/>
      <point x="173.125" y="600.0" type="line"/>
      <point x="173.125" y="561.8034" type="line"/>
      <point x="234.9284" y="500.0" type="line"/>
      <point x="273.125" y="500.0" type="line"/>
    </contour>
    <contour>
      <point x="271.5625" y="0.0" type="line"/>
      <point x="271.5625" y="100.0" type="line"/>
      <point x="233.3659" y="100.0" type="line"/>
      <point x="171.5625" y="38.1966" type="line"/>
      <point x="171.5625" y="0.0" type="line"/>
    </contour>
  </outline>
</glyph>
<glyph name="c_with_circumflex" format="2">
  <advance width="308.75"/>
  <unicode hex="0109"/>
  <outline>
    <contour>
      <point x="51.25" y="747.2222222222222" type="line"/>
      <point x="51.25" y="647.2222222222222" type="line"/>
      <point x="89.44659999999999" y="647.2222222222222" type="line"/>
      <point x="151.25" y="709.0256222222222" type="line"/>
      <point x="151.25" y="747.2222222222222" type="line"/>
    </contour>
    <contour>
      <point x="257.5" y="747.2222222222222" type="line"/>
      <point x="157.5" y="747.2222222222222" type="line"/>
      <point x="157.5" y="709.0256222222222" type="line"/>
      <point x="219.3034" y="647.2222222222222" type="line"/>
      <point x="257.5" y="647.2222222222222" type="line"/>
    </contour>
    <contour>
      <point x="97.42839813232422" y="0" type="line"/>
      <point x="135.625" y="0" type="line"/>
      <point x="135.625" y="600" type="line"/>
      <point x="97.42839813232422" y="600" type="line"/>
      <point x="35.625" y="538.1966018676758" type="line"/>
      <point x="35.625" y="61.80339813232422" type="line"/>
    </contour>
    <contour>
      <point x="273.125" y="600.0" type="line"/>
      <point x="173.125" y="600.0" type="line"/>
      <point x="173.125" y="561.8034" type="line"/>
      <point x="234.9284" y="500.0" type="line"/>
      <point x="273.125" y="500.0" type="line"/>
    </contour>
    <contour>
      <point x="271.5625" y="0.0" type="line"/>
      <point x="271.5625" y="100.0" type="line"/>
      <point x="233.3659" y="100.0" type="line"/>
      <point x="171.5625" y="38.1966" type="line"/>
      <point x="171.5625" y="0.0" type="line"/>
    </contour>
  </outline>
</glyph>
<glyph name="c_with_dotabove" format="2">
  <advance width="308.75"/>
  <unicode hex="010B"/>
  <outline>
    <contour>
      <point x="104.375" y="747.2222222222222" type="line"/>
      <point x="204.375" y="747.2222222222222" type="line"/>
      <point x="204.375" y="847.2222222222222" type="line"/>
      <point x="104.375" y="847.2222222222222" type="line"/>
    </contour>
    <contour>
      <point x="97.42839813232422" y="0" type="line"/>
      <point x="135.625" y="0" type="line"/>
      <point x="135.625" y="600" type="line"/>
      <point x="97.42839813232422" y="600" type="line"/>
      <point x="35.625" y="538.1966018676758" type="line"/>
      <point x="35.625" y="61.80339813232422" type="line"/>
    </contour>
    <contour>
      <point x="273.125" y="600.0" type="line"/>
      <point x="173.125" y="600.0" type="line"/>
      <point x="173.125" y="561.8034" type="line"/>
      <point x="234.9284" y="500.0" type="line"/>
      <point x="273.125" y="500.0" type="line"/>
    </contour>
    <contour>
      <point x="271.5625" y="0.0" type="line"/>
      <point x="271.5625" y="100.0" type="line"/>
      <point x="233.3659" y="100.0" type="line"/>
      <point x="171.5625" y="38.1966" type="line"/>
      <point x="171.5625" y="0.0" type="line"/>
    </contour>
  </outline>
</glyph>
<glyph name="C_with_caron" format="2">
  <advance width="308.75"/>
  <unicode hex="010C"/>
  <outline>
    <contour>
      <point x="51.25" y="847.2222222222222" type="line"/>
      <point x="151.25" y="847.2222222222222" type="line"/>
      <point x="151.25" y="885.4188222222222" type="line"/>
      <point x="89.44659999999999" y="947.2222222222222" type="line"/>
      <point x="51.25" y="947.2222222222222" type="line"/>
    </contour>
    <contour>
      <point x="257.5" y="847.2222222222222" type="line"/>
      <point x="257.5" y="947.2222222222222" type="line"/>
      <point x="219.3034" y="947.2222222222222" type="line"/>
      <point x="157.5" y="885.4188222222222" type="line"/>
      <point x="157.5" y="847.2222222222222" type="line"/>
    </contour>
    <contour>
      <point x="97.42839813232422" y="0" type="line"/>
      <point x="135.625" y="0" type="line"/>
      <point x="135.625" y="800" type="line"/>
      <point x="97.42839813232422" y="800" type="line"/>
      <point x="35.625" y="738.1966018676758" type="line"/>
      <point x="35.625" y="61.80339813232422" type="line"/>
    </contour>
    <contour>
      <point x="234.92839813232422" y="500" type="line"/>
      <point x="273.125" y="500" type="line"/>
      <point x="273.125" y="800" type="line"/>
      <point x="173.125" y="800" type="line"/>
      <point x="173.125" y="561.8033981323242" type="line"/>
    </contour>
    <contour>
      <point x="273.125" y="0.0" type="line"/>
      <point x="273.125" y="100.0" type="line"/>
      <point x="234.9284" y="100.0" type="line"/>
      <point x="173.125" y="38.1966" type="line"/>
      <point x="173.125" y="0.0" type="line"/>
    </contour>
  </outline>
</glyph>
<glyph name="e_with_dotabove" format="2">
  <advance width="308.75"/>
  <unicode hex="0117"/>
  <outline>
    <contour>
      <point x="104.375" y="747.2222222222222" type="line"/>
      <point x="204.375" y="747.2222222222222" type="line"/>
      <point x="204.375" y="847.2222222222222" type="line"/>
      <point x="104.375" y="847.2222222222222" type="line"/>
    </contour>
    <contour>
      <point x="97.42839813232422" y="-5" type="line"/>
      <point x="135.625" y="-5" type="line"/>
      <point x="135.625" y="605" type="line"/>
      <point x="97.42839813232422" y="605" type="line"/>
      <point x="35.625" y="543.1966018676758" type="line"/>
      <point x="35.625" y="56.80339813232422" type="line"/>
    </contour>
    <contour>
      <point x="173.125" y="195" type="line"/>
      <point x="273.125" y="195" type="line"/>
      <point x="273.125" y="543.1966018676758" type="line"/>
      <point x="211.32160186767578" y="605" type="line"/>
      <point x="173.125" y="605" type="line"/>
    </contour>
  </outline>
</glyph>
<glyph name="E_with_ogonek" format="2">
  <advance width="308.75"/>
  <unicode hex="0118"/>
  <outline>
    <contour>
      <point x="35.625" y="0" type="line"/>
      <point x="135.625" y="0" type="line"/>
      <point x="135.625" y="800" type="line"/>
      <point x="35.625" y="800" type="line"/>
    </contour>
    <contour>
      <point x="273.125" y="800.0" type="line"/>
      <point x="173.125" y="800.0" type="line"/>
      <point x="173.125" y="761.8034" type="line"/>
      <point x="234.9284" y="700.0" type="line"/>
      <point x="273.125" y="700.0" type="line"/>
    </contour>
    <contour>
      <point x="273.125" y="450.0" type="line"/>
      <point x="173.125" y="450.0" type="line"/>
      <point x="173.125" y="411.8034" type="line"/>
      <point x="234.9284" y="350.0" type="line"/>
      <point x="273.125" y="350.0" type="line"/>
    </contour>
    <contour>
      <point x="273.125" y="0.0" type="line"/>
      <point x="273.125" y="100.0" type="line"/>
      <point x="234.9284" y="100.0" type="line"/>
      <point x="173.125" y="38.1966" type="line"/>
      <point x="173.125" y="0.0" type="line"/>
    </contour>
    <contour>
      <point x="273.125" y="-125.0" type="line"/>
      <point x="273.125" y="-25.0" type="line"/>
      <point x="234.9284" y="-25.0" type="line"/>
      <point x="173.125" y="-86.80340000000001" type="line"/>
      <point x="173.125" y="-125.0" type="line"/>
    </contour>
  </outline>
</glyph>
<glyph name="g_with_breve" format="2">
  <advance width="308.75"/>
  <unicode hex="011F"/>
  <outline>
    <contour>
      <point x="54.375" y="709.0256195068359" type="line"/>
      <point x="116.17839813232422" y="647.2222213745117" type="line"/>
      <point x="192.57160186767578" y="647.2222213745117" type="line"/>
      <point x="254.375" y="709.0256195068359" type="line"/>
      <point x="254.375" y="747.2222213745117" type="line"/>
      <point x="54.375" y="747.2222213745117" type="line"/>
    </contour>
    <contour>
      <point x="97.42839813232422" y="5" type="line"/>
      <point x="135.625" y="5" type="line"/>
      <point x="135.625" y="600" type="line"/>
      <point x="97.42839813232422" y="600" type="line"/>
      <point x="35.625" y="538.1966018676758" type="line"/>
      <point x="35.625" y="66.80339813232422" type="line"/>
    </contour>
    <contour>
      <point x="211.32160186767578" y="-210" type="line"/>
      <point x="273.125" y="-148.19660186767578" type="line"/>
      <point x="273.125" y="600" type="line"/>
      <point x="173.125" y="600" type="line"/>
      <point x="173.125" y="-210" type="line"/>
    </contour>
    <contour>
      <point x="135.625" y="-110.0" type="line"/>
      <point x="35.625" y="-110.0" type="line"/>
      <point x="35.625" y="-148.1966" type="line"/>
      <point x="97.42840000000001" y="-210.0" type="line"/>
      <point x="135.625" y="-210.0" type="line"/>
    </contour>
  </outline>
</glyph>
<glyph name="I_with_smalltilde" format="2">
  <advance width="171.25"/>
  <unicode hex="0128"/>
  <outline>
    <contour>
      <point x="-14.375" y="885.4188232421875" type="line"/>
      <point x="-14.375" y="847.2222213745117" type="line"/>
      <point x="123.82160186767578" y="847.2222213745117" type="line"/>
      <point x="185.625" y="909.0256195068359" type="line"/>
      <point x="185.625" y="947.2222213745117" type="line"/>
      <point x="47.42839813232422" y="947.2222213745117" type="line"/>
    </contour>
    <contour>
      <point x="35.625" y="0" type="line"/>
      <point x="135.625" y="0" type="line"/>
      <point x="135.625" y="800" type="line"/>
      <point x="35.625" y="800" type="line"/>
    </contour>
  </outline>
</glyph>
<glyph name="i_with_macron" format="2">
  <advance width="171.25"/>
  <unicode hex="012B"/>
  <outline>
    <contour>
      <point x="-14.375" y="647.2222213745117" type="line"/>
      <point x="185.625" y="647.2222213745117" type="line"/>
      <point x="185.625" y="747.2222213745117" type="line"/>
      <point x="-14.375" y="747.2222213745117" type="line"/>
    </contour>
    <contour>
      <point x="35.625" y="0" type="line"/>
      <point x="135.625" y="0" type="line"/>
      <point x="135.625" y="600" type="line"/>
      <point x="35.625" y="600" type="line"/>
    </contour>
  </outline>
</glyph>
<glyph name="i_with_breve" format="2">
  <advance width="171.25"/>
  <unicode hex="012D"/>
  <outline>
    <contour>
      <point x="-14.375" y="709.0256195068359" type="line"/>
      <point x="47.42839813232422" y="647.2222213745117" type="line"/>
      <point x="123.82160186767578" y="647.2222213745117" type="line"/>
      <point x="185.625" y="709.0256195068359" type="line"/>
      <point x="185.625" y="747.2222213745117" type="line"/>
      <point x="-14.375" y="747.2222213745117" type="line"/>
    </contour>
    <contour>
      <point x="35.625" y="0" type="line"/>
      <point x="135.625" y="0" type="line"/>
      <point x="135.625" y="600" type="line"/>
      <point x="35.625" y="600" type="line"/>
    </contour>
  </outline>
</glyph>
<glyph name="I_with_ogonek" format="2">
  <advance width="171.25"/>
  <unicode hex="012E"/>
  <outline>
    <contour>
      <point x="35.625" y="0" type="line"/>
      <point x="135.625" y="0" type="line"/>
      <point x="135.625" y="800" type="line"/>
      <point x="35.625" y="800" type="line"/>
    </contour>
    <contour>
      <point x="135.625" y="-125.0" type="line"/>
      <point x="135.625" y="-25.0" type="line"/>
      <point x="97.4284" y="-25.0" type="line"/>
      <point x="35.625" y="-86.80340000000001" type="line"/>
      <point x="35.625" y="-125.0" type="line"/>
    </contour>
  </outline>
</glyph>
<glyph name="i_with_ogonek" format="2">
  <advance width="171.25"/>
  <unicode hex="012F"/>
  <outline>
    <contour>
      <point x="35.625" y="647.22222" type="line"/>
      <point x="135.625" y="647.22222" type="line"/>
      <point x="135.625" y="747.22222" type="line"/>
      <point x="35.625" y="747.22222" type="line"/>
    </contour>
    <contour>
      <point x="35.625" y="0" type="line"/>
      <point x="135.625" y="0" type="line"/>
      <point x="135.625" y="600" type="line"/>
      <point x="35.625" y="600" type="line"/>
    </contour>
    <contour>
      <point x="135.625" y="-125.0" type="line"/>
      <point x="135.625" y="-25.0" type="line"/>
      <point x="97.4284" y="-25.0" type="line"/>
      <point x="35.625" y="-86.80340000000001" type="line"/>
      <point x="35.625" y="-125.0" type="line"/>
    </contour>
  </outline>
</glyph>
<glyph name="I_with_dotabove" format="2">
  <advance width="171.25"/>
  <unicode hex="0130"/>
  <outline>
    <contour>
      <point x="35.625" y="947.2222222222222" type="line"/>
      <point x="135.625" y="947.2222222222222" type="line"/>
      <point x="135.625" y="1047.2222222222222" type="line"/>
      <point x="35.625" y="1047.2222222222222" type="line"/>
    </contour>
    <contour>
      <point x="35.625" y="0" type="line"/>
      <point x="135.625" y="0" type="line"/>
      <point x="135.625" y="800" type="line"/>
      <point x="35.625" y="800" type="line"/>
    </contour>
  </outline>
</glyph>
<glyph name="ij" format="2">
  <advance width="308.75"/>
  <unicode hex="0133"/>
  <outline>
    <contour>
      <point x="29.375" y="647.22222" type="line"/>
      <point x="129.375" y="647.22222" type="line"/>
      <point x="129.375" y="747.22222" type="line"/>
      <point x="29.375" y="747.22222" type="line"/>
    </contour>
    <contour>
      <point x="173.125" y="647.22222" type="line"/>
      <point x="273.125" y="647.22222" type="line"/>
      <point x="273.125" y="747.22222" type="line"/>
      <point x="173.125" y="747.22222" type="line"/>
    </contour>
    <contour>
      <point x="29.375" y="0" type="line"/>
      <point x="129.375" y="0" type="line"/>
      <point x="129.375" y="600" type="line"/>
      <point x="29.375" y="600" type="line"/>
    </contour>
    <contour>
      <point x="211.32160186767578" y="-210" type="line"/>
      <point x="273.125" y="-148.19660186767578" type="line"/>
      <point x="273.125" y="600" type="line"/>
      <point x="173.125" y="600" type="line"/>
      <point x="173.125" y="-210" type="line"/>
    </contour>
    <contour>
      <point x="138.75" y="-110.0" type="line"/>
      <point x="38.75" y="-110.0" type="line"/>
      <point x="38.75" y="-148.1966" type="line"/>
      <point x="100.5534" y="-210.0" type="line"/>
      <point x="138.75" y="-210.0" type="line"/>
    </contour>
  </outline>
</glyph>
<glyph name="J_with_circumflex" format="2">
  <advance width="308.75"/>
  <unicode hex="0134"/>
  <outline>
    <contour>
      <point x="117.5" y="947.2222222222222" type="line"/>
      <point x="117.5" y="847.2222222222222" type="line"/>
      <point x="155.6966" y="847.2222222222222" type="line"/>
      <point x="217.5" y="909.0256222222222" type="line"/>
      <point x="217.5" y="947.2222222222222" type="line"/>
    </contour>
    <contour>
      <point x="323.75" y="947.2222222222222" type="line"/>
      <point x="223.75" y="947.2222222222222" type="line"/>
      <point x="223.75" y="909.0256222222222" type="line"/>
      <point x="285.5534" y="847.2222222222222" type="line"/>
      <point x="323.75" y="847.2222222222222" type="line"/>
    </contour>
    <contour>
      <point x="211.32160186767578" y="-5" type="line"/>
      <point x="273.125" y="56.80339813232422" type="line"/>
      <point x="273.125" y="800" type="line"/>
      <point x="173.125" y="800" type="line"/>
      <point x="173.125" y="-5" type="line"/>
    </contour>
    <contour>
      <point x="135.625" y="95.0" type="line"/>
      <point x="35.625" y="95.0" type="line"/>
      <point x="35.625" y="56.8034" type="line"/>
      <point x="97.42840000000001" y="-5.0" type="line"/>
      <point x="135.625" y="-5.0" type="line"/>
    </contour>
  </outline>
</glyph>
<glyph name="j_with_circumflex" format="2">
  <advance width="308.75"/>
  <unicode hex="0135"/>
  <outline>
    <contour>
      <point x="119.0625" y="747.2222222222222" type="line"/>
      <point x="119.0625" y="647.2222222222222" type="line"/>
      <point x="157.2591" y="647.2222222222222" type="line"/>
      <point x="219.0625" y="709.0256222222222" type="line"/>
      <point x="219.0625" y="747.2222222222222" type="line"/>
    </contour>
    <contour>
      <point x="325.3125" y="747.2222222222222" type="line"/>
      <point x="225.3125" y="747.2222222222222" type="line"/>
      <point x="225.3125" y="709.0256222222222" type="line"/>
      <point x="287.1159" y="647.2222222222222" type="line"/>
      <point x="325.3125" y="647.2222222222222" type="line"/>
    </contour>
    <contour>
      <point x="211.32160186767578" y="-210" type="line"/>
      <point x="273.125" y="-148.19660186767578" type="line"/>
      <point x="273.125" y="600" type="line"/>
      <point x="173.125" y="600" type="line"/>
      <point x="173.125" y="-210" type="line"/>
    </contour>
    <contour>
      <point x="138.75" y="-110.0" type="line"/>
      <point x="38.75" y="-110.0" type="line"/>
      <point x="38.75" y="-148.1966" type="line"/>
      <point x="100.5534" y="-210.0" type="line"/>
      <point x="138.75" y="-210.0" type="line"/>
    </contour>
  </outline>
</glyph>
<glyph name="K_with_cedilla" format="2">
  <advance width="308.75"/>
  <unicode hex="0136"/>
  <outline>
    <contour>
      <point x="35.625" y="0" type="line"/>
      <point x="135.625" y="0" type="line"/>
      <point x="135.625" y="800" type="line"/>
      <point x="35.625" y="800" type="line"/>
    </contour>
    <contour>
      <point x="173.125" y="0" type="line"/>
      <point x="273.125" y="0" type="line"/>
      <point x="273.125" y="338.1966018676758" type="line"/>
      <point x="211.32160186767578" y="400" type="line"/>
      <point x="273.125" y="461.8033981323242" type="line"/>
      <point x="273.125" y="800" type="line"/>
      <point x="173.125" y="800" type="line"/>
    </contour>
    <contour>
      <point x="148.125" y="-125.0" type="line"/>
      <point x="248.125" y="-125.0" type="line"/>
      <point x="248.125" y="-86.80340000000001" type="line"/>
      <point x="186.3216" y="-25.0" type="line"/>
      <point x="148.125" y="-25.0" type="line"/>
    </contour>
  </outline>
</glyph>
<glyph name="L_with_acute" format="2">
  <advance width="308.75"/>
  <unicode hex="0139"/>
  <outline>
    <contour>
      <point x="148.125" y="947.2222222222222" type="line"/>
      <point x="148.125" y="847.2222222222222" type="line"/>
      <point x="186.3216" y="847.2222222222222" type="line"/>
      <point x="248.125" y="909.0256222222222" type="line"/>
      <point x="248.125" y="947.2222222222222" type="line"/>
    </contour>
    <contour>
      <point x="35.625" y="0" type="line"/>
      <point x="135.625" y="0" type="line"/>
      <point x="135.625" y="800" type="line"/>
      <point x="35.625" y="800" type="line"/>
    </contour>
    <contour>
      <point x="273.125" y="0.0" type="line"/>
      <point x="273.125" y="100.0" type="line"/>
      <point x="234.9284" y="100.0" type="line"/>
      <point x="173.125" y="38.1966" type="line"/>
      <point x="173.125" y="0.0" type="line"/>
    </contour>
  </outline>
</glyph>
<glyph name="l_with_acute" format="2">
  <advance width="171.25"/>
  <unicode hex="013A"/>
  <outline>
    <contour>
      <point x="79.375" y="947.2222222222222" type="line"/>
      <point x="79.375" y="847.2222222222222" type="line"/>
      <point x="117.5716" y="847.2222222222222" type="line"/>
      <point x="179.375" y="909.0256222222222" type="line"/>
      <point x="179.375" y="947.2222222222222" type="line"/>
    </contour>
    <contour>
      <point x="97.42839813232422" y="-5" type="line"/>
      <point x="135.625" y="-5" type="line"/>
      <point x="135.625" y="800" type="line"/>
      <point x="35.625" y="800" type="line"/>
      <point x="35.625" y="56.80339813232422" type="line"/>
    </contour>
  </outline>
</glyph>
<glyph name="L_with_cedilla" format="2">
  <advance width="308.75"/>
  <unicode hex="013B"/>
  <outline>
    <contour>
      <point x="35.625" y="0" type="line"/>
      <point x="135.625" y="0" type="line"/>
      <point x="135.625" y="800" type="line"/>
      <point x="35.625" y="800" type="line"/>
    </contour>
    <contour>
      <point x="273.125" y="0.0" type="line"/>
      <point x="273.125" y="100.0" type="line"/>
      <point x="234.9284" y="100.0" type="line"/>
      <point x="173.125" y="38.1966" type="line"/>
      <point x="173.125" y="0.0" type="line"/>
    </contour>
    <contour>
      <point x="148.125" y="-125.0" type="line"/>
      <point x="248.125" y="-125.0" type="line"/>
      <point x="248.125" y="-86.80340000000001" type="line"/>
      <point x="186.3216" y="-25.0" type="line"/>
      <point x="148.125" y="-25.0" type="line"/>
    </contour>
  </outline>
</glyph>
<glyph name="l_with_cedilla" format="2">
  <advance width="171.25"/>
  <unicode hex="013C"/>
  <outline>
    <contour>
      <point x="97.42839813232422" y="-5" type="line"/>
      <point x="135.625" y="-5" type="line"/>
      <point x="135.625" y="800" type="line"/>
      <point x="35.625" y="800" type="line"/>
      <point x="35.625" y="56.80339813232422" type="line"/>
    </contour>
    <contour>
      <point x="79.375" y="-130.0" type="line"/>
      <point x="179.375" y="-130.0" type="line"/>
      <point x="179.375" y="-91.80340000000001" type="line"/>
      <point x="117.5716" y="-30.0" type="line"/>
      <point x="79.375" y="-30.0" type="line"/>
    </contour>
  </outline>
</glyph>
<glyph name="L_with_stroke" format="2">
  <advance width="321.25"/>
  <unicode hex="0141"/>
  <outline>
    <contour>
      <point x="48.125" y="0" type="line"/>
      <point x="148.125" y="0" type="line"/>
      <point x="148.125" y="500" type="line"/>
      <point x="148.82160186767578" y="500" type="line"/>
      <point x="210.625" y="561.8033981323242" type="line"/>
      <point x="210.625" y="600" type="line"/>
      <point x="148.125" y="600" type="line"/>
      <point x="148.125" y="800" type="line"/>
      <point x="48.125" y="800" type="line"/>
      <point x="48.125" y="500" type="line"/>
      <point x="47.42839813232422" y="500" type="line"/>
      <point x="-14.375" y="438.1966018676758" type="line"/>
      <point x="-14.375" y="400" type="line"/>
      <point x="48.125" y="400" type="line"/>
    </contour>
    <contour>
      <point x="285.625" y="0.0" type="line"/>
      <point x="285.625" y="100.0" type="line"/>
      <point x="247.4284" y="100.0" type="line"/>
      <point x="185.625" y="38.1966" type="line"/>
      <point x="185.625" y="0.0" type="line"/>
    </contour>
  </outline>
</glyph>
<glyph name="l_with_stroke" format="2">
  <advance width="196.25"/>
  <unicode hex="0142"/>
  <outline>
    <contour>
      <point x="48.125" y="400" type="line"/>
      <point x="48.125" y="56.80339813232422" type="line"/>
      <point x="109.92839813232422" y="-5" type="line"/>
      <point x="148.125" y="-5" type="line"/>
      <point x="148.125" y="500" type="line"/>
      <point x="148.82160186767578" y="500" type="line"/>
      <point x="210.625" y="561.8033981323242" type="line"/>
      <point x="210.625" y="600" type="line"/>
      <point x="148.125" y="600" type="line"/>
      <point x="148.125" y="800" type="line"/>
      <point x="48.125" y="800" type="line"/>
      <point x="48.125" y="500" type="line"/>
      <point x="47.42839813232422" y="500" type="line"/>
      <point x="-14.375" y="438.1966018676758" type="line"/>
      <point x="-14.375" y="400" type="line"/>
    </contour>
  </outline>
</glyph>
<glyph name="N_with_acute" format="2">
  <advance width="308.75"/>
  <unicode hex="0143"/>
  <outline>
    <contour>
      <point x="148.125" y="947.2222222222222" type="line"/>
      <point x="148.125" y="847.2222222222222" type="line"/>
      <point x="186.3216" y="847.2222222222222" type="line"/>
      <point x="248.125" y="909.0256222222222" type="line"/>
      <point x="248.125" y="947.2222222222222" type="line"/>
    </contour>
    <contour>
      <point x="35.625" y="0" type="line"/>
      <point x="135.625" y="0" type="line"/>
      <point x="135.625" y="800" type="line"/>
      <point x="35.625" y="800" type="line"/>
    </contour>
    <contour>
      <point x="173.125" y="0" type="line"/>
      <point x="273.125" y="0" type="line"/>
      <point x="273.125" y="738.1966018676758" type="line"/>
      <point x="211.32160186767578" y="800" type="line"/>
      <point x="173.125" y="800" type="line"/>
    </contour>
  </outline>
</glyph>
<glyph name="N_with_cedilla" format="2">
  <advance width="308.75"/>
  <unicode hex="0145"/>
  <outline>
    <contour>
      <point x="35.625" y="0" type="line"/>
      <point x="135.625" y="0" type="line"/>
      <point x="135.625" y="800" type="line"/>
      <point x="35.625" y="800" type="line"/>
    </contour>
    <contour>
      <point x="173.125" y="0" type="line"/>
      <point x="273.125" y="0" type="line"/>
      <point x="273.125" y="738.1966018676758" type="line"/>
      <point x="211.32160186767578" y="800" type="line"/>
      <point x="173.125" y="800" type="line"/>
    </contour>
    <contour>
      <point x="148.125" y="-125.0" type="line"/>
      <point x="248.125" y="-125.0" type="line"/>
      <point x="248.125" y="-86.80340000000001" type="line"/>
      <point x="186.3216" y="-25.0" type="line"/>
      <point x="148.125" y="-25.0" type="line"/>
    </contour>
  </outline>
</glyph>
<glyph name="n_with_cedilla" format="2">
  <advance width="308.75"/>
  <unicode hex="0146"/>
  <outline>
    <contour>
      <point x="35.625" y="0" type="line"/>
      <point x="135.625" y="0" type="line"/>
      <point x="135.625" y="600" type="line"/>
      <point x="35.625" y="600" type="line"/>
    </contour>
    <contour>
      <point x="173.125" y="0" type="line"/>
      <point x="273.125" y="0" type="line"/>
      <point x="273.125" y="538.1966018676758" type="line"/>
      <point x="211.32160186767578" y="600" type="line"/>
      <point x="173.125" y="600" type="line"/>
    </contour>
    <contour>
      <point x="148.125" y="-125.0" type="line"/>
      <point x="248.125" y="-125.0" type="line"/>
      <point x="248.125" y="-86.80340000000001" type="line"/>
      <point x="186.3216" y="-25.0" type="line"/>
      <point x="148.125" y="-25.0" type="line"/>
    </contour>
  </outline>
</glyph>
<glyph name="N_with_caron" format="2">
  <advance width="308.75"/>
  <unicode hex="0147"/>
  <outline>
    <contour>
      <point x="51.25" y="847.2222222222222" type="line"/>
      <point x="151.25" y="847.2222222222222" type="line"/>
      <point x="151.25" y="885.4188222222222" type="line"/>
      <point x="89.44659999999999" y="947.2222222222222" type="line"/>
      <point x="51.25" y="947.2222222222222" type="line"/>
    </contour>
    <contour>
      <point x="257.5" y="847.2222222222222" type="line"/>
      <point x="257.5" y="947.2222222222222" type="line"/>
      <point x="219.3034" y="947.2222222222222" type="line"/>
      <point x="157.5" y="885.4188222222222" type="line"/>
      <point x="157.5" y="847.2222222222222" type="line"/>
    </contour>
    <contour>
      <point x="35.625" y="0" type="line"/>
      <point x="135.625" y="0" type="line"/>
      <point x="135.625" y="800" type="line"/>
      <point x="35.625" y="800" type="line"/>
    </contour>
    <contour>
      <point x="173.125" y="0" type="line"/>
      <point x="273.125" y="0" type="line"/>
      <point x="273.125" y="738.1966018676758" type="line"/>
      <point x="211.32160186767578" y="800" type="line"/>
      <point x="173.125" y="800" type="line"/>
    </contour>
  </outline>
</glyph>
<glyph name="n_with_caron" format="2">
  <advance width="308.75"/>
  <unicode hex="0148"/>
  <outline>
    <contour>
      <point x="51.25" y="647.2222222222222" type="line"/>
      <point x="151.25" y="647.2222222222222" type="line"/>
      <point x="151.25" y="685.4188222222222" type="line"/>
      <point x="89.44659999999999" y="747.2222222222222" type="line"/>
      <point x="51.25" y="747.2222222222222" type="line"/>
    </contour>
    <contour>
      <point x="257.5" y="647.2222222222222" type="line"/>
      <point x="257.5" y="747.2222222222222" type="line"/>
      <point x="219.3034" y="747.2222222222222" type="line"/>
      <point x="157.5" y="685.4188222222222" type="line"/>
      <point x="157.5" y="647.2222222222222" type="line"/>
    </contour>
    <contour>
      <point x="35.625" y="0" type="line"/>
      <point x="135.625" y="0" type="line"/>
      <point x="135.625" y="600" type="line"/>
      <point x="35.625" y="600" type="line"/>
    </contour>
    <contour>
      <point x="173.125" y="0" type="line"/>
      <point x="273.125" y="0" type="line"/>
      <point x="273.125" y="538.1966018676758" type="line"/>
      <point x="211.32160186767578" y="600" type="line"/>
      <point x="173.125" y="600" type="line"/>
    </contour>
  </outline>
</glyph>
<glyph name="ENG" format="2">
  <advance width="308.75"/>
  <unicode hex="014A"/>
  <outline>
    <contour>
      <point x="35.625" y="0" type="line"/>
      <point x="135.625" y="0" type="line"/>
      <point x="135.625" y="800" type="line"/>
      <point x="35.625" y="800" type="line"/>
    </contour>
    <contour>
      <point x="211.32160186767578" y="-200" type="line"/>
      <point x="273.125" y="-138.19660186767578" type="line"/>
      <point x="273.125" y="738.1966018676758" type="line"/>
      <point x="211.32160186767578" y="800" type="line"/>
      <point x="173.125" y="800" type="line"/>
      <point x="173.125" y="-200" type="line"/>
    </contour>
  </outline>
</glyph>
<glyph name="O_with_acutedbl" format="2">
  <advance width="308.75"/>
  <unicode hex="0150"/>
  <outline>
    <contour>
      <point x="35.625" y="947.2222222222222" type="line"/>
      <point x="35.625" y="847.2222222222222" type="line"/>
      <point x="73.82159999999999" y="847.2222222222222" type="line"/>
      <point x="135.625" y="909.0256222222222" type="line"/>
      <point x="135.625" y="947.2222222222222" type="line"/>
    </contour>
    <contour>
      <point x="173.125" y="947.2222222222222" type="line"/>
      <point x="173.125" y="847.2222222222222" type="line"/>
      <point x="211.3216" y="847.2222222222222" type="line"/>
      <point x="273.125" y="909.0256222222222" type="line"/>
      <point x="273.125" y="947.2222222222222" type="line"/>
    </contour>
    <contour>
      <point x="97.42839813232422" y="-5" type="line"/>
      <point x="135.625" y="-5" type="line"/>
      <point x="135.625" y="805" type="line"/>
      <point x="97.42839813232422" y="805" type="line"/>
      <point x="35.625" y="743.1966018676758" type="line"/>
      <point x="35.625" y="56.80339813232422" type="line"/>
    </contour>
    <contour>
      <point x="211.32160186767578" y="-5" type="line"/>
      <point x="273.125" y="56.80339813232422" type="line"/>
      <point x="273.125" y="743.1966018676758" type="line"/>
      <point x="211.32160186767578" y="805" type="line"/>
      <point x="173.125" y="805" type="line"/>
      <point x="173.125" y="-5" type="line"/>
    </contour>
  </outline>
</glyph>
<glyph name="oe" format="2">
  <advance width="583.75"/>
  <unicode hex="0153"/>
  <outline>
    <contour>
      <point x="97.42839813232422" y="-5" type="line"/>
      <point x="135.625" y="-5" type="line"/>
      <point x="135.625" y="605" type="line"/>
      <point x="97.42839813232422" y="605" type="line"/>
      <point x="35.625" y="543.1966018676758" type="line"/>
      <point x="35.625" y="56.80339813232422" type="line"/>
    </contour>
    <contour>
      <point x="211.32160186767578" y="-5" type="line"/>
      <point x="273.125" y="56.80339813232422" type="line"/>
      <point x="273.125" y="543.1966018676758" type="line"/>
      <point x="211.32160186767578" y="605" type="line"/>
      <point x="173.125" y="605" type="line"/>
      <point x="173.125" y="-5" type="line"/>
    </contour>
    <contour>
      <point x="372.4283981323242" y="-5" type="line"/>
      <point x="410.625" y="-5" type="line"/>
      <point x="410.625" y="605" type="line"/>
      <point x="372.4283981323242" y="605" type="line"/>
      <point x="310.625" y="543.1966018676758" type="line"/>
      <point x="310.625" y="56.80339813232422" type="line"/>
    </contour>
    <contour>
      <point x="448.125" y="195" type="line"/>
      <point x="548.125" y="195" type="line"/>
      <point x="548.125" y="543.1966018676758" type="line"/>
      <point x="486.3216018676758" y="605" type="line"/>
      <point x="448.125" y="605" type="line"/>
    </contour>
  </outline>
</glyph>
<glyph name="r_with_acute" format="2">
  <advance width="308.75"/>
  <unicode hex="0155"/>
  <outline>
    <contour>
      <point x="148.125" y="747.2222222222222" type="line"/>
      <point x="148.125" y="647.2222222222222" type="line"/>
      <point x="186.3216" y="647.2222222222222" type="line"/>
      <point x="248.125" y="709.0256222222222" type="line"/>
      <point x="248.125" y="747.2222222222222" type="line"/>
    </contour>
    <contour>
      <point x="35.625" y="0" type="line"/>
      <point x="135.625" y="0" type="line"/>
      <point x="135.625" y="600" type="line"/>
      <point x="35.625" y="600" type="line"/>
    </contour>
    <contour>
      <point x="273.125" y="600.0" type="line"/>
      <point x="173.125" y="600.0" type="line"/>
      <point x="173.125" y="561.8034" type="line"/>
      <point x="234.9284" y="500.0" type="line"/>
      <point x="273.125" y="500.0" type="line"/>
    </contour>
  </outline>
</glyph>
<glyph name="R_with_cedilla" format="2">
  <advance width="308.75"/>
  <unicode hex="0156"/>
  <outline>
    <contour>
      <point x="35.625" y="0" type="line"/>
      <point x="135.625" y="0" type="line"/>
      <point x="135.625" y="800" type="line"/>
      <point x="35.625" y="800" type="line"/>
    </contour>
    <contour>
      <point x="173.125" y="0" type="line"/>
      <point x="273.125" y="0" type="line"/>
      <point x="273.125" y="138.19660186767578" type="line"/>
      <point x="211.32160186767578" y="200" type="line"/>
      <point x="273.125" y="261.8033981323242" type="line"/>
      <point x="273.125" y="738.1966018676758" type="line"/>
      <point x="211.32160186767578" y="800" type="line"/>
      <point x="173.125" y="800" type="line"/>
    </contour>
    <contour>
      <point x="148.125" y="-125.0" type="line"/>
      <point x="248.125" y="-125.0" type="line"/>
      <point x="248.125" y="-86.80340000000001" type="line"/>
      <point x="186.3216" y="-25.0" type="line"/>
      <point x="148.125" y="-25.0" type="line"/>
    </contour>
  </outline>
</glyph>
<glyph name="S_with_circumflex" format="2">
  <advance width="308.75"/>
  <unicode hex="015C"/>
  <outline>
    <contour>
      <point x="51.25" y="947.2222222222222" type="line"/>
      <point x="51.25" y="847.2222222222222" type="line"/>
      <point x="89.44659999999999" y="847.2222222222222" type="line"/>
      <point x="151.25" y="909.0256222222222" type="line"/>
      <point x="151.25" y="947.2222222222222" type="line"/>
    </contour>
    <contour>
      <point x="257.5" y="947.2222222222222" type="line"/>
      <point x="157.5" y="947.2222222222222" type="line"/>
      <point x="157.5" y="909.0256222222222" type="line"/>
      <point x="219.3034" y="847.2222222222222" type="line"/>
      <point x="257.5" y="847.2222222222222" type="line"/>
    </contour>
    <contour>
      <point x="97.42839813232422" y="350" type="line"/>
      <point x="135.625" y="350" type="line"/>
      <point x="135.625" y="800" type="line"/>
      <point x="97.42839813232422" y="800" type="line"/>
      <point x="35.625" y="738.1966018676758" type="line"/>
      <point x="35.625" y="411.8033981323242" type="line"/>
    </contour>
    <contour>
      <point x="270.0" y="800.0" type="line"/>
      <point x="170.0" y="800.0" type="line"/>
      <point x="170.0" y="761.8034" type="line"/>
      <point x="231.8034" y="700.0" type="line"/>
      <point x="270.0" y="700.0" type="line"/>
    </contour>
    <contour>
      <point x="211.32160186767578" y="0" type="line"/>
      <point x="273.125" y="61.80339813232422" type="line"/>
      <point x="273.125" y="388.1966018676758" type="line"/>
      <point x="211.32160186767578" y="450" type="line"/>
      <point x="173.125" y="450" type="line"/>
      <point x="173.125" y="0" type="line"/>
    </contour>
    <contour>
      <point x="37.1875" y="0" type="line"/>
      <point x="137.1875" y="0" type="line"/>
      <point x="137.1875" y="38.1966" type="line"/>
      <point x="75.38409999999999" y="100.0" type="line"/>
      <point x="37.1875" y="100.0" type="line"/>
    </contour>
  </outline>
</glyph>
<glyph name="s_with_cedilla" format="2">
  <advance width="308.75"/>
  <unicode hex="015F"/>
  <outline>
    <contour>
      <point x="97.42839813232422" y="250" type="line"/>
      <point x="135.625" y="250" type="line"/>
      <point x="135.625" y="600" type="line"/>
      <point x="97.42839813232422" y="600" type="line"/>
      <point x="35.625" y="538.1966018676758" type="line"/>
      <point x="35.625" y="311.8033981323242" type="line"/>
    </contour>
    <contour>
      <point x="270.0" y="600.0" type="line"/>
      <point x="170.0" y="600.0" type="line"/>
      <point x="170.0" y="561.8034" type="line"/>
      <point x="231.8034" y="500.0" type="line"/>
      <point x="270.0" y="500.0" type="line"/>
    </contour>
    <contour>
      <point x="211.32160186767578" y="-5" type="line"/>
      <point x="273.125" y="56.80339813232422" type="line"/>
      <point x="273.125" y="283.1966018676758" type="line"/>
      <point x="211.32160186767578" y="345" type="line"/>
      <point x="173.125" y="345" type="line"/>
      <point x="173.125" y="-5" type="line"/>
    </contour>
    <contour>
      <point x="37.1875" y="0" type="line"/>
      <point x="137.1875" y="0" type="line"/>
      <point x="137.1875" y="38.1966" type="line"/>
      <point x="75.38409999999999" y="100.0" type="line"/>
      <point x="37.1875" y="100.0" type="line"/>
    </contour>
    <contour>
      <point x="148.125" y="-130.0" type="line"/>
      <point x="248.125" y="-130.0" type="line"/>
      <point x="248.125" y="-91.80340000000001" type="line"/>
      <point x="186.3216" y="-30.0" type="line"/>
      <point x="148.125" y="-30.0" type="line"/>
    </contour>
  </outline>
</glyph>
<glyph name="s_with_caron" format="2">
  <advance width="308.75"/>
  <unicode hex="0161"/>
  <outline>
    <contour>
      <point x="51.25" y="647.2222222222222" type="line"/>
      <point x="151.25" y="647.2222222222222" type="line"/>
      <point x="151.25" y="685.4188222222222" type="line"/>
      <point x="89.44659999999999" y="747.2222222222222" type="line"/>
      <point x="51.25" y="747.2222222222222" type="line"/>
    </contour>
    <contour>
      <point x="257.5" y="647.2222222222222" type="line"/>
      <point x="257.5" y="747.2222222222222" type="line"/>
      <point x="219.3034" y="747.2222222222222" type="line"/>
      <point x="157.5" y="685.4188222222222" type="line"/>
      <point x="157.5" y="647.2222222222222" type="line"/>
    </contour>
    <contour>
      <point x="97.42839813232422" y="250" type="line"/>
      <point x="135.625" y="250" type="line"/>
      <point x="135.625" y="600" type="line"/>
      <point x="97.42839813232422" y="600" type="line"/>
      <point x="35.625" y="538.1966018676758" type="line"/>
      <point x="35.625" y="311.8033981323242" type="line"/>
    </contour>
    <contour>
      <point x="270.0" y="600.0" type="line"/>
      <point x="170.0" y="600.0" type="line"/>
      <point x="170.0" y="561.8034" type="line"/>
      <point x="231.8034" y="500.0" type="line"/>
      <point x="270.0" y="500.0" type="line"/>
    </contour>
    <contour>
      <point x="211.32160186767578" y="-5" type="line"/>
      <point x="273.125" y="56.80339813232422" type="line"/>
      <point x="273.125" y="283.1966018676758" type="line"/>
      <point x="211.32160186767578" y="345" type="line"/>
      <point x="173.125" y="345" type="line"/>
      <point x="173.125" y="-5" type="line"/>
    </contour>
    <contour>
      <point x="37.1875" y="0" type="line"/>
      <point x="137.1875" y="0" type="line"/>
      <point x="137.1875" y="38.1966" type="line"/>
      <point x="75.38409999999999" y="100.0" type="line"/>
      <point x="37.1875" y="100.0" type="line"/>
    </contour>
  </outline>
</glyph>
<glyph name="T_with_cedilla" format="2">
  <advance width="446.25"/>
  <unicode hex="0162"/>
  <outline>
    <contour>
      <point x="35.625" y="800.0" type="line"/>
      <point x="35.625" y="700.0" type="line"/>
      <point x="73.82159999999999" y="700.0" type="line"/>
      <point x="135.625" y="761.8034" type="line"/>
      <point x="135.625" y="800.0" type="line"/>
    </contour>
    <contour>
      <point x="173.125" y="0" type="line"/>
      <point x="273.125" y="0" type="line"/>
      <point x="273.125" y="800" type="line"/>
      <point x="173.125" y="800" type="line"/>
    </contour>
    <contour>
      <point x="410.625" y="800.0" type="line"/>
      <point x="310.625" y="800.0" type="line"/>
      <point x="310.625" y="761.8034" type="line"/>
      <point x="372.4284" y="700.0" type="line"/>
      <point x="410.625" y="700.0" type="line"/>
    </contour>
    <contour>
      <point x="216.875" y="-125.0" type="line"/>
      <point x="316.875" y="-125.0" type="line"/>
      <point x="316.875" y="-86.80340000000001" type="line"/>
      <point x="255.0716" y="-25.0" type="line"/>
      <point x="216.875" y="-25.0" type="line"/>
    </contour>
  </outline>
</glyph>
<glyph name="t_with_cedilla" format="2">
  <advance width="308.75"/>
  <unicode hex="0163"/>
  <outline>
    <contour>
      <point x="35.625" y="0" type="line"/>
      <point x="135.625" y="0" type="line"/>
      <point x="135.625" y="800" type="line"/>
      <point x="97.42839813232422" y="800" type="line"/>
      <point x="35.625" y="738.1966018676758" type="line"/>
    </contour>
    <contour>
      <point x="173.125" y="600.0" type="line"/>
      <point x="173.125" y="500.0" type="line"/>
      <point x="211.3216" y="500.0" type="line"/>
      <point x="273.125" y="561.8034" type="line"/>
      <point x="273.125" y="600.0" type="line"/>
    </contour>
    <contour>
      <point x="88.75" y="-125.0" type="line"/>
      <point x="188.75" y="-125.0" type="line"/>
      <point x="188.75" y="-86.80340000000001" type="line"/>
      <point x="126.9466" y="-25.0" type="line"/>
      <point x="88.75" y="-25.0" type="line"/>
    </contour>
  </outline>
</glyph>
<glyph name="U_with_smalltilde" format="2">
  <advance width="308.75"/>
  <unicode hex="0168"/>
  <outline>
    <contour>
      <point x="54.375" y="885.4188232421875" type="line"/>
      <point x="54.375" y="847.2222213745117" type="line"/>
      <point x="192.57160186767578" y="847.2222213745117" type="line"/>
      <point x="254.375" y="909.0256195068359" type="line"/>
      <point x="254.375" y="947.2222213745117" type="line"/>
      <point x="116.17839813232422" y="947.2222213745117" type="line"/>
    </contour>
    <contour>
      <point x="97.42839813232422" y="-5" type="line"/>
      <point x="135.625" y="-5" type="line"/>
      <point x="135.625" y="800" type="line"/>
      <point x="35.625" y="800" type="line"/>
      <point x="35.625" y="56.80339813232422" type="line"/>
    </contour>
    <contour>
      <point x="211.32160186767578" y="-5" type="line"/>
      <point x="273.125" y="56.80339813232422" type="line"/>
      <point x="273.125" y="800" type="line"/>
      <point x="173.125" y="800" type="line"/>
      <point x="173.125" y="-5" type="line"/>
    </contour>
  </outline>
</glyph>
<glyph name="U_with_macron" format="2">
  <advance width="308.75"/>
  <unicode hex="016A"/>
  <outline>
    <contour>
      <point x="54.375" y="847.2222213745117" type="line"/>
      <point x="254.375" y="847.2222213745117" type="line"/>
      <point x="254.375" y="947.2222213745117" type="line"/>
      <point x="54.375" y="947.2222213745117" type="line"/>
    </contour>
    <contour>
      <point x="97.42839813232422" y="-5" type="line"/>
      <point x="135.625" y="-5" type="line"/>
      <point x="135.625" y="800" type="line"/>
      <point x="35.625" y="800" type="line"/>
      <point x="35.625" y="56.80339813232422" type="line"/>
    </contour>
    <contour>
      <point x="211.32160186767578" y="-5" type="line"/>
      <point x="273.125" y="56.80339813232422" type="line"/>
      <point x="273.125" y="800" type="line"/>
      <point x="173.125" y="800" type="line"/>
      <point x="173.125" y="-5" type="line"/>
    </contour>
  </outline>
</glyph>
<glyph name="U_with_ogonek" format="2">
  <advance width="308.75"/>
  <unicode hex="0172"/>
  <outline>
    <contour>
      <point x="97.42839813232422" y="-5" type="line"/>
      <point x="135.625" y="-5" type="line"/>
      <point x="135.625" y="800" type="line"/>
      <point x="35.625" y="800" type="line"/>
      <point x="35.625" y="56.80339813232422" type="line"/>
    </contour>
    <contour>
      <point x="211.32160186767578" y="-5" type="line"/>
      <point x="273.125" y="56.80339813232422" type="line"/>
      <point x="273.125" y="800" type="line"/>
      <point x="173.125" y="800" type="line"/>
      <point x="173.125" y="-5" type="line"/>
    </contour>
    <contour>
      <point x="154.375" y="-130.0" type="line"/>
      <point x="154.375" y="-30.0" type="line"/>
      <point x="116.1784" y="-30.0" type="line"/>
      <point x="54.375" y="-91.80340000000001" type="line"/>
      <point x="54.375" y="-130.0" type="line"/>
    </contour>
  </outline>
</glyph>
<glyph name="Y_with_circumflex" format="2">
  <advance width="308.75"/>
  <unicode hex="0176"/>
  <outline>
    <contour>
      <point x="51.25" y="947.2222222222222" type="line"/>
      <point x="51.25" y="847.2222222222222" type="line"/>
      <point x="89.44659999999999" y="847.2222222222222" type="line"/>
      <point x="151.25" y="909.0256222222222" type="line"/>
      <point x="151.25" y="947.2222222222222" type="line"/>
    </contour>
    <contour>
      <point x="257.5" y="947.2222222222222" type="line"/>
      <point x="157.5" y="947.2222222222222" type="line"/>
      <point x="157.5" y="909.0256222222222" type="line"/>
      <point x="219.3034" y="847.2222222222222" type="line"/>
      <point x="257.5" y="847.2222222222222" type="line"/>
    </contour>
    <contour>
      <point x="97.42839813232422" y="200.8333282470703" type="line"/>
      <point x="135.625" y="200.8333282470703" type="line"/>
      <point x="135.625" y="743.1966018676758" type="line"/>
      <point x="73.82160186767578" y="805" type="line"/>
      <point x="35.625" y="805" type="line"/>
      <point x="35.625" y="262.63672637939453" type="line"/>
    </contour>
    <contour>
      <point x="211.32160186767578" y="-5" type="line"/>
      <point x="273.125" y="56.80339813232422" type="line"/>
      <point x="273.125" y="800" type="line"/>
      <point x="173.125" y="800" type="line"/>
      <point x="173.125" y="-5" type="line"/>
    </contour>
    <contour>
      <point x="135.625" y="95.0" type="line"/>
      <point x="35.625" y="95.0" type="line"/>
      <point x="35.625" y="56.8034" type="line"/>
      <point x="97.42840000000001" y="-5.0" type="line"/>
      <point x="135.625" y="-5.0" type="line"/>
    </contour>
  </outline>
</glyph>
<glyph name="Z_with_acute" format="2">
  <advance width="308.75"/>
  <unicode hex="0179"/>
  <outline>
    <contour>
      <point x="148.125" y="947.2222222222222" type="line"/>
      <point x="148.125" y="847.2222222222222" type="line"/>
      <point x="186.3216" y="847.2222222222222" type="line"/>
      <point x="248.125" y="909.0256222222222" type="line"/>
      <point x="248.125" y="947.2222222222222" type="line"/>
    </contour>
    <contour>
      <point x="35.625" y="800.0" type="line"/>
      <point x="35.625" y="700.0" type="line"/>
      <point x="73.82159999999999" y="700.0" type="line"/>
      <point x="135.625" y="761.8034" type="line"/>
      <point x="135.625" y="800.0" type="line"/>
    </contour>
    <contour>
      <point x="211.32160186767578" y="350" type="line"/>
      <point x="273.125" y="411.8033981323242" type="line"/>
      <point x="273.125" y="800" type="line"/>
      <point x="173.125" y="800" type="line"/>
      <point x="173.125" y="350" type="line"/>
    </contour>
    <contour>
      <point x="35.625" y="0" type="line"/>
      <point x="135.625" y="0" type="line"/>
      <point x="135.625" y="450" type="line"/>
      <point x="97.42839813232422" y="450" type="line"/>
      <point x="35.625" y="388.1966018676758" type="line"/>
    </contour>
    <contour>
      <point x="273.125" y="0.0" type="line"/>
      <point x="273.125" y="100.0" type="line"/>
      <point x="234.9284" y="100.0" type="line"/>
      <point x="173.125" y="38.1966" type="line"/>
      <point x="173.125" y="0.0" type="line"/>
    </contour>
  </outline>
</glyph>
<glyph name="z_with_dotabove" format="2">
  <advance width="308.75"/>
  <unicode hex="017C"/>
  <outline>
    <contour>
      <point x="104.375" y="747.2222222222222" type="line"/>
      <point x="204.375" y="747.2222222222222" type="line"/>
      <point x="204.375" y="847.2222222222222" type="line"/>
      <point x="104.375" y="847.2222222222222" type="line"/>
    </contour>
    <contour>
      <point x="35.625" y="600.0" type="line"/>
      <point x="35.625" y="500.0" type="line"/>
      <point x="73.82159999999999" y="500.0" type="line"/>
      <point x="135.625" y="561.8034" type="line"/>
      <point x="135.625" y="600.0" type="line"/>
    </contour>
    <contour>
      <point x="211.32160186767578" y="250" type="line"/>
      <point x="273.125" y="311.8033981323242" type="line"/>
      <point x="273.125" y="600" type="line"/>
      <point x="173.125" y="600" type="line"/>
      <point x="173.125" y="250" type="line"/>
    </contour>
    <contour>
      <point x="35.625" y="0" type="line"/>
      <point x="135.625" y="0" type="line"/>
      <point x="135.625" y="350" type="line"/>
      <point x="97.42839813232422" y="350" type="line"/>
      <point x="35.625" y="288.1966018676758" type="line"/>
    </contour>
    <contour>
      <point x="273.125" y="0.0" type="line"/>
      <point x="273.125" y="100.0" type="line"/>
      <point x="234.9284" y="100.0" type="line"/>
      <point x="173.125" y="38.1966" type="line"/>
      <point x="173.125" y="0.0" type="line"/>
    </contour>
  </outline>
</glyph>
<glyph name="Z_with_caron" format="2">
  <advance width="308.75"/>
  <unicode hex="017D"/>
  <outline>
    <contour>
      <point x="51.25" y="847.2222222222222" type="line"/>
      <point x="151.25" y="847.2222222222222" type="line"/>
      <point x="151.25" y="885.4188222222222" type="line"/>
      <point x="89.44659999999999" y="947.2222222222222" type="line"/>
      <point x="51.25" y="947.2222222222222" type="line"/>
    </contour>
    <contour>
      <point x="257.5" y="847.2222222222222" type="line"/>
      <point x="257.5" y="947.2222222222222" type="line"/>
      <point x="219.3034" y="947.2222222222222" type="line"/>
      <point x="157.5" y="885.4188222222222" type="line"/>
      <point x="157.5" y="847.2222222222222" type="line"/>
    </contour>
    <contour>
      <point x="35.625" y="800.0" type="line"/>
      <point x="35.625" y="700.0" type="line"/>
      <point x="73.82159999999999" y="700.0" type="line"/>
      <point x="135.625" y="761.8034" type="line"/>
      <point x="135.625" y="800.0" type="line"/>
    </contour>
    <contour>
      <point x="211.32160186767578" y="350" type="line"/>
      <point x="273.125" y="411.8033981323242" type="line"/>
      <point x="273.125" y="800" type="line"/>
      <point x="173.125" y="800" type="line"/>
      <point x="173.125" y="350" type="line"/>
    </contour>
    <contour>
      <point x="35.625" y="0" type="line"/>
      <point x="135.625" y="0" type="line"/>
      <point x="135.625" y="450" type="line"/>
      <point x="97.42839813232422" y="450" type="line"/>
      <point x="35.625" y="388.1966018676758" type="line"/>
    </contour>
    <contour>
      <point x="273.125" y="0.0" type="line"/>
      <point x="273.125" y="100.0" type="line"/>
      <point x="234.9284" y="100.0" type="line"/>
      <point x="173.125" y="38.1966" type="line"/>
      <point x="173.125" y="0.0" type="line"/>
    </contour>
  </outline>
</glyph>
<glyph name="z_with_caron" format="2">
  <advance width="308.75"/>
  <unicode hex="017E"/>
  <outline>
    <contour>
      <point x="51.25" y="647.2222222222222" type="line"/>
      <point x="151.25" y="647.2222222222222" type="line"/>
      <point x="151.25" y="685.4188222222222" type="line"/>
      <point x="89.44659999999999" y="747.2222222222222" type="line"/>
      <point x="51.25" y="747.2222222222222" type="line"/>
    </contour>
    <contour>
      <point x="257.5" y="647.2222222222222" type="line"/>
      <point x="257.5" y="747.2222222222222" type="line"/>
      <point x="219.3034" y="747.2222222222222" type="line"/>
      <point x="157.5" y="685.4188222222222" type="line"/>
      <point x="157.5" y="647.2222222222222" type="line"/>
    </contour>
    <contour>
      <point x="35.625" y="600.0" type="line"/>
      <point x="35.625" y="500.0" type="line"/>
      <point x="73.82159999999999" y="500.0" type="line"/>
      <point x="135.625" y="561.8034" type="line"/>
      <point x="135.625" y="600.0" type="line"/>
    </contour>
    <contour>
      <point x="211.32160186767578" y="250" type="line"/>
      <point x="273.125" y="311.8033981323242" type="line"/>
      <point x="273.125" y="600" type="line"/>
      <point x="173.125" y="600" type="line"/>
      <point x="173.125" y="250" type="line"/>
    </contour>
    <contour>
      <point x="35.625" y="0" type="line"/>
      <point x="135.625" y="0" type="line"/>
      <point x="135.625" y="350" type="line"/>
      <point x="97.42839813232422" y="350" type="line"/>
      <point x="35.625" y="288.1966018676758" type="line"/>
    </contour>
    <contour>
      <point x="273.125" y="0.0" type="line"/>
      <point x="273.125" y="100.0" type="line"/>
      <point x="234.9284" y="100.0" type="line"/>
      <point x="173.125" y="38.1966" type="line"/>
      <point x="173.125" y="0.0" type="line"/>
    </contour>
  </outline>
</glyph>
<glyph name="florin" format="2">
  <advance width="446.25"/>
  <unicode hex="0192"/>
  <outline>
    <contour>
      <point x="211.32160186767578" y="0" type="line"/>
      <point x="273.125" y="61.80339813232422" type="line"/>
      <point x="273.125" y="805" type="line"/>
      <point x="234.92839813232422" y="805" type="line"/>
      <point x="173.125" y="743.1966018676758" type="line"/>
      <point x="173.125" y="0" type="line"/>
    </contour>
    <contour>
      <point x="415.625" y="771.00813" type="line"/>
      <point x="381.63313" y="805.0" type="line"/>
      <point x="339.61687" y="805.0" type="line"/>
      <point x="305.625" y="771.00813" type="line"/>
      <point x="305.625" y="728.99187" type="line"/>
      <point x="339.61687" y="695.0" type="line"/>
      <point x="381.63313" y="695.0" type="line"/>
      <point x="415.625" y="728.99187" type="line"/>
    </contour>
    <contour>
      <point x="73.125" y="425" type="line"/>
      <point x="135.625" y="425" type="line"/>
      <point x="135.625" y="475" type="line"/>
      <point x="73.125" y="475" type="line"/>
    </contour>
    <contour>
      <point x="310.625" y="425" type="line"/>
      <point x="385.625" y="425" type="line"/>
      <point x="385.625" y="475" type="line"/>
      <point x="310.625" y="475" type="line"/>
    </contour>
    <contour>
      <point x="140.625" y="71.00813" type="line"/>
      <point x="106.63313" y="105.0" type="line"/>
      <point x="64.61687" y="105.0" type="line"/>
      <point x="30.625" y="71.00813" type="line"/>
      <point x="30.625" y="28.99187" type="line"/>
      <point x="64.61687" y="-5.0" type="line"/>
      <point x="106.63313" y="-5.0" type="line"/>
      <point x="140.625" y="28.99187" type="line"/>
    </contour>
  </outline>
</glyph>
<glyph name="g_with_caron" format="2">
  <advance width="308.75"/>
  <unicode hex="01E7"/>
  <outline>
    <contour>
      <point x="51.25" y="647.2222222222222" type="line"/>
      <point x="151.25" y="647.2222222222222" type="line"/>
      <point x="151.25" y="685.4188222222222" type="line"/>
      <point x="89.44659999999999" y="747.2222222222222" type="line"/>
      <point x="51.25" y="747.2222222222222" type="line"/>
    </contour>
    <contour>
      <point x="257.5" y="647.2222222222222" type="line"/>
      <point x="257.5" y="747.2222222222222" type="line"/>
      <point x="219.3034" y="747.2222222222222" type="line"/>
      <point x="157.5" y="685.4188222222222" type="line"/>
      <point x="157.5" y="647.2222222222222" type="line"/>
    </contour>
    <contour>
      <point x="97.42839813232422" y="5" type="line"/>
      <point x="135.625" y="5" type="line"/>
      <point x="135.625" y="600" type="line"/>
      <point x="97.42839813232422" y="600" type="line"/>
      <point x="35.625" y="538.1966018676758" type="line"/>
      <point x="35.625" y="66.80339813232422" type="line"/>
    </contour>
    <contour>
      <point x="211.32160186767578" y="-210" type="line"/>
      <point x="273.125" y="-148.19660186767578" type="line"/>
      <point x="273.125" y="600" type="line"/>
      <point x="173.125" y="600" type="line"/>
      <point x="173.125" y="-210" type="line"/>
    </contour>
    <contour>
      <point x="135.625" y="-110.0" type="line"/>
      <point x="35.625" y="-110.0" type="line"/>
      <point x="35.625" y="-148.1966" type="line"/>
      <point x="97.42840000000001" y="-210.0" type="line"/>
      <point x="135.625" y="-210.0" type="line"/>
    </contour>
  </outline>
</glyph>
<glyph name="a_with_gravedbl" format="2">
  <advance width="308.75"/>
  <unicode hex="0201"/>
  <outline>
    <contour>
      <point x="135.625" y="747.2222222222222" type="line"/>
      <point x="35.625" y="747.2222222222222" type="line"/>
      <point x="35.625" y="709.0256222222222" type="line"/>
      <point x="97.42840000000001" y="647.2222222222222" type="line"/>
      <point x="135.625" y="647.2222222222222" type="line"/>
    </contour>
    <contour>
      <point x="273.125" y="747.2222222222222" type="line"/>
      <point x="173.125" y="747.2222222222222" type="line"/>
      <point x="173.125" y="709.0256222222222" type="line"/>
      <point x="234.9284" y="647.2222222222222" type="line"/>
      <point x="273.125" y="647.2222222222222" type="line"/>
    </contour>
    <contour>
      <point x="35.625" y="600.0" type="line"/>
      <point x="35.625" y="500.0" type="line"/>
      <point x="73.82159999999999" y="500.0" type="line"/>
      <point x="135.625" y="561.8034" type="line"/>
      <point x="135.625" y="600.0" type="line"/>
    </contour>
    <contour>
      <point x="234.92839813232422" y="-5" type="line"/>
      <point x="273.125" y="-5" type="line"/>
      <point x="273.125" y="538.1966018676758" type="line"/>
      <point x="211.32160186767578" y="600" type="line"/>
      <point x="173.125" y="600" type="line"/>
      <point x="173.125" y="56.80339813232422" type="line"/>
    </contour>
    <contour>
      <point x="97.42839813232422" y="-5" type="line"/>
      <point x="135.625" y="-5" type="line"/>
      <point x="135.625" y="400" type="line"/>
      <point x="97.42839813232422" y="400" type="line"/>
      <point x="35.625" y="338.1966018676758" type="line"/>
      <point x="35.625" y="56.80339813232422" type="line"/>
    </contour>
  </outline>
</glyph>
<glyph name="I_with_gravedbl" format="2">
  <advance width="171.25"/>
  <unicode hex="0208"/>
  <outline>
    <contour>
      <point x="66.875" y="947.2222222222222" type="line"/>
      <point x="-33.125" y="947.2222222222222" type="line"/>
      <point x="-33.125" y="909.0256222222222" type="line"/>
      <point x="28.678400000000003" y="847.2222222222222" type="line"/>
      <point x="66.875" y="847.2222222222222" type="line"/>
    </contour>
    <contour>
      <point x="204.375" y="947.2222222222222" type="line"/>
      <point x="104.375" y="947.2222222222222" type="line"/>
      <point x="104.375" y="909.0256222222222" type="line"/>
      <point x="166.1784" y="847.2222222222222" type="line"/>
      <point x="204.375" y="847.2222222222222" type="line"/>
    </contour>
    <contour>
      <point x="35.625" y="0" type="line"/>
      <point x="135.625" y="0" type="line"/>
      <point x="135.625" y="800" type="line"/>
      <point x="35.625" y="800" type="line"/>
    </contour>
  </outline>
</glyph>
<glyph name="i_with_gravedbl" format="2">
  <advance width="171.25"/>
  <unicode hex="0209"/>
  <outline>
    <contour>
      <point x="66.875" y="747.2222222222222" type="line"/>
      <point x="-33.125" y="747.2222222222222" type="line"/>
      <point x="-33.125" y="709.0256222222222" type="line"/>
      <point x="28.678400000000003" y="647.2222222222222" type="line"/>
      <point x="66.875" y="647.2222222222222" type="line"/>
    </contour>
    <contour>
      <point x="204.375" y="747.2222222222222" type="line"/>
      <point x="104.375" y="747.2222222222222" type="line"/>
      <point x="104.375" y="709.0256222222222" type="line"/>
      <point x="166.1784" y="647.2222222222222" type="line"/>
      <point x="204.375" y="647.2222222222222" type="line"/>
    </contour>
    <contour>
      <point x="35.625" y="0" type="line"/>
      <point x="135.625" y="0" type="line"/>
      <point x="135.625" y="600" type="line"/>
      <point x="35.625" y="600" type="line"/>
    </contour>
  </outline>
</glyph>
<glyph name="o_with_breveinv" format="2">
  <advance width="308.75"/>
  <unicode hex="020F"/>
  <outline>
    <contour>
      <point x="54.375" y="685.4188232421875" type="line"/>
      <point x="54.375" y="647.2222213745117" type="line"/>
      <point x="254.375" y="647.2222213745117" type="line"/>
      <point x="254.375" y="685.4188232421875" type="line"/>
      <point x="192.57160186767578" y="747.2222213745117" type="line"/>
      <point x="116.17839813232422" y="747.2222213745117" type="line"/>
    </contour>
    <contour>
      <point x="97.42839813232422" y="-5" type="line"/>
      <point x="135.625" y="-5" type="line"/>
      <point x="135.625" y="605" type="line"/>
      <point x="97.42839813232422" y="605" type="line"/>
      <point x="35.625" y="543.1966018676758" type="line"/>
      <point x="35.625" y="56.80339813232422" type="line"/>
    </contour>
    <contour>
      <point x="211.32160186767578" y="-5" type="line"/>
      <point x="273.125" y="56.80339813232422" type="line"/>
      <point x="273.125" y="543.1966018676758" type="line"/>
      <point x="211.32160186767578" y="605" type="line"/>
      <point x="173.125" y="605" type="line"/>
      <point x="173.125" y="-5" type="line"/>
    </contour>
  </outline>
</glyph>
<glyph name="R_with_gravedbl" format="2">
  <advance width="308.75"/>
  <unicode hex="0210"/>
  <outline>
    <contour>
      <point x="135.625" y="947.2222222222222" type="line"/>
      <point x="35.625" y="947.2222222222222" type="line"/>
      <point x="35.625" y="909.0256222222222" type="line"/>
      <point x="97.42840000000001" y="847.2222222222222" type="line"/>
      <point x="135.625" y="847.2222222222222" type="line"/>
    </contour>
    <contour>
      <point x="273.125" y="947.2222222222222" type="line"/>
      <point x="173.125" y="947.2222222222222" type="line"/>
      <point x="173.125" y="909.0256222222222" type="line"/>
      <point x="234.9284" y="847.2222222222222" type="line"/>
      <point x="273.125" y="847.2222222222222" type="line"/>
    </contour>
    <contour>
      <point x="35.625" y="0" type="line"/>
      <point x="135.625" y="0" type="line"/>
      <point x="135.625" y="800" type="line"/>
      <point x="35.625" y="800" type="line"/>
    </contour>
    <contour>
      <point x="173.125" y="0" type="line"/>
      <point x="273.125" y="0" type="line"/>
      <point x="273.125" y="138.19660186767578" type="line"/>
      <point x="211.32160186767578" y="200" type="line"/>
      <point x="273.125" y="261.8033981323242" type="line"/>
      <point x="273.125" y="738.1966018676758" type="line"/>
      <point x="211.32160186767578" y="800" type="line"/>
      <point x="173.125" y="800" type="line"/>
    </contour>
  </outline>
</glyph>
<glyph name="r_with_gravedbl" format="2">
  <advance width="308.75"/>
  <unicode hex="0211"/>
  <outline>
    <contour>
      <point x="135.625" y="747.2222222222222" type="line"/>
      <point x="35.625" y="747.2222222222222" type="line"/>
      <point x="35.625" y="709.0256222222222" type="line"/>
      <point x="97.42840000000001" y="647.2222222222222" type="line"/>
      <point x="135.625" y="647.2222222222222" type="line"/>
    </contour>
    <contour>
      <point x="273.125" y="747.2222222222222" type="line"/>
      <point x="173.125" y="747.2222222222222" type="line"/>
      <point x="173.125" y="709.0256222222222" type="line"/>
      <point x="234.9284" y="647.2222222222222" type="line"/>
      <point x="273.125" y="647.2222222222222" type="line"/>
    </contour>
    <contour>
      <point x="35.625" y="0" type="line"/>
      <point x="135.625" y="0" type="line"/>
      <point x="135.625" y="600" type="line"/>
      <point x="35.625" y="600" type="line"/>
    </contour>
    <contour>
      <point x="273.125" y="600.0" type="line"/>
      <point x="173.125" y="600.0" type="line"/>
      <point x="173.125" y="561.8034" type="line"/>
      <point x="234.9284" y="500.0" type="line"/>
      <point x="273.125" y="500.0" type="line"/>
    </contour>
  </outline>
</glyph>
<glyph name="R_with_breveinv" format="2">
  <advance width="308.75"/>
  <unicode hex="0212"/>
  <outline>
    <contour>
      <point x="54.375" y="885.4188232421875" type="line"/>
      <point x="54.375" y="847.2222213745117" type="line"/>
      <point x="254.375" y="847.2222213745117" type="line"/>
      <point x="254.375" y="885.4188232421875" type="line"/>
      <point x="192.57160186767578" y="947.2222213745117" type="line"/>
      <point x="116.17839813232422" y="947.2222213745117" type="line"/>
    </contour>
    <contour>
      <point x="35.625" y="0" type="line"/>
      <point x="135.625" y="0" type="line"/>
      <point x="135.625" y="800" type="line"/>
      <point x="35.625" y="800" type="line"/>
    </contour>
    <contour>
      <point x="173.125" y="0" type="line"/>
      <point x="273.125" y="0" type="line"/>
      <point x="273.125" y="138.19660186767578" type="line"/>
      <point x="211.32160186767578" y="200" type="line"/>
      <point x="273.125" y="261.8033981323242" type="line"/>
      <point x="273.125" y="738.1966018676758" type="line"/>
      <point x="211.32160186767578" y="800" type="line"/>
      <point x="173.125" y="800" type="line"/>
    </contour>
  </outline>
</glyph>
<glyph name="S_with_commabelow" format="2">
  <advance width="308.75"/>
  <unicode hex="0218"/>
  <outline>
    <contour>
      <point x="97.42839813232422" y="350" type="line"/>
      <point x="135.625" y="350" type="line"/>
      <point x="135.625" y="800" type="line"/>
      <point x="97.42839813232422" y="800" type="line"/>
      <point x="35.625" y="738.1966018676758" type="line"/>
      <point x="35.625" y="411.8033981323242" type="line"/>
    </contour>
    <contour>
      <point x="270.0" y="800.0" type="line"/>
      <point x="170.0" y="800.0" type="line"/>
      <point x="170.0" y="761.8034" type="line"/>
      <point x="231.8034" y="700.0" type="line"/>
      <point x="270.0" y="700.0" type="line"/>
    </contour>
    <contour>
      <point x="211.32160186767578" y="0" type="line"/>
      <point x="273.125" y="61.80339813232422" type="line"/>
      <point x="273.125" y="388.1966018676758" type="line"/>
      <point x="211.32160186767578" y="450" type="line"/>
      <point x="173.125" y="450" type="line"/>
      <point x="173.125" y="0" type="line"/>
    </contour>
    <contour>
      <point x="37.1875" y="0" type="line"/>
      <point x="137.1875" y="0" type="line"/>
      <point x="137.1875" y="38.1966" type="line"/>
      <point x="75.38409999999999" y="100.0" type="line"/>
      <point x="37.1875" y="100.0" type="line"/>
    </contour>
    <contour>
      <point x="104.375" y="-75.0" type="line"/>
      <point x="104.375" y="-175.0" type="line"/>
      <point x="142.5716" y="-175.0" type="line"/>
      <point x="204.375" y="-113.1966" type="line"/>
      <point x="204.375" y="-75.0" type="line"/>
    </contour>
  </outline>
</glyph>
<glyph name="s_with_commabelow" format="2">
  <advance width="308.75"/>
  <unicode hex="0219"/>
  <outline>
    <contour>
      <point x="97.42839813232422" y="250" type="line"/>
      <point x="135.625" y="250" type="line"/>
      <point x="135.625" y="600" type="line"/>
      <point x="97.42839813232422" y="600" type="line"/>
      <point x="35.625" y="538.1966018676758" type="line"/>
      <point x="35.625" y="311.8033981323242" type="line"/>
    </contour>
    <contour>
      <point x="270.0" y="600.0" type="line"/>
      <point x="170.0" y="600.0" type="line"/>
      <point x="170.0" y="561.8034" type="line"/>
      <point x="231.8034" y="500.0" type="line"/>
      <point x="270.0" y="500.0" type="line"/>
    </contour>
    <contour>
      <point x="211.32160186767578" y="-5" type="line"/>
      <point x="273.125" y="56.80339813232422" type="line"/>
      <point x="273.125" y="283.1966018676758" type="line"/>
      <point x="211.32160186767578" y="345" type="line"/>
      <point x="173.125" y="345" type="line"/>
      <point x="173.125" y="-5" type="line"/>
    </contour>
    <contour>
      <point x="37.1875" y="0" type="line"/>
      <point x="137.1875" y="0" type="line"/>
      <point x="137.1875" y="38.1966" type="line"/>
      <point x="75.38409999999999" y="100.0" type="line"/>
      <point x="37.1875" y="100.0" type="line"/>
    </contour>
    <contour>
      <point x="104.375" y="-80.0" type="line"/>
      <point x="104.375" y="-180.0" type="line"/>
      <point x="142.5716" y="-180.0" type="line"/>
      <point x="204.375" y="-118.1966" type="line"/>
      <point x="204.375" y="-80.0" type="line"/>
    </contour>
  </outline>
</glyph>
<glyph name="t_with_commabelow" format="2">
  <advance width="308.75"/>
  <unicode hex="021B"/>
  <outline>
    <contour>
      <point x="35.625" y="0" type="line"/>
      <point x="135.625" y="0" type="line"/>
      <point x="135.625" y="800" type="line"/>
      <point x="97.42839813232422" y="800" type="line"/>
      <point x="35.625" y="738.1966018676758" type="line"/>
    </contour>
    <contour>
      <point x="173.125" y="600.0" type="line"/>
      <point x="173.125" y="500.0" type="line"/>
      <point x="211.3216" y="500.0" type="line"/>
      <point x="273.125" y="561.8034" type="line"/>
      <point x="273.125" y="600.0" type="line"/>
    </contour>
    <contour>
      <point x="104.375" y="-75.0" type="line"/>
      <point x="104.375" y="-175.0" type="line"/>
      <point x="142.5716" y="-175.0" type="line"/>
      <point x="204.375" y="-113.1966" type="line"/>
      <point x="204.375" y="-75.0" type="line"/>
    </contour>
  </outline>
</glyph>
<glyph name="apostrophe" format="2">
  <advance width="171.25"/>
  <unicode hex="02BC"/>
  <outline>
    <contour>
      <point x="73.82160186767578" y="600" type="line"/>
      <point x="135.625" y="661.8033981323242" type="line"/>
      <point x="135.625" y="800" type="line"/>
      <point x="35.625" y="800" type="line"/>
      <point x="35.625" y="600" type="line"/>
    </contour>
  </outline>
</glyph>
<glyph name="circumflex" format="2">
  <advance width="308.75"/>
  <unicode hex="02C6"/>
  <outline>
    <contour>
      <point x="51.25" y="900.0" type="line"/>
      <point x="51.25" y="800.0" type="line"/>
      <point x="89.44659999999999" y="800.0" type="line"/>
      <point x="151.25" y="861.8034" type="line"/>
      <point x="151.25" y="900.0" type="line"/>
    </contour>
    <contour>
      <point x="257.5" y="900.0" type="line"/>
      <point x="157.5" y="900.0" type="line"/>
      <point x="157.5" y="861.8034" type="line"/>
      <point x="219.3034" y="800.0" type="line"/>
      <point x="257.5" y="800.0" type="line"/>
    </contour>
  </outline>
</glyph>
<glyph name="caron" format="2">
  <advance width="308.75"/>
  <unicode hex="02C7"/>
  <outline>
    <contour>
      <point x="51.25" y="800" type="line"/>
      <point x="151.25" y="800" type="line"/>
      <point x="151.25" y="838.1966" type="line"/>
      <point x="89.44659999999999" y="900.0" type="line"/>
      <point x="51.25" y="900.0" type="line"/>
    </contour>
    <contour>
      <point x="257.5" y="800.0" type="line"/>
      <point x="257.5" y="900.0" type="line"/>
      <point x="219.3034" y="900.0" type="line"/>
      <point x="157.5" y="838.1966" type="line"/>
      <point x="157.5" y="800.0" type="line"/>
    </contour>
  </outline>
</glyph>
<glyph name="breve" format="2">
  <advance width="308.75"/>
  <unicode hex="02D8"/>
  <outline>
    <contour>
      <point x="54.375" y="861.8033981323242" type="line"/>
      <point x="116.17839813232422" y="800" type="line"/>
      <point x="192.57160186767578" y="800" type="line"/>
      <point x="254.375" y="861.8033981323242" type="line"/>
      <point x="254.375" y="900" type="line"/>
      <point x="54.375" y="900" type="line"/>
    </contour>
  </outline>
</glyph>
<glyph name="ring" format="2">
  <advance width="308.75"/>
  <unicode hex="02DA"/>
  <outline>
    <contour>
      <point x="135.625" y="905.0" type="line"/>
      <point x="114.61687" y="905.0" type="line"/>
      <point x="80.625" y="871.0081299999999" type="line"/>
      <point x="80.625" y="828.99187" type="line"/>
      <point x="114.61687" y="795.0" type="line"/>
      <point x="135.625" y="795.0" type="line"/>
    </contour>
    <contour>
      <point x="173.125" y="795.0" type="line"/>
      <point x="194.13313" y="795.0" type="line"/>
      <point x="228.125" y="828.99187" type="line"/>
      <point x="228.125" y="871.0081299999999" type="line"/>
      <point x="194.13313" y="905.0" type="line"/>
      <point x="173.125" y="905.0" type="line"/>
    </contour>
  </outline>
</glyph>
<glyph name="ogonek" format="2">
  <advance width="171.25"/>
  <unicode hex="02DB"/>
  <outline>
    <contour>
      <point x="85.625" y="-100.0" type="line"/>
      <point x="85.625" y="0.0" type="line"/>
      <point x="47.428399999999996" y="0.0" type="line"/>
      <point x="-14.375" y="-61.80340000000001" type="line"/>
      <point x="-14.375" y="-100.0" type="line"/>
    </contour>
  </outline>
</glyph>
<glyph name="acutedbl" format="2">
  <advance width="308.75"/>
  <unicode hex="02DD"/>
  <outline>
    <contour>
      <point x="35.625" y="900.0" type="line"/>
      <point x="35.625" y="800.0" type="line"/>
      <point x="73.82159999999999" y="800.0" type="line"/>
      <point x="135.625" y="861.8034" type="line"/>
      <point x="135.625" y="900.0" type="line"/>
    </contour>
    <contour>
      <point x="173.125" y="900.0" type="line"/>
      <point x="173.125" y="800.0" type="line"/>
      <point x="211.3216" y="800.0" type="line"/>
      <point x="273.125" y="861.8034" type="line"/>
      <point x="273.125" y="900.0" type="line"/>
    </contour>
  </outline>
</glyph>
<glyph name="combining_grave" format="2">
  <advance width="171.25"/>
  <unicode hex="0300"/>
  <outline>
    <contour>
      <point x="-216.875" y="747.22222" type="line"/>
      <point x="-316.875" y="747.22222" type="line"/>
      <point x="-316.875" y="709.02562" type="line"/>
      <point x="-255.0716" y="647.22222" type="line"/>
      <point x="-216.875" y="647.22222" type="line"/>
    </contour>
  </outline>
</glyph>
<glyph name="combining_acute" format="2">
  <advance width="171.25"/>
  <unicode hex="0301"/>
  <outline>
    <contour>
      <point x="-229.375" y="747.22222" type="line"/>
      <point x="-229.375" y="647.22222" type="line"/>
      <point x="-191.1784" y="647.22222" type="line"/>
      <point x="-129.375" y="709.02562" type="line"/>
      <point x="-129.375" y="747.22222" type="line"/>
    </contour>
  </outline>
</glyph>
<glyph name="combining_circumflex" format="2">
  <advance width="308.75"/>
  <unicode hex="0302"/>
  <outline>
    <contour>
      <point x="-257.5" y="747.22222" type="line"/>
      <point x="-257.5" y="647.22222" type="line"/>
      <point x="-219.3034" y="647.22222" type="line"/>
      <point x="-157.5" y="709.02562" type="line"/>
      <point x="-157.5" y="747.22222" type="line"/>
    </contour>
    <contour>
      <point x="-51.25" y="747.22222" type="line"/>
      <point x="-151.25" y="747.22222" type="line"/>
      <point x="-151.25" y="709.02562" type="line"/>
      <point x="-89.4466" y="647.22222" type="line"/>
      <point x="-51.25" y="647.22222" type="line"/>
    </contour>
  </outline>
</glyph>
<glyph name="combining_smalltilde" format="2">
  <advance width="308.75"/>
  <unicode hex="0303"/>
  <outline>
    <contour>
      <point x="-254.375" y="685.4188232421875" type="line"/>
      <point x="-254.375" y="647.2222213745117" type="line"/>
      <point x="-116.17839813232422" y="647.2222213745117" type="line"/>
      <point x="-54.375" y="709.0256195068359" type="line"/>
      <point x="-54.375" y="747.2222213745117" type="line"/>
      <point x="-192.57160186767578" y="747.2222213745117" type="line"/>
    </contour>
  </outline>
</glyph>
<glyph name="combining_macron" format="2">
  <advance width="308.75"/>
  <unicode hex="0304"/>
  <outline>
    <contour>
      <point x="-254.375" y="647.2222213745117" type="line"/>
      <point x="-54.375" y="647.2222213745117" type="line"/>
      <point x="-54.375" y="747.2222213745117" type="line"/>
      <point x="-254.375" y="747.2222213745117" type="line"/>
    </contour>
  </outline>
</glyph>
<glyph name="combining_dotabove" format="2">
  <advance width="171.25"/>
  <unicode hex="0307"/>
  <outline>
    <contour>
      <point x="-273.125" y="747.22222" type="line"/>
      <point x="-173.125" y="747.22222" type="line"/>
      <point x="-173.125" y="847.22222" type="line"/>
      <point x="-273.125" y="847.22222" type="line"/>
    </contour>
  </outline>
</glyph>
<glyph name="combining_diaeresis" format="2">
  <advance width="308.75"/>
  <unicode hex="0308"/>
  <outline>
    <contour>
      <point x="-273.125" y="747.22222" type="line"/>
      <point x="-173.125" y="747.22222" type="line"/>
      <point x="-173.125" y="847.22222" type="line"/>
      <point x="-273.125" y="847.22222" type="line"/>
    </contour>
    <contour>
      <point x="-135.625" y="747.22222" type="line"/>
      <point x="-35.625" y="747.22222" type="line"/>
      <point x="-35.625" y="847.22222" type="line"/>
      <point x="-135.625" y="847.22222" type="line"/>
    </contour>
  </outline>
</glyph>
<glyph name="combining_hook" format="2">
  <advance width="171.25"/>
  <unicode hex="0309"/>
  <outline>
    <contour>
      <point x="-229.375" y="647.22222" type="line"/>
      <point x="-129.375" y="647.22222" type="line"/>
      <point x="-129.375" y="685.41882" type="line"/>
      <point x="-191.1784" y="747.22222" type="line"/>
      <point x="-229.375" y="747.22222" type="line"/>
    </contour>
  </outline>
</glyph>
<glyph name="combining_ring" format="2">
  <advance width="308.75"/>
  <unicode hex="030A"/>
  <outline>
    <contour>
      <point x="-173.125" y="752.22222" type="line"/>
      <point x="-194.13313" y="752.22222" type="line"/>
      <point x="-228.125" y="718.23035" type="line"/>
      <point x="-228.125" y="676.2140899999999" type="line"/>
      <point x="-194.13313" y="642.22222" type="line"/>
      <point x="-173.125" y="642.22222" type="line"/>
    </contour>
    <contour>
      <point x="-135.625" y="642.22222" type="line"/>
      <point x="-114.61687" y="642.22222" type="line"/>
      <point x="-80.625" y="676.2140899999999" type="line"/>
      <point x="-80.625" y="718.23035" type="line"/>
      <point x="-114.61687" y="752.22222" type="line"/>
      <point x="-135.625" y="752.22222" type="line"/>
    </contour>
  </outline>
</glyph>
<glyph name="combining_acutedbl" format="2">
  <advance width="308.75"/>
  <unicode hex="030B"/>
  <outline>
    <contour>
      <point x="-273.125" y="747.22222" type="line"/>
      <point x="-273.125" y="647.22222" type="line"/>
      <point x="-234.9284" y="647.22222" type="line"/>
      <point x="-173.125" y="709.02562" type="line"/>
      <point x="-173.125" y="747.22222" type="line"/>
    </contour>
    <contour>
      <point x="-135.625" y="747.22222" type="line"/>
      <point x="-135.625" y="647.22222" type="line"/>
      <point x="-97.42840000000001" y="647.22222" type="line"/>
      <point x="-35.625" y="709.02562" type="line"/>
      <point x="-35.625" y="747.22222" type="line"/>
    </contour>
  </outline>
</glyph>
<glyph name="combining_gravedbl" format="2">
  <advance width="308.75"/>
  <unicode hex="030F"/>
  <outline>
    <contour>
      <point x="-173.125" y="747.22222" type="line"/>
      <point x="-273.125" y="747.22222" type="line"/>
      <point x="-273.125" y="709.02562" type="line"/>
      <point x="-211.3216" y="647.22222" type="line"/>
      <point x="-173.125" y="647.22222" type="line"/>
    </contour>
    <contour>
      <point x="-35.625" y="747.22222" type="line"/>
      <point x="-135.625" y="747.22222" type="line"/>
      <point x="-135.625" y="709.02562" type="line"/>
      <point x="-73.8216" y="647.22222" type="line"/>
      <point x="-35.625" y="647.22222" type="line"/>
    </contour>
  </outline>
</glyph>
<glyph name="combining_dotbelow" format="2">
  <advance width="171.25"/>
  <unicode hex="0323"/>
  <outline>
    <contour>
      <point x="-273.125" y="-150.0" type="line"/>
      <point x="-173.125" y="-150.0" type="line"/>
      <point x="-173.125" y="-50.0" type="line"/>
      <point x="-273.125" y="-50.0" type="line"/>
    </contour>
  </outline>
</glyph>
<glyph name="combining_diaeresisbelow" format="2">
  <advance width="308.75"/>
  <unicode hex="0324"/>
  <outline>
    <contour>
      <point x="-273.125" y="-150.0" type="line"/>
      <point x="-173.125" y="-150.0" type="line"/>
      <point x="-173.125" y="-50.0" type="line"/>
      <point x="-273.125" y="-50.0" type="line"/>
    </contour>
    <contour>
      <point x="-135.625" y="-150.0" type="line"/>
      <point x="-35.625" y="-150.0" type="line"/>
      <point x="-35.625" y="-50.0" type="line"/>
      <point x="-135.625" y="-50.0" type="line"/>
    </contour>
  </outline>
</glyph>
<glyph name="combining_commabelow" format="2">
  <advance width="171.25"/>
  <unicode hex="0326"/>
  <outline>
    <contour>
      <point x="-273.125" y="-50.0" type="line"/>
      <point x="-273.125" y="-150.0" type="line"/>
      <point x="-234.9284" y="-150.0" type="line"/>
      <point x="-173.125" y="-88.1966" type="line"/>
      <point x="-173.125" y="-50.0" type="line"/>
    </contour>
  </outline>
</glyph>
<glyph name="combining_cedilla" format="2">
  <advance width="171.25"/>
  <unicode hex="0327"/>
  <outline>
    <contour>
      <point x="-229.375" y="-100.0" type="line"/>
      <point x="-129.375" y="-100.0" type="line"/>
      <point x="-129.375" y="-61.80340000000001" type="line"/>
      <point x="-191.1784" y="0.0" type="line"/>
      <point x="-229.375" y="0.0" type="line"/>
    </contour>
  </outline>
</glyph>
<glyph name="PI" format="2">
  <advance width="383.75"/>
  <unicode hex="03A0"/>
  <outline>
    <contour>
      <point x="35.625" y="700" type="line"/>
      <point x="348.125" y="700" type="line"/>
      <point x="348.125" y="800" type="line"/>
      <point x="35.625" y="800" type="line"/>
    </contour>
    <contour>
      <point x="73.125" y="0" type="line"/>
      <point x="173.125" y="0" type="line"/>
      <point x="173.125" y="670.8333282470703" type="line"/>
      <point x="73.125" y="670.8333282470703" type="line"/>
    </contour>
    <contour>
      <point x="210.625" y="0" type="line"/>
      <point x="310.625" y="0" type="line"/>
      <point x="310.625" y="670.8333282470703" type="line"/>
      <point x="210.625" y="670.8333282470703" type="line"/>
    </contour>
  </outline>
</glyph>
<glyph name="SIGMA" format="2">
  <advance width="308.75"/>
  <unicode hex="03A3"/>
  <outline>
    <contour>
      <point x="35.625" y="0" type="line"/>
      <point x="135.625" y="0" type="line"/>
      <point x="135.625" y="800" type="line"/>
      <point x="35.625" y="800" type="line"/>
      <point x="35.625" y="461.8033981323242" type="line"/>
      <point x="97.42839813232422" y="400" type="line"/>
      <point x="35.625" y="338.1966018676758" type="line"/>
    </contour>
    <contour>
      <point x="273.125" y="800.0" type="line"/>
      <point x="173.125" y="800.0" type="line"/>
      <point x="173.125" y="761.8034" type="line"/>
      <point x="234.9284" y="700.0" type="line"/>
      <point x="273.125" y="700.0" type="line"/>
    </contour>
    <contour>
      <point x="273.125" y="0.0" type="line"/>
      <point x="273.125" y="100.0" type="line"/>
      <point x="234.9284" y="100.0" type="line"/>
      <point x="173.125" y="38.1966" type="line"/>
      <point x="173.125" y="0.0" type="line"/>
    </contour>
  </outline>
</glyph>
<glyph name="pi" format="2">
  <advance width="421.25"/>
  <unicode hex="03C0"/>
  <outline>
    <contour>
      <point x="35.625" y="538.1966018676758" type="line"/>
      <point x="35.625" y="500" type="line"/>
      <point x="323.8216018676758" y="500" type="line"/>
      <point x="385.625" y="561.8033981323242" type="line"/>
      <point x="385.625" y="600" type="line"/>
      <point x="97.42839813232422" y="600" type="line"/>
    </contour>
    <contour>
      <point x="85.625" y="0" type="line"/>
      <point x="185.625" y="0" type="line"/>
      <point x="185.625" y="470.8333282470703" type="line"/>
      <point x="85.625" y="470.8333282470703" type="line"/>
    </contour>
    <contour>
      <point x="284.9283981323242" y="0" type="line"/>
      <point x="360.625" y="0" type="line"/>
      <point x="360.625" y="100" type="line"/>
      <point x="323.125" y="100" type="line"/>
      <point x="323.125" y="470.8333282470703" type="line"/>
      <point x="223.125" y="470.8333282470703" type="line"/>
      <point x="223.125" y="61.80339813232422" type="line"/>
    </contour>
  </outline>
</glyph>
<glyph name="sigma" format="2">
  <advance width="346.25"/>
  <unicode hex="03C3"/>
  <outline>
    <contour>
      <point x="97.42839813232422" y="-5" type="line"/>
      <point x="135.625" y="-5" type="line"/>
      <point x="135.625" y="600" type="line"/>
      <point x="97.42839813232422" y="600" type="line"/>
      <point x="35.625" y="538.1966018676758" type="line"/>
      <point x="35.625" y="56.80339813232422" type="line"/>
    </contour>
    <contour>
      <point x="273.125" y="500" type="line"/>
      <point x="310.625" y="500" type="line"/>
      <point x="310.625" y="600" type="line"/>
      <point x="173.125" y="600" type="line"/>
      <point x="173.125" y="-5" type="line"/>
      <point x="211.32160186767578" y="-5" type="line"/>
      <point x="273.125" y="56.80339813232422" type="line"/>
    </contour>
  </outline>
</glyph>
<glyph name="W_with_grave" format="2">
  <advance width="446.25"/>
  <unicode hex="1E80"/>
  <outline>
    <contour>
      <point x="229.375" y="947.2222222222222" type="line"/>
      <point x="129.375" y="947.2222222222222" type="line"/>
      <point x="129.375" y="909.0256222222222" type="line"/>
      <point x="191.1784" y="847.2222222222222" type="line"/>
      <point x="229.375" y="847.2222222222222" type="line"/>
    </contour>
    <contour>
      <point x="97.42839813232422" y="0" type="line"/>
      <point x="135.625" y="0" type="line"/>
      <point x="135.625" y="738.1966018676758" type="line"/>
      <point x="73.82160186767578" y="800" type="line"/>
      <point x="35.625" y="800" type="line"/>
      <point x="35.625" y="61.80339813232422" type="line"/>
    </contour>
    <contour>
      <point x="173.125" y="0" type="line"/>
      <point x="273.125" y="0" type="line"/>
      <point x="273.125" y="738.1966018676758" type="line"/>
      <point x="211.32160186767578" y="800" type="line"/>
      <point x="173.125" y="800" type="line"/>
    </contour>
    <contour>
      <point x="348.8216018676758" y="0" type="line"/>
      <point x="410.625" y="61.80339813232422" type="line"/>
      <point x="410.625" y="800" type="line"/>
      <point x="310.625" y="800" type="line"/>
      <point x="310.625" y="0" type="line"/>
    </contour>
  </outline>
</glyph>
<glyph name="w_with_diaeresis" format="2">
  <advance width="446.25"/>
  <unicode hex="1E85"/>
  <outline>
    <contour>
      <point x="104.375" y="747.2222222222222" type="line"/>
      <point x="204.375" y="747.2222222222222" type="line"/>
      <point x="204.375" y="847.2222222222222" type="line"/>
      <point x="104.375" y="847.2222222222222" type="line"/>
    </contour>
    <contour>
      <point x="241.875" y="747.2222222222222" type="line"/>
      <point x="341.875" y="747.2222222222222" type="line"/>
      <point x="341.875" y="847.2222222222222" type="line"/>
      <point x="241.875" y="847.2222222222222" type="line"/>
    </contour>
    <contour>
      <point x="97.42839813232422" y="0" type="line"/>
      <point x="135.625" y="0" type="line"/>
      <point x="135.625" y="538.1966018676758" type="line"/>
      <point x="73.82160186767578" y="600" type="line"/>
      <point x="35.625" y="600" type="line"/>
      <point x="35.625" y="61.80339813232422" type="line"/>
    </contour>
    <contour>
      <point x="173.125" y="0" type="line"/>
      <point x="273.125" y="0" type="line"/>
      <point x="273.125" y="538.1966018676758" type="line"/>
      <point x="211.32160186767578" y="600" type="line"/>
      <point x="173.125" y="600" type="line"/>
    </contour>
    <contour>
      <point x="348.8216018676758" y="0" type="line"/>
      <point x="410.625" y="61.80339813232422" type="line"/>
      <point x="410.625" y="600" type="line"/>
      <point x="310.625" y="600" type="line"/>
      <point x="310.625" y="0" type="line"/>
    </contour>
  </outline>
</glyph>
